{"glyphs":{"0":{"ha":881,"x_min":42,"x_max":839,"o":"m 151 116 q 42 486 42 246 q 151 856 42 726 q 440 986 260 986 q 730 856 621 986 q 839 486 839 726 q 730 116 839 246 q 440 -14 621 -14 q 151 116 260 -14 z m 523 267 q 544 486 544 329 q 523 705 544 643 q 440 767 501 767 q 358 705 379 767 q 336 486 336 643 q 358 267 336 329 q 440 206 379 206 q 523 267 501 206 z "},"1":{"ha":881,"x_min":110,"x_max":783,"o":"m 783 0 l 165 0 l 165 229 l 339 229 l 339 732 l 110 732 l 110 918 l 421 976 q 491 985 463 985 q 553 978 519 986 q 606 938 588 969 q 624 850 624 906 l 624 850 l 624 229 l 783 229 l 783 0 z "},"2":{"ha":881,"x_min":64,"x_max":793,"o":"m 390 263 l 390 257 l 793 257 l 793 0 l 64 0 l 64 197 l 236 351 q 271 382 242 356 q 315 422 300 408 q 360 465 331 436 q 406 515 389 493 q 440 565 422 538 q 467 618 458 592 q 476 669 476 644 l 476 669 q 379 757 476 757 l 379 757 q 190 693 289 757 l 190 693 l 86 874 q 447 986 257 986 l 447 986 q 681 921 589 986 q 774 718 774 856 l 774 718 q 756 610 774 661 q 715 522 739 558 q 649 447 692 485 q 574 384 607 408 q 489 326 540 360 l 489 326 l 390 263 z "},"3":{"ha":881,"x_min":67,"x_max":799,"o":"m 147 719 l 147 719 l 89 914 q 451 986 263 986 l 451 986 q 681 926 590 986 q 771 740 771 867 l 771 740 q 706 583 771 642 q 533 513 642 524 l 533 513 l 533 507 q 728 444 658 506 q 799 276 799 383 l 799 276 q 681 61 799 136 q 397 -14 563 -14 l 397 -14 q 67 75 211 -14 l 67 75 l 147 269 q 247 237 178 254 q 376 219 315 219 l 376 219 q 504 306 504 219 l 504 306 q 468 372 504 356 q 363 389 432 389 l 363 389 l 240 389 l 240 599 l 339 599 q 440 616 403 599 q 476 683 476 633 l 476 683 q 361 760 476 760 l 361 760 q 147 719 265 760 z "},"4":{"ha":881,"x_min":14,"x_max":865,"o":"m 456 0 l 456 147 l 14 147 l 14 344 l 339 986 l 740 986 l 740 379 l 865 379 l 865 147 l 740 147 l 740 0 l 456 0 z m 296 385 l 296 379 l 463 379 l 463 546 l 471 788 l 465 789 q 378 561 426 667 l 378 561 l 296 385 z "},"5":{"ha":881,"x_min":88,"x_max":819,"o":"m 88 68 l 88 68 l 168 263 q 383 219 263 219 l 383 219 q 525 313 525 219 l 525 313 q 347 403 525 403 l 347 403 q 133 382 263 403 l 133 382 l 122 392 l 122 957 l 135 972 l 785 972 l 785 715 l 324 715 l 324 582 q 458 596 386 596 l 458 596 q 638 567 558 596 q 768 472 717 539 q 819 310 819 406 l 819 310 q 758 125 819 200 q 605 18 696 50 q 401 -14 514 -14 l 401 -14 q 88 68 221 -14 z "},"6":{"ha":881,"x_min":69,"x_max":819,"o":"m 364 315 q 444 188 364 188 q 525 315 525 188 q 444 443 525 443 q 364 315 364 443 z m 364 618 l 364 618 l 368 614 q 503 644 432 644 l 503 644 q 729 556 639 644 q 819 326 819 467 l 819 326 q 717 81 819 175 q 444 -14 615 -14 l 444 -14 q 166 100 263 -14 q 69 397 69 214 l 69 397 q 128 688 69 556 q 309 903 188 819 q 592 986 431 986 l 592 986 q 760 958 682 986 l 760 958 l 717 761 q 601 779 663 779 l 601 779 q 456 740 521 779 q 364 618 392 701 z "},"7":{"ha":881,"x_min":88,"x_max":792,"o":"m 88 715 l 88 972 l 792 972 l 792 775 l 368 -28 l 147 107 l 551 715 l 88 715 z "},"8":{"ha":881,"x_min":46,"x_max":835,"o":"m 186 461 l 186 461 l 186 467 q 67 704 67 569 l 67 704 q 126 866 67 800 q 272 959 186 932 q 458 986 357 986 l 458 986 q 719 915 624 986 q 814 742 814 843 l 814 742 q 657 532 814 599 l 657 532 l 657 526 q 790 425 744 481 q 835 276 835 369 l 835 276 q 711 63 835 140 q 419 -14 588 -14 l 419 -14 q 283 1 347 -14 q 165 44 219 15 q 78 126 110 74 q 46 247 46 178 l 46 247 q 89 383 46 326 q 186 461 132 439 z m 365 365 l 365 365 q 318 261 318 318 l 318 261 q 349 197 318 221 q 436 174 379 174 l 436 174 q 520 189 486 174 q 554 233 554 204 l 554 233 q 549 255 554 244 q 532 276 543 265 q 509 294 521 286 q 477 313 497 303 q 442 329 457 322 q 403 347 428 336 q 365 365 379 358 z m 472 614 l 472 614 q 543 725 543 667 l 543 725 q 515 780 543 761 q 443 799 488 799 l 443 799 q 375 781 403 799 q 347 733 347 764 q 371 676 347 703 q 472 614 394 650 z "},"9":{"ha":881,"x_min":65,"x_max":815,"o":"m 502 749 q 440 785 483 785 q 378 749 397 785 q 360 664 360 714 q 378 578 360 614 q 440 543 397 543 q 502 578 483 543 q 521 664 521 614 q 502 749 521 714 z m 521 368 l 521 368 l 517 372 q 382 342 453 342 l 382 342 q 154 422 243 342 q 65 642 65 503 l 65 642 q 168 890 65 793 q 440 986 271 986 l 440 986 q 719 868 624 986 q 815 563 815 750 l 815 563 q 781 341 815 444 q 683 158 747 238 q 517 32 618 78 q 289 -14 415 -14 l 289 -14 q 97 14 183 -14 l 97 14 l 140 211 q 283 193 207 193 l 283 193 q 521 368 476 193 z "}," ":{"ha":326,"x_min":null,"x_max":null,"o":""},"!":{"ha":469,"x_min":90,"x_max":379,"o":"m 322 375 l 322 375 l 147 375 q 90 721 90 603 l 90 721 l 90 1000 l 379 1000 l 379 721 q 322 375 379 603 z m 126 23 q 96 132 96 53 q 126 241 96 211 q 235 271 156 271 q 344 241 314 271 q 374 132 374 211 q 344 23 374 53 q 235 -7 314 -7 q 126 23 156 -7 z "},"\"":{"ha":686,"x_min":69,"x_max":617,"o":"m 69 1056 l 285 1056 l 264 557 l 90 557 l 69 1056 z m 401 1056 l 617 1056 l 596 557 l 422 557 l 401 1056 z "},"#":{"ha":854,"x_min":35,"x_max":819,"o":"m 274 583 l 108 583 l 108 707 l 303 707 l 365 972 l 482 972 l 419 707 l 543 707 l 606 972 l 722 972 l 660 707 l 819 707 l 819 583 l 631 583 l 586 397 l 746 397 l 746 274 l 557 274 l 492 0 l 375 0 l 440 274 l 317 274 l 251 0 l 135 0 l 200 274 l 35 274 l 35 397 l 229 397 l 274 583 z m 514 583 l 390 583 l 346 397 l 469 397 l 514 583 z "},"$":{"ha":881,"x_min":82,"x_max":799,"o":"m 531 -117 l 364 -117 l 364 22 q 82 107 199 31 l 82 107 l 167 296 q 393 243 269 243 l 393 243 q 513 299 513 243 l 513 299 q 477 343 513 326 q 371 380 442 360 q 258 419 300 400 l 258 419 q 94 661 94 494 l 94 661 q 169 854 94 783 q 364 944 243 925 l 364 944 l 364 1083 l 531 1083 l 531 947 q 767 872 651 933 l 767 872 l 685 688 q 460 736 590 736 l 460 736 q 372 694 372 736 l 372 694 q 382 667 372 679 q 414 646 392 656 q 453 630 436 636 q 503 614 469 624 q 550 600 536 604 l 550 600 q 640 565 601 583 q 717 515 678 546 q 778 438 757 485 q 799 331 799 392 l 799 331 q 724 133 799 207 q 531 33 650 58 l 531 33 l 531 -117 z "},"%":{"ha":1264,"x_min":42,"x_max":1222,"o":"m 331 588 q 342 701 342 621 q 331 815 342 782 q 294 847 319 847 q 258 815 269 847 q 247 701 247 782 q 258 588 247 621 q 294 556 269 556 q 331 588 319 556 z m 479 910 q 547 701 547 835 q 479 492 547 568 q 294 417 411 417 q 110 492 178 417 q 42 701 42 568 q 110 910 42 835 q 294 986 178 986 q 479 910 411 986 z m 408 -43 l 279 35 l 856 1014 l 985 936 l 408 -43 z m 1006 158 q 1017 271 1017 190 q 1006 384 1017 351 q 969 417 994 417 q 933 384 944 417 q 922 271 922 351 q 933 158 922 190 q 969 125 944 125 q 1006 158 994 125 z m 1154 480 q 1222 271 1222 404 q 1154 62 1222 138 q 969 -14 1086 -14 q 785 62 853 -14 q 717 271 717 138 q 785 480 717 404 q 969 556 853 556 q 1154 480 1086 556 z "},"&":{"ha":1054,"x_min":42,"x_max":1040,"o":"m 813 564 l 813 564 l 1022 515 q 850 213 978 342 l 850 213 l 1040 0 l 1040 -14 l 701 -14 l 642 53 q 378 -14 526 -14 l 378 -14 q 137 54 232 -14 q 42 256 42 122 l 42 256 q 94 410 42 340 q 226 517 146 479 l 226 517 q 149 724 149 617 l 149 724 q 252 938 149 861 q 497 1014 356 1014 l 497 1014 q 715 950 622 1014 q 808 769 808 886 l 808 769 q 744 606 808 682 q 588 504 681 531 l 588 504 l 735 339 q 813 564 788 424 z m 488 617 l 488 617 q 564 753 564 678 l 564 753 q 547 808 564 786 q 494 831 529 831 l 494 831 q 439 808 457 831 q 421 751 421 785 l 421 751 q 437 681 421 708 q 488 617 453 653 z m 529 178 l 529 178 l 349 379 q 313 288 313 339 l 313 288 q 357 199 313 232 q 463 165 401 165 l 463 165 q 529 178 497 165 z "},"'":{"ha":354,"x_min":69,"x_max":285,"o":"m 69 1056 l 285 1056 l 264 557 l 90 557 l 69 1056 z "},"(":{"ha":492,"x_min":56,"x_max":492,"o":"m 418 1056 l 418 1056 l 492 939 q 297 707 361 853 q 232 389 232 561 q 297 71 232 217 q 492 -161 361 -75 l 492 -161 l 418 -278 q 56 389 56 -114 q 418 1056 56 892 z "},")":{"ha":492,"x_min":0,"x_max":436,"o":"m 0 939 l 0 939 l 74 1056 q 436 389 436 892 q 74 -278 436 -114 l 74 -278 l 0 -161 q 195 71 131 -75 q 260 389 260 217 q 195 707 260 561 q 0 939 131 853 z "},"*":{"ha":731,"x_min":42,"x_max":689,"o":"m 301 1069 l 429 1069 l 408 815 l 322 815 l 301 1069 z m 322 650 l 408 650 l 429 396 l 301 396 l 322 650 z m 42 846 l 106 957 l 315 811 l 272 736 l 42 846 z m 415 654 l 458 729 l 689 619 l 625 508 l 415 654 z m 625 957 l 689 846 l 458 736 l 415 811 l 625 957 z m 272 729 l 315 654 l 106 508 l 42 619 l 272 729 z "},"+":{"ha":860,"x_min":56,"x_max":804,"o":"m 804 474 l 804 307 l 515 307 l 515 0 l 344 0 l 344 307 l 56 307 l 56 474 l 344 474 l 344 775 l 515 775 l 515 474 l 804 474 z "},",":{"ha":392,"x_min":0,"x_max":319,"o":"m 125 -253 l 125 -253 l 0 -167 q 97 264 124 -7 l 97 264 q 319 264 215 276 l 319 264 q 285 -37 332 88 q 125 -253 238 -162 z "},"-":{"ha":467,"x_min":42,"x_max":425,"o":"m 425 479 l 425 307 l 42 307 l 42 479 l 425 479 z "},".":{"ha":417,"x_min":69,"x_max":347,"o":"m 99 23 q 69 132 69 53 q 99 241 69 211 q 208 271 129 271 q 317 241 288 271 q 347 132 347 211 q 317 23 347 53 q 208 -7 288 -7 q 99 23 129 -7 z "},"/":{"ha":599,"x_min":14,"x_max":585,"o":"m 410 1042 l 582 1042 l 585 1036 l 189 -76 l 17 -76 l 14 -71 l 410 1042 z "},":":{"ha":417,"x_min":69,"x_max":347,"o":"m 99 23 q 69 132 69 53 q 99 241 69 211 q 208 271 129 271 q 317 241 288 271 q 347 132 347 211 q 317 23 347 53 q 208 -7 288 -7 q 99 23 129 -7 z m 99 488 q 69 597 69 518 q 99 706 69 676 q 208 736 129 736 q 317 706 288 736 q 347 597 347 676 q 317 488 347 518 q 208 458 288 458 q 99 488 129 458 z "},";":{"ha":417,"x_min":8,"x_max":347,"o":"m 99 488 q 69 597 69 518 q 99 706 69 676 q 208 736 129 736 q 317 706 288 736 q 347 597 347 676 q 317 488 347 518 q 208 458 288 458 q 99 488 129 458 z m 133 -253 l 133 -253 l 8 -167 q 106 264 132 -7 l 106 264 q 328 264 224 276 l 328 264 q 293 -37 340 88 q 133 -253 246 -162 z "},"<":{"ha":860,"x_min":63,"x_max":811,"o":"m 811 151 l 744 0 l 63 304 l 63 471 l 744 775 l 811 624 l 288 390 l 288 385 l 811 151 z "},"=":{"ha":860,"x_min":56,"x_max":804,"o":"m 804 335 l 804 168 l 56 168 l 56 335 l 804 335 z m 804 613 l 804 446 l 56 446 l 56 613 l 804 613 z "},">":{"ha":860,"x_min":49,"x_max":797,"o":"m 49 624 l 115 775 l 797 471 l 797 304 l 115 0 l 49 151 l 572 385 l 572 390 l 49 624 z "},"?":{"ha":693,"x_min":28,"x_max":679,"o":"m 133 732 l 133 732 l 28 906 q 375 1014 179 1014 l 375 1014 q 592 951 504 1014 q 679 768 679 888 l 679 768 q 631 610 679 667 q 500 518 582 554 l 500 518 q 468 505 490 514 q 437 492 446 496 q 411 478 428 488 q 388 461 394 469 q 372 440 381 453 q 359 411 363 428 q 356 375 356 394 l 356 375 l 172 375 q 164 440 164 408 l 164 440 q 198 549 164 504 q 273 615 232 594 q 348 666 314 636 q 382 731 382 696 l 382 731 q 303 792 382 792 l 303 792 q 133 732 217 792 z m 166 23 q 136 132 136 53 q 166 241 136 211 q 275 271 196 271 q 384 241 354 271 q 414 132 414 211 q 384 23 414 53 q 275 -7 354 -7 q 166 23 196 -7 z "},"@":{"ha":1249,"x_min":42,"x_max":1207,"o":"m 663 460 l 663 460 l 671 504 q 647 508 661 508 l 647 508 q 565 449 593 508 q 538 319 538 389 l 538 319 q 567 267 538 267 l 567 267 q 663 460 626 267 z m 667 208 l 667 208 l 661 208 q 585 119 633 149 q 481 89 536 89 l 481 89 q 358 148 400 89 q 315 293 315 207 l 315 293 q 399 540 315 432 q 617 647 482 647 l 617 647 q 722 621 671 647 l 722 621 q 818 647 744 647 l 818 647 l 914 647 l 865 388 q 856 301 856 339 l 856 301 q 919 225 856 225 l 919 225 q 1033 296 996 225 q 1069 463 1069 367 l 1069 463 q 959 712 1069 625 q 669 799 849 799 l 669 799 q 319 672 454 799 q 183 315 183 544 l 183 315 q 289 39 183 142 q 571 -64 394 -64 l 571 -64 q 788 -15 686 -64 l 788 -15 l 825 -107 q 553 -171 701 -171 l 553 -171 q 184 -36 326 -171 q 42 322 42 99 l 42 322 q 129 624 42 492 q 363 827 217 757 q 683 897 508 897 l 683 897 q 866 870 775 897 q 1034 792 957 843 q 1159 659 1111 742 q 1207 476 1207 576 l 1207 476 q 1094 197 1207 304 q 806 89 981 89 l 806 89 q 667 208 667 89 z "},"A":{"ha":932,"x_min":0,"x_max":932,"o":"m 932 0 l 633 0 l 575 210 l 343 210 l 285 0 l 0 0 l 0 14 l 275 1000 l 657 1000 l 932 14 l 932 0 z m 408 518 l 385 419 l 533 419 l 510 518 q 484 647 496 578 q 467 756 472 717 l 467 756 l 463 796 l 457 796 q 408 518 440 653 l 408 518 z "},"B":{"ha":900,"x_min":76,"x_max":858,"o":"m 397 796 l 364 796 l 364 621 l 397 621 q 462 625 440 621 q 499 649 483 629 q 515 708 515 668 q 499 768 515 749 q 462 792 483 788 q 397 796 440 796 l 397 796 z m 390 426 l 390 426 l 364 426 l 364 204 l 390 204 q 454 206 432 204 q 502 213 476 207 q 540 230 528 218 q 560 263 551 242 q 568 315 568 283 l 568 315 q 529 408 568 389 q 390 426 490 426 z m 388 0 l 76 0 l 76 1000 l 361 1000 q 449 999 413 1000 q 535 992 486 997 q 619 978 585 988 q 690 950 653 968 q 748 907 726 932 q 784 844 769 882 q 799 757 799 806 l 799 757 q 615 543 799 582 l 615 543 l 615 538 q 793 467 728 526 q 858 310 858 407 l 858 310 q 815 153 858 218 q 699 58 772 89 q 550 13 625 26 q 388 0 475 0 l 388 0 z "},"C":{"ha":843,"x_min":42,"x_max":843,"o":"m 761 279 l 761 279 l 843 82 q 517 -14 706 -14 l 517 -14 q 162 122 282 -14 q 42 488 42 258 l 42 488 q 174 865 42 715 q 536 1014 307 1014 l 536 1014 q 829 936 700 1014 l 829 936 l 744 746 q 575 785 665 785 l 575 785 q 392 715 446 785 q 339 504 339 646 l 339 504 q 388 292 339 361 q 561 222 438 222 l 561 222 q 761 279 671 222 z "},"D":{"ha":992,"x_min":76,"x_max":950,"o":"m 407 775 l 407 775 l 364 775 l 364 225 l 407 225 q 600 292 547 225 q 653 500 653 360 q 600 708 653 640 q 407 775 547 775 z m 388 0 l 76 0 l 76 1000 l 388 1000 q 814 878 678 1000 q 950 500 950 757 q 814 122 950 243 q 388 0 678 0 l 388 0 z "},"E":{"ha":764,"x_min":76,"x_max":736,"o":"m 736 0 l 76 0 l 76 1000 l 708 1000 l 708 771 l 364 771 l 364 621 l 640 621 l 640 404 l 364 404 l 364 229 l 736 229 l 736 0 z "},"F":{"ha":715,"x_min":76,"x_max":708,"o":"m 76 0 l 76 1000 l 708 1000 l 708 771 l 364 771 l 364 593 l 640 593 l 640 371 l 364 371 l 364 0 l 76 0 z "},"G":{"ha":1007,"x_min":42,"x_max":938,"o":"m 568 335 l 568 553 l 938 553 l 938 75 q 544 -14 751 -14 l 544 -14 q 171 119 300 -14 q 42 486 42 251 l 42 486 q 192 869 42 725 q 588 1014 343 1014 l 588 1014 q 910 936 760 1014 l 910 936 l 825 746 q 610 785 706 785 l 610 785 q 405 714 471 785 q 339 496 339 643 l 339 496 q 348 376 339 425 q 381 287 357 328 q 451 226 404 246 q 568 206 497 206 l 568 206 q 678 221 629 206 l 678 221 l 678 335 l 568 335 z "},"H":{"ha":1021,"x_min":76,"x_max":944,"o":"m 657 400 l 364 400 l 364 0 l 76 0 l 76 1000 l 364 1000 l 364 646 l 657 646 l 657 1000 l 944 1000 l 944 0 l 657 0 l 657 400 z "},"I":{"ha":440,"x_min":76,"x_max":364,"o":"m 76 0 l 76 1000 l 364 1000 l 364 0 l 76 0 z "},"J":{"ha":486,"x_min":-76,"x_max":410,"o":"m 122 236 l 122 236 l 122 1000 l 410 1000 l 410 142 q 297 -119 410 -28 q -24 -224 183 -210 l -24 -224 l -76 -14 q 81 72 40 15 q 122 236 122 128 z "},"K":{"ha":954,"x_min":76,"x_max":954,"o":"m 954 14 l 954 0 l 626 0 l 371 504 l 635 1000 l 915 1000 l 915 986 l 672 544 l 954 14 z m 76 0 l 76 1000 l 364 1000 l 364 0 l 76 0 z "},"L":{"ha":694,"x_min":76,"x_max":694,"o":"m 694 246 l 694 0 l 76 0 l 76 1000 l 364 1000 l 364 246 l 694 246 z "},"M":{"ha":1294,"x_min":69,"x_max":1225,"o":"m 688 588 l 688 588 l 753 1000 l 1178 1000 l 1225 0 l 951 0 l 929 489 l 922 808 l 917 808 q 871 489 882 544 l 871 489 l 782 14 l 490 14 l 408 489 l 365 808 l 360 808 q 351 489 354 544 l 351 489 l 329 0 l 69 0 l 117 1000 l 558 1000 l 615 588 l 646 206 l 651 206 q 688 588 679 533 z "},"N":{"ha":1035,"x_min":76,"x_max":958,"o":"m 407 450 l 322 808 l 317 808 q 336 419 336 485 l 336 419 l 336 0 l 76 0 l 76 1000 l 490 1000 l 628 550 q 656 433 636 522 q 692 267 676 343 l 692 267 l 707 192 l 713 192 q 699 581 699 515 l 699 581 l 699 1000 l 958 1000 l 958 0 l 544 0 l 407 450 z "},"O":{"ha":1069,"x_min":42,"x_max":1028,"o":"m 175 119 q 42 500 42 253 q 175 881 42 747 q 535 1014 308 1014 q 894 881 761 1014 q 1028 500 1028 747 q 894 119 1028 253 q 535 -14 761 -14 q 175 119 308 -14 z m 683 291 q 731 500 731 374 q 683 709 731 626 q 535 792 635 792 q 387 709 435 792 q 339 500 339 626 q 387 291 339 374 q 535 208 435 208 q 683 291 635 208 z "},"P":{"ha":874,"x_min":76,"x_max":860,"o":"m 551 608 q 563 675 563 633 q 551 742 563 717 q 514 779 540 768 q 463 793 488 790 q 392 796 439 796 l 392 796 l 364 796 l 364 554 l 392 554 q 463 557 439 554 q 514 571 488 560 q 551 608 540 582 z m 401 350 l 401 350 l 364 350 l 364 0 l 76 0 l 76 1000 l 401 1000 q 751 923 642 1000 q 860 675 860 846 l 860 675 q 750 428 860 507 q 401 350 640 350 z "},"Q":{"ha":1069,"x_min":42,"x_max":1028,"o":"m 42 500 l 42 500 q 175 881 42 747 q 535 1014 308 1014 q 894 881 761 1014 q 1028 500 1028 747 l 1028 500 q 944 181 1028 306 q 710 10 860 56 l 710 10 q 893 -97 733 -69 l 893 -97 l 838 -267 q 558 -187 658 -258 q 422 -4 457 -115 l 422 -4 q 142 156 243 26 q 42 500 42 285 z m 683 291 q 731 500 731 374 q 683 709 731 626 q 535 792 635 792 q 387 709 435 792 q 339 500 339 626 q 387 291 339 374 q 535 208 435 208 q 683 291 635 208 z "},"R":{"ha":951,"x_min":76,"x_max":951,"o":"m 553 639 q 563 689 563 660 q 553 739 563 718 q 530 771 543 760 q 493 788 517 782 q 451 794 469 793 q 406 796 433 796 l 406 796 l 364 796 l 364 582 l 406 582 q 451 583 433 582 q 493 590 469 585 q 530 607 517 596 q 553 639 543 618 z m 611 0 l 392 378 l 364 378 l 364 0 l 76 0 l 76 1000 l 388 1000 q 534 994 471 1000 q 661 967 597 988 q 767 914 725 947 q 834 824 808 881 q 860 689 860 767 l 860 689 q 813 521 860 592 q 676 417 767 450 l 676 417 q 804 238 743 331 l 804 238 l 951 14 l 951 0 l 611 0 z "},"S":{"ha":853,"x_min":35,"x_max":811,"o":"m 35 79 l 35 79 l 124 278 q 233 237 161 254 q 372 219 306 219 l 372 219 q 518 292 518 219 l 518 292 q 510 323 518 310 q 482 347 503 336 q 442 364 461 357 q 379 384 422 371 q 304 410 336 397 l 304 410 q 213 449 249 431 q 138 501 178 467 q 78 586 97 535 q 58 708 58 638 l 58 708 q 92 851 58 790 q 184 947 126 913 q 310 997 242 981 q 456 1014 378 1014 l 456 1014 q 775 936 624 1014 l 775 936 l 690 746 q 472 788 576 788 l 472 788 q 342 728 342 788 l 342 728 q 351 694 342 708 q 387 666 361 679 q 434 644 413 653 q 501 622 456 636 q 576 596 547 607 l 576 596 q 749 493 686 556 q 811 325 811 431 l 811 325 q 687 72 811 157 q 381 -14 563 -14 l 381 -14 q 35 79 174 -14 z "},"T":{"ha":746,"x_min":0,"x_max":746,"o":"m 746 1000 l 746 754 l 517 754 l 517 0 l 229 0 l 229 754 l 0 754 l 0 1000 l 746 1000 z "},"U":{"ha":993,"x_min":69,"x_max":924,"o":"m 69 433 l 69 1000 l 357 1000 l 357 433 q 386 262 357 318 q 500 206 415 206 l 500 206 q 611 264 579 206 q 643 433 643 322 l 643 433 l 643 1000 l 924 1000 l 924 433 q 812 103 924 221 q 496 -14 700 -14 l 496 -14 q 178 102 286 -14 q 69 433 69 218 l 69 433 z "},"V":{"ha":917,"x_min":0,"x_max":917,"o":"m 0 986 l 0 1000 l 307 1000 l 386 646 q 423 451 406 561 q 449 272 440 340 l 449 272 l 457 204 l 463 204 q 536 649 492 456 l 536 649 l 617 1000 l 917 1000 l 917 986 l 628 0 l 275 0 l 0 986 z "},"W":{"ha":1303,"x_min":0,"x_max":1303,"o":"m 0 986 l 0 1000 l 304 1000 l 378 521 l 408 218 l 414 218 q 440 521 428 428 l 440 521 l 504 986 l 813 986 l 874 521 l 903 218 l 908 218 q 942 521 928 428 l 942 521 l 1011 1000 l 1303 1000 l 1303 986 l 1075 0 l 733 0 l 676 397 q 665 529 671 436 q 657 694 660 622 l 657 694 l 654 768 l 649 768 q 619 397 633 486 l 619 397 l 556 0 l 214 0 l 0 986 z "},"X":{"ha":961,"x_min":0,"x_max":961,"o":"m 0 14 l 315 513 l 21 986 l 21 1000 l 356 1000 l 401 903 l 488 699 l 493 699 q 581 903 536 811 l 581 903 l 628 1000 l 940 1000 l 940 986 l 644 522 l 961 14 l 961 0 l 626 0 l 579 97 l 474 333 l 468 333 q 363 97 410 189 l 363 97 l 313 0 l 0 0 l 0 14 z "},"Y":{"ha":881,"x_min":-14,"x_max":894,"o":"m 894 986 l 578 383 l 578 0 l 290 0 l 290 383 l -14 986 l -14 1000 l 311 1000 l 365 844 l 442 600 l 447 600 q 528 844 492 749 l 528 844 l 586 1000 l 894 1000 l 894 986 z "},"Z":{"ha":839,"x_min":14,"x_max":825,"o":"m 46 768 l 46 1000 l 803 1000 l 803 847 l 596 529 q 501 392 554 465 q 415 278 447 319 l 415 278 l 383 238 l 383 232 l 825 232 l 825 0 l 14 0 l 14 153 l 219 469 q 315 607 261 533 q 400 722 368 681 l 400 722 l 433 763 l 433 768 l 46 768 z "},"[":{"ha":476,"x_min":76,"x_max":421,"o":"m 421 1042 l 421 897 l 250 897 l 250 -119 l 421 -119 l 421 -264 l 76 -264 l 76 1042 l 421 1042 z "},"\\":{"ha":599,"x_min":14,"x_max":585,"o":"m 410 -76 l 14 1036 l 17 1042 l 189 1042 l 585 -71 l 582 -76 l 410 -76 z "},"]":{"ha":476,"x_min":56,"x_max":400,"o":"m 226 -119 l 226 897 l 56 897 l 56 1042 l 400 1042 l 400 -264 l 56 -264 l 56 -119 l 226 -119 z "},"^":{"ha":860,"x_min":56,"x_max":803,"o":"m 204 318 l 56 383 l 313 972 l 546 972 l 803 383 l 654 318 l 432 831 l 426 831 l 204 318 z "},"_":{"ha":694,"x_min":0,"x_max":694,"o":"m 0 -96 l 694 -96 l 694 -174 l 0 -174 l 0 -96 z "},"`":{"ha":556,"x_min":129,"x_max":425,"o":"m 129 1038 l 238 1131 l 425 883 l 336 807 l 129 1038 z "},"a":{"ha":744,"x_min":28,"x_max":689,"o":"m 124 519 l 74 682 q 394 750 238 750 l 394 750 q 613 692 538 750 q 689 497 689 633 l 689 497 l 689 13 l 540 -11 q 449 1 486 -21 q 413 76 413 22 l 413 76 l 407 76 q 224 -14 328 -14 l 224 -14 q 79 47 131 -14 q 28 207 28 107 l 28 207 q 51 321 28 272 q 108 396 74 369 q 195 439 142 422 q 296 461 249 456 q 407 468 343 467 l 407 468 q 382 541 407 524 q 314 558 357 558 l 314 558 q 124 519 229 558 l 124 519 z m 414 228 l 414 228 l 414 313 l 389 313 q 320 297 340 313 q 300 246 300 281 l 300 246 q 342 185 300 185 l 342 185 q 414 228 385 185 z "},"b":{"ha":835,"x_min":63,"x_max":807,"o":"m 344 504 l 344 504 l 344 181 q 382 178 364 178 l 382 178 q 514 356 514 178 l 514 356 q 421 535 514 535 l 421 535 q 344 504 381 535 z m 154 -14 l 63 -14 l 63 1029 l 211 1053 q 344 944 344 1074 l 344 944 l 344 660 l 350 660 q 551 750 436 750 l 551 750 q 740 647 674 750 q 807 403 807 544 l 807 403 q 708 99 807 211 q 439 -14 610 -14 l 439 -14 q 285 25 349 -14 l 285 25 q 154 -14 253 -14 l 154 -14 z "},"c":{"ha":635,"x_min":28,"x_max":635,"o":"m 574 224 l 574 224 l 635 47 q 378 -14 519 -14 l 378 -14 q 122 86 217 -14 q 28 353 28 186 l 28 353 q 126 638 28 525 q 392 750 224 750 l 392 750 q 614 700 511 750 l 614 700 l 546 532 q 450 549 496 549 l 450 549 q 321 372 321 549 l 321 372 q 350 241 321 288 q 454 194 379 194 l 454 194 q 574 224 521 194 z "},"d":{"ha":835,"x_min":28,"x_max":772,"o":"m 490 747 l 490 747 l 490 1029 l 639 1053 q 772 944 772 1074 l 772 944 l 772 13 l 624 -11 q 528 5 560 -21 q 496 76 496 31 l 496 76 l 490 76 q 296 -14 411 -14 l 296 -14 q 143 38 206 -14 q 54 164 81 89 q 28 328 28 239 l 28 328 q 140 635 28 519 q 446 750 251 750 l 446 750 q 490 747 468 750 z m 490 232 l 490 232 l 490 560 q 463 561 479 561 l 463 561 q 321 374 321 561 l 321 374 q 323 315 321 338 q 333 262 325 292 q 363 217 342 232 q 415 201 383 201 l 415 201 q 490 232 460 201 z "},"e":{"ha":760,"x_min":28,"x_max":725,"o":"m 715 319 l 715 319 l 310 319 q 490 188 326 188 l 490 188 q 647 217 564 188 l 647 217 l 708 47 q 419 -14 578 -14 l 419 -14 q 131 85 235 -14 q 28 368 28 183 l 28 368 q 126 648 28 546 q 400 750 225 750 l 400 750 q 636 663 547 750 q 725 429 725 576 l 725 429 q 715 319 725 375 z m 308 449 l 308 449 l 456 468 q 438 552 456 521 q 390 583 421 583 l 390 583 q 333 544 354 583 q 308 449 311 506 z "},"f":{"ha":563,"x_min":7,"x_max":615,"o":"m 556 736 l 556 543 l 382 543 l 382 0 l 100 0 l 100 543 l 7 543 l 7 699 l 100 736 l 100 790 q 185 992 100 929 q 414 1056 271 1056 l 414 1056 q 615 1019 525 1056 l 615 1019 l 571 853 q 493 864 529 864 l 493 864 q 405 835 428 864 q 382 742 382 807 l 382 742 l 382 736 l 556 736 z "},"g":{"ha":806,"x_min":42,"x_max":792,"o":"m 792 722 l 792 582 l 713 589 l 713 583 q 740 489 740 543 l 740 489 q 648 318 740 386 q 397 250 556 250 l 397 250 q 282 263 331 250 l 282 263 q 249 219 249 247 l 249 219 q 257 194 249 204 q 283 181 265 185 q 313 177 300 178 q 346 176 325 176 l 346 176 l 539 176 q 714 124 649 176 q 779 -26 779 72 l 779 -26 q 740 -161 779 -106 q 633 -243 700 -217 q 499 -281 567 -269 q 356 -292 432 -292 l 356 -292 q 42 -247 167 -292 l 42 -247 l 103 -85 q 378 -139 199 -139 l 378 -139 q 551 -83 551 -139 l 551 -83 q 506 -57 551 -57 l 506 -57 l 292 -57 q 213 -51 247 -57 q 138 -29 178 -46 q 76 26 99 -12 q 54 124 54 65 l 54 124 q 157 306 54 244 l 157 306 l 157 311 q 54 493 54 374 l 54 493 q 153 685 54 621 q 397 750 251 750 l 397 750 q 585 722 506 750 l 585 722 l 792 722 z m 450 441 q 468 500 468 467 q 450 559 468 533 q 397 585 432 585 q 344 559 363 585 q 326 500 326 533 q 344 441 326 467 q 397 415 363 415 q 450 441 432 415 z "},"h":{"ha":799,"x_min":63,"x_max":743,"o":"m 344 0 l 63 0 l 63 1029 l 211 1053 q 344 944 344 1074 l 344 944 l 344 660 l 350 660 q 546 750 443 750 l 546 750 q 646 727 606 750 q 706 661 686 704 q 735 571 726 618 q 743 463 743 524 l 743 463 l 743 0 l 461 0 l 461 433 q 459 485 461 467 q 444 519 457 503 q 408 535 432 535 l 408 535 q 344 504 375 535 l 344 504 l 344 0 z "},"i":{"ha":408,"x_min":63,"x_max":346,"o":"m 346 0 l 63 0 l 63 736 l 346 736 l 346 0 z m 99 857 q 69 963 69 886 q 99 1068 69 1039 q 204 1097 128 1097 q 310 1068 281 1097 q 339 963 339 1039 q 310 857 339 886 q 204 828 281 828 q 99 857 128 828 z "},"j":{"ha":408,"x_min":-104,"x_max":346,"o":"m 63 117 l 63 117 l 63 736 l 346 736 l 346 35 q 244 -193 346 -104 q -31 -292 142 -282 l -31 -292 l -104 -90 q 22 -20 -18 -62 q 63 117 63 22 z m 99 857 q 69 963 69 886 q 99 1068 69 1039 q 204 1097 128 1097 q 310 1068 281 1097 q 339 963 339 1039 q 310 857 339 886 q 204 828 281 828 q 99 857 128 828 z "},"k":{"ha":828,"x_min":63,"x_max":821,"o":"m 821 14 l 821 0 l 513 0 l 351 376 l 540 736 l 797 736 l 797 722 l 638 418 l 821 14 z m 344 0 l 63 0 l 63 1029 l 211 1053 q 344 944 344 1074 l 344 944 l 344 0 z "},"l":{"ha":478,"x_min":63,"x_max":478,"o":"m 63 275 l 63 275 l 63 1029 l 211 1053 q 344 944 344 1074 l 344 944 l 344 313 q 365 238 344 258 q 438 217 386 217 l 438 217 q 478 219 458 217 l 478 219 l 478 6 q 339 -14 419 -14 l 339 -14 q 278 -12 303 -14 q 208 6 253 -10 q 135 49 164 21 q 85 135 107 76 q 63 275 63 193 z "},"m":{"ha":1176,"x_min":63,"x_max":1121,"o":"m 338 0 l 63 0 l 63 724 l 211 747 q 332 660 332 767 l 332 660 l 338 660 q 535 750 431 750 l 535 750 q 696 660 650 750 l 696 660 l 701 660 q 917 750 792 750 l 917 750 q 1121 463 1121 750 l 1121 463 l 1121 0 l 846 0 l 846 433 q 844 485 846 467 q 829 519 842 503 q 793 535 817 535 l 793 535 q 729 504 760 535 l 729 504 l 729 0 l 454 0 l 454 433 q 452 485 454 467 q 438 519 450 503 q 401 535 425 535 l 401 535 q 338 504 368 535 l 338 504 l 338 0 z "},"n":{"ha":799,"x_min":63,"x_max":743,"o":"m 344 0 l 63 0 l 63 724 l 211 747 q 306 733 274 757 q 339 660 339 708 l 339 660 l 344 660 q 546 750 438 750 l 546 750 q 646 727 606 750 q 706 661 686 704 q 735 571 726 618 q 743 463 743 524 l 743 463 l 743 0 l 461 0 l 461 433 q 459 485 461 467 q 444 519 457 503 q 408 535 432 535 l 408 535 q 344 504 375 535 l 344 504 l 344 0 z "},"o":{"ha":817,"x_min":28,"x_max":789,"o":"m 408 181 q 496 368 496 181 q 408 556 496 556 q 321 368 321 556 q 408 181 321 181 z m 688 649 q 789 368 789 549 q 688 87 789 188 q 408 -14 588 -14 q 128 87 229 -14 q 28 368 28 188 q 128 649 28 549 q 408 750 229 750 q 688 649 588 750 z "},"p":{"ha":835,"x_min":63,"x_max":807,"o":"m 344 504 l 344 504 l 344 181 q 379 178 369 178 l 379 178 q 485 226 457 178 q 514 356 514 274 l 514 356 q 422 535 514 535 l 422 535 q 344 504 382 535 z m 344 -278 l 63 -278 l 63 724 l 211 747 q 306 734 272 757 q 339 660 339 711 l 339 660 l 344 660 q 549 750 442 750 l 549 750 q 698 695 638 750 q 783 565 758 640 q 807 403 807 489 l 807 403 q 709 99 807 213 q 435 -14 611 -14 l 435 -14 q 344 -7 389 -14 l 344 -7 l 344 -278 z "},"q":{"ha":835,"x_min":28,"x_max":772,"o":"m 490 232 l 490 232 l 490 560 q 464 561 478 561 l 464 561 q 321 374 321 561 l 321 374 q 340 247 321 292 q 415 201 358 201 l 415 201 q 490 232 457 201 z m 772 750 l 772 -278 l 490 -278 l 490 76 l 485 76 q 300 -14 414 -14 l 300 -14 q 97 84 167 -14 q 28 328 28 182 l 28 328 q 131 626 28 503 q 407 750 235 750 l 407 750 q 550 711 490 750 l 550 711 q 681 750 583 750 l 681 750 l 772 750 z "},"r":{"ha":608,"x_min":63,"x_max":615,"o":"m 344 0 l 63 0 l 63 724 l 211 747 q 306 733 274 757 q 339 660 339 708 l 339 660 l 344 660 q 615 736 482 788 l 615 736 l 532 485 q 458 511 499 507 q 389 508 417 515 q 344 490 361 501 l 344 490 l 344 0 z "},"s":{"ha":635,"x_min":28,"x_max":607,"o":"m 28 47 l 28 47 l 89 214 q 249 181 164 181 l 249 181 q 343 222 343 181 l 343 222 q 335 242 343 233 q 311 258 328 251 q 278 269 294 264 q 237 283 263 275 q 192 297 211 290 l 192 297 q 83 369 124 324 q 43 500 43 415 l 43 500 q 133 690 43 631 q 357 750 222 750 l 357 750 q 589 700 485 750 l 589 700 l 522 535 q 375 563 456 563 l 375 563 q 288 531 288 563 l 288 531 q 296 510 288 519 q 321 494 304 501 q 354 481 338 486 q 398 467 371 475 q 443 453 425 460 l 443 453 q 563 379 519 426 q 607 247 607 332 l 607 247 q 509 51 607 115 q 268 -14 411 -14 l 268 -14 q 28 47 119 -14 z "},"t":{"ha":569,"x_min":7,"x_max":556,"o":"m 100 289 l 100 289 l 100 543 l 7 543 l 7 699 l 100 736 l 110 914 l 365 965 l 382 951 l 382 736 l 556 736 l 556 543 l 382 543 l 382 344 q 406 244 382 275 q 493 214 431 214 l 493 214 q 556 219 519 214 l 556 219 l 556 6 q 401 -14 481 -14 l 401 -14 q 173 56 246 -14 q 100 289 100 126 z "},"u":{"ha":799,"x_min":56,"x_max":736,"o":"m 454 736 l 736 736 l 736 13 l 588 -11 q 492 3 525 -21 q 460 76 460 28 l 460 76 l 454 76 q 253 -14 375 -14 l 253 -14 q 153 9 193 -14 q 92 75 113 32 q 64 165 72 118 q 56 274 56 213 l 56 274 l 56 736 l 338 736 l 338 303 q 340 251 338 269 q 354 217 342 233 q 390 201 367 201 l 390 201 q 454 232 424 201 l 454 232 l 454 736 z "},"v":{"ha":775,"x_min":0,"x_max":775,"o":"m 544 0 l 219 0 l 0 722 l 0 736 l 301 736 l 350 482 q 371 347 361 424 q 386 224 381 271 l 386 224 l 390 176 l 396 176 q 442 485 415 350 l 442 485 l 492 736 l 775 736 l 775 722 l 544 0 z "},"w":{"ha":1122,"x_min":0,"x_max":1122,"o":"m 396 483 l 396 483 l 442 722 l 694 722 l 740 483 q 760 354 751 426 q 772 239 769 282 l 772 239 l 776 196 l 782 196 q 810 483 790 354 l 810 483 l 849 736 l 1122 736 l 1122 722 l 940 0 l 635 0 l 593 218 q 574 340 583 271 q 561 453 565 410 l 561 453 l 558 496 l 553 496 q 518 218 540 336 l 518 218 l 476 0 l 171 0 l 0 722 l 0 736 l 288 736 l 326 483 q 342 354 335 426 q 351 239 349 282 l 351 239 l 354 196 l 360 196 q 396 483 371 354 z "},"x":{"ha":794,"x_min":0,"x_max":794,"o":"m 0 14 l 236 376 l 7 722 l 7 736 l 321 736 l 360 647 l 410 507 l 415 507 q 464 647 438 586 l 464 647 l 503 736 l 788 736 l 788 722 l 557 371 l 794 14 l 794 0 l 478 0 l 433 101 q 409 166 421 132 q 392 219 397 200 l 392 219 l 386 238 l 381 238 q 331 101 361 169 l 331 101 l 285 0 l 0 0 l 0 14 z "},"y":{"ha":775,"x_min":0,"x_max":775,"o":"m 275 40 l 275 40 l 0 722 l 0 736 l 301 736 l 356 536 q 381 424 368 488 q 400 322 394 361 l 400 322 l 407 282 l 413 282 q 453 539 431 428 l 453 539 l 492 736 l 775 736 l 775 722 l 571 118 q 135 -292 432 -292 l 135 -292 q 99 -290 111 -292 l 99 -290 l 43 -68 l 50 -56 q 107 -61 76 -61 l 107 -61 q 275 40 219 -61 z "},"z":{"ha":667,"x_min":14,"x_max":653,"o":"m 264 489 l 288 513 l 288 518 l 35 518 l 35 736 l 639 736 l 639 569 l 517 403 q 449 317 488 363 q 389 247 411 272 l 389 247 l 365 224 l 365 218 l 653 218 l 653 0 l 14 0 l 14 167 l 136 333 q 204 419 167 374 q 264 489 242 464 l 264 489 z "},"{":{"ha":533,"x_min":28,"x_max":485,"o":"m 161 392 l 161 392 l 161 386 q 256 346 218 371 q 312 285 293 321 q 338 213 331 250 q 346 126 346 175 l 346 126 l 346 -19 q 365 -100 346 -81 q 446 -119 385 -119 l 446 -119 l 485 -119 l 485 -264 l 418 -264 q 229 -201 286 -264 q 172 -19 172 -139 l 172 -19 l 172 100 q 142 267 172 214 q 28 321 111 321 l 28 321 l 28 457 q 142 510 111 457 q 172 678 172 564 l 172 678 l 172 797 q 229 979 172 917 q 418 1042 286 1042 l 418 1042 l 485 1042 l 485 897 l 446 897 q 365 878 385 897 q 346 797 346 858 l 346 797 l 346 651 q 338 565 346 603 q 312 492 331 528 q 256 432 293 457 q 161 392 218 407 z "},"|":{"ha":349,"x_min":90,"x_max":258,"o":"m 90 -319 l 90 1069 l 258 1069 l 258 -319 l 90 -319 z "},"}":{"ha":533,"x_min":49,"x_max":506,"o":"m 372 386 l 372 386 l 372 392 q 278 432 315 407 q 222 492 240 457 q 195 565 203 528 q 188 651 188 603 l 188 651 l 188 797 q 168 878 188 858 q 88 897 149 897 l 88 897 l 49 897 l 49 1042 l 115 1042 q 304 979 247 1042 q 361 797 361 917 l 361 797 l 361 678 q 392 510 361 564 q 506 457 422 457 l 506 457 l 506 321 q 392 267 422 321 q 361 100 361 214 l 361 100 l 361 -19 q 304 -201 361 -139 q 115 -264 247 -264 l 115 -264 l 49 -264 l 49 -119 l 88 -119 q 168 -100 149 -119 q 188 -19 188 -81 l 188 -19 l 188 126 q 195 213 188 175 q 222 285 203 250 q 278 346 240 321 q 372 386 315 371 z "},"~":{"ha":860,"x_min":47,"x_max":813,"o":"m 197 279 l 197 279 l 47 279 q 108 483 47 399 q 269 567 169 567 l 269 567 q 396 537 338 567 q 501 477 454 507 q 585 447 547 447 l 585 447 q 640 477 619 447 q 663 560 660 507 l 663 560 l 813 560 q 751 351 813 431 q 589 272 690 272 l 589 272 q 458 302 519 272 q 351 362 397 332 q 276 392 306 392 l 276 392 q 197 279 203 392 z "}," ":{"ha":326,"x_min":null,"x_max":null,"o":""},"¡":{"ha":469,"x_min":90,"x_max":379,"o":"m 147 361 l 147 361 l 322 361 q 379 15 379 133 l 379 15 l 379 -264 l 90 -264 l 90 15 q 147 361 90 133 z m 126 495 q 96 604 96 525 q 126 713 96 683 q 235 743 156 743 q 344 713 314 743 q 374 604 374 683 q 344 495 374 525 q 235 465 314 465 q 126 495 156 465 z "},"¢":{"ha":881,"x_min":150,"x_max":757,"o":"m 696 358 l 696 358 l 757 182 q 558 122 661 131 l 558 122 l 558 -14 l 392 -14 l 392 133 q 213 254 276 164 q 150 481 150 344 l 150 481 q 214 717 150 618 q 392 853 278 817 l 392 853 l 392 1000 l 558 1000 l 558 868 q 736 821 658 858 l 736 821 l 668 653 q 572 669 618 669 l 572 669 q 443 500 443 669 l 443 500 q 576 329 443 329 l 576 329 q 696 358 643 329 z "},"£":{"ha":881,"x_min":110,"x_max":797,"o":"m 786 922 l 786 922 l 717 733 q 613 757 664 757 l 613 757 q 524 665 524 757 l 524 665 q 539 576 524 632 l 539 576 l 721 576 l 721 406 l 549 406 q 526 315 549 349 q 461 256 504 282 l 461 256 l 461 250 l 797 250 l 797 0 l 110 0 l 110 178 q 230 243 194 199 q 265 357 265 288 l 265 357 q 263 406 265 378 l 263 406 l 126 406 l 126 576 l 250 576 q 238 676 238 629 l 238 676 q 328 905 238 824 q 561 986 418 986 l 561 986 q 786 922 683 986 z "},"¤":{"ha":881,"x_min":44,"x_max":835,"o":"m 154 501 l 154 501 q 194 643 154 576 l 194 643 l 44 788 l 156 897 l 304 746 q 440 781 367 781 l 440 781 q 575 746 513 781 l 575 746 l 724 897 l 835 788 l 685 644 q 726 501 726 579 l 726 501 q 685 357 726 422 l 685 357 l 835 214 l 724 104 l 574 256 q 440 222 514 222 l 440 222 q 304 256 371 222 l 304 256 l 156 104 l 44 214 l 196 358 q 154 501 154 424 z m 351 592 q 318 501 318 558 q 351 410 318 444 q 440 376 385 376 q 529 410 496 376 q 563 501 563 444 q 529 592 563 558 q 440 626 496 626 q 351 592 385 626 z "},"¥":{"ha":881,"x_min":19,"x_max":861,"o":"m 290 207 l 93 207 l 93 332 l 290 332 l 290 454 l 93 454 l 93 579 l 210 579 l 19 958 l 19 972 l 344 972 l 393 833 q 419 747 406 796 q 439 668 432 699 l 439 668 l 446 638 l 451 638 q 503 833 472 750 l 503 833 l 553 972 l 861 972 l 861 958 l 658 579 l 775 579 l 775 454 l 578 454 l 578 332 l 775 332 l 775 207 l 578 207 l 578 0 l 290 0 l 290 207 z "},"¦":{"ha":349,"x_min":90,"x_max":258,"o":"m 258 1000 l 258 465 l 90 465 l 90 1000 l 258 1000 z m 90 -250 l 90 285 l 258 285 l 258 -250 l 90 -250 z "},"§":{"ha":746,"x_min":42,"x_max":704,"o":"m 638 960 l 638 960 l 585 815 q 413 858 511 858 l 413 858 q 322 815 322 858 l 322 815 q 331 791 322 801 q 360 769 339 781 q 397 751 381 758 q 449 731 413 744 q 503 710 485 717 l 503 710 q 653 610 603 669 q 704 460 704 551 l 704 460 q 615 268 704 347 l 615 268 q 664 138 664 213 l 664 138 q 570 -46 664 15 q 343 -107 476 -107 l 343 -107 q 89 -39 192 -107 l 89 -39 l 154 106 q 332 61 246 61 l 332 61 q 431 117 431 61 l 431 117 q 407 153 431 140 q 320 187 383 165 q 206 233 257 208 l 206 233 q 42 475 42 315 l 42 475 q 69 586 42 533 q 149 671 96 639 l 149 671 q 101 804 101 732 l 101 804 q 149 930 101 881 q 261 997 197 979 q 403 1014 325 1014 l 403 1014 q 638 960 546 1014 z m 407 389 l 407 389 q 444 374 417 385 q 486 356 471 363 l 486 356 q 503 411 503 386 l 503 411 q 464 479 503 451 q 356 534 425 507 q 263 578 288 561 l 263 578 q 243 517 243 551 l 243 517 q 276 451 243 474 q 407 389 308 429 z "},"¨":{"ha":556,"x_min":-1,"x_max":558,"o":"m 22 851 q -1 939 -1 875 q 22 1026 -1 1003 q 110 1050 46 1050 q 197 1026 174 1050 q 221 939 221 1003 q 197 851 221 875 q 110 828 174 828 q 22 851 46 828 z m 360 851 q 336 939 336 875 q 360 1026 336 1003 q 447 1050 383 1050 q 535 1026 511 1050 q 558 939 558 1003 q 535 851 558 875 q 447 828 511 828 q 360 851 383 828 z "},"©":{"ha":1006,"x_min":42,"x_max":964,"o":"m 168 165 q 42 500 42 292 q 168 835 42 708 q 503 961 294 961 q 838 835 711 961 q 964 500 964 708 q 838 165 964 292 q 503 39 711 39 q 168 165 294 39 z m 256 753 q 167 500 167 660 q 256 247 167 340 q 503 153 346 153 q 749 247 660 153 q 839 500 839 340 q 749 753 839 660 q 503 847 660 847 q 256 753 346 847 z m 707 732 l 707 732 l 658 610 q 578 626 622 626 l 578 626 q 469 510 469 626 l 469 510 q 575 382 469 382 l 575 382 q 674 407 621 382 l 674 407 l 717 281 q 533 233 633 233 l 533 233 q 342 306 407 233 q 278 506 278 378 l 278 506 q 354 699 278 632 q 546 767 431 767 l 546 767 q 707 732 633 767 z "},"ª":{"ha":543,"x_min":28,"x_max":488,"o":"m 488 751 l 488 751 l 488 436 l 390 421 q 292 478 292 404 l 292 478 l 286 478 q 163 418 238 418 l 163 418 q 67 454 106 418 q 28 565 28 490 l 28 565 q 50 653 28 618 q 113 706 72 689 q 193 728 154 722 q 286 736 232 735 l 286 736 q 271 780 286 768 q 217 792 256 792 l 217 792 q 100 768 158 792 l 100 768 l 67 886 q 281 928 176 928 l 281 928 q 488 751 488 928 z m 293 571 l 293 571 l 293 629 l 264 629 q 213 585 213 629 l 213 585 q 244 546 213 546 l 244 546 q 293 571 271 546 z "},"«":{"ha":757,"x_min":28,"x_max":733,"o":"m 258 50 l 28 375 l 258 700 l 386 611 l 236 375 l 386 139 l 258 50 z m 606 50 l 375 375 l 606 700 l 733 611 l 583 375 l 733 139 l 606 50 z "},"¬":{"ha":860,"x_min":42,"x_max":790,"o":"m 790 158 l 619 158 l 619 446 l 42 446 l 42 613 l 790 613 l 790 158 z "},"­":{"ha":467,"x_min":42,"x_max":425,"o":"m 425 479 l 425 307 l 42 307 l 42 479 l 425 479 z "},"®":{"ha":689,"x_min":28,"x_max":661,"o":"m 114 506 q 28 736 28 592 q 114 967 28 881 q 344 1053 200 1053 q 575 967 489 1053 q 661 736 661 881 q 575 506 661 592 q 344 419 489 419 q 114 506 200 419 z m 173 913 q 113 736 113 850 q 173 559 113 622 q 344 496 233 496 q 516 559 456 496 q 576 736 576 622 q 516 913 576 850 q 344 976 456 976 q 173 913 233 976 z m 332 699 l 318 699 l 318 596 l 233 596 l 233 890 l 360 890 q 481 797 481 890 l 481 797 q 425 708 481 732 l 425 708 l 500 601 l 500 596 l 399 596 l 332 699 z m 382 769 q 390 794 390 776 q 382 819 390 813 q 353 826 374 826 l 353 826 l 318 826 l 318 763 l 353 763 q 382 769 374 763 z "},"¯":{"ha":556,"x_min":54,"x_max":500,"o":"m 500 992 l 500 861 l 54 861 l 54 992 l 500 992 z "},"°":{"ha":581,"x_min":28,"x_max":553,"o":"m 101 563 q 28 751 28 636 q 101 940 28 867 q 290 1014 175 1014 q 479 940 406 1014 q 553 751 553 867 q 479 563 553 636 q 290 489 406 489 q 101 563 175 489 z m 202 847 q 169 751 169 810 q 202 656 169 693 q 290 618 235 618 q 378 656 346 618 q 411 751 411 693 q 378 847 411 810 q 290 885 346 885 q 202 847 235 885 z "},"±":{"ha":860,"x_min":56,"x_max":804,"o":"m 804 621 l 804 454 l 515 454 l 515 208 l 344 208 l 344 454 l 56 454 l 56 621 l 344 621 l 344 861 l 515 861 l 515 621 l 804 621 z m 804 167 l 804 0 l 56 0 l 56 167 l 804 167 z "},"²":{"ha":506,"x_min":21,"x_max":471,"o":"m 257 833 l 257 828 l 471 828 l 471 653 l 21 653 l 21 776 l 119 864 q 191 928 171 910 q 228 973 211 947 q 246 1022 246 999 l 246 1022 q 201 1060 246 1060 l 201 1060 q 90 1028 146 1060 l 90 1028 l 36 1150 q 251 1213 139 1213 l 251 1213 q 399 1172 336 1213 q 463 1053 463 1132 l 463 1053 q 426 950 463 990 q 319 869 389 910 l 319 869 l 257 833 z "},"³":{"ha":485,"x_min":7,"x_max":457,"o":"m 64 1044 l 64 1044 l 21 1169 q 236 1213 124 1213 l 236 1213 q 385 1179 326 1213 q 443 1071 443 1146 l 443 1071 q 410 982 443 1015 q 319 943 376 949 l 319 943 l 319 938 q 421 898 385 932 q 457 813 457 864 l 457 813 q 383 685 457 726 q 204 643 310 643 l 204 643 q 7 683 83 643 l 7 683 l 53 808 q 167 788 103 788 l 167 788 q 240 833 240 788 l 240 833 q 219 867 240 860 q 157 875 199 875 l 157 875 l 108 875 l 108 986 l 150 986 q 226 1029 226 986 l 226 1029 q 168 1068 226 1068 l 168 1068 q 64 1044 118 1068 z "},"´":{"ha":556,"x_min":129,"x_max":425,"o":"m 218 807 l 129 883 l 317 1131 l 425 1038 l 218 807 z "},"µ":{"ha":819,"x_min":61,"x_max":815,"o":"m 63 208 l 63 736 l 344 736 l 344 303 q 356 224 344 247 q 397 201 367 201 l 397 201 q 461 232 431 201 l 461 232 l 461 736 l 743 736 l 743 294 q 758 235 743 250 q 815 225 772 219 l 815 225 l 815 11 q 661 -14 740 -14 l 661 -14 q 504 76 538 -14 l 504 76 l 499 76 q 449 15 483 43 q 374 -14 415 -14 l 374 -14 q 326 -4 347 -14 l 326 -4 l 322 -8 l 322 -49 q 340 -278 322 -161 l 340 -278 l 99 -278 q 61 71 61 -150 l 61 71 q 62 150 61 103 q 63 208 63 197 l 63 208 z "},"¶":{"ha":739,"x_min":28,"x_max":663,"o":"m 390 1000 l 390 1000 l 663 1000 l 663 -160 l 535 -160 l 535 875 l 449 875 l 449 -160 l 321 -160 l 321 404 q 108 485 188 404 q 28 700 28 565 l 28 700 q 124 924 28 849 q 390 1000 219 1000 z "},"·":{"ha":417,"x_min":69,"x_max":347,"o":"m 99 285 q 69 394 69 315 q 99 503 69 474 q 208 533 129 533 q 317 503 288 533 q 347 394 347 474 q 317 285 347 315 q 208 256 288 256 q 99 285 129 256 z "},"¸":{"ha":556,"x_min":121,"x_max":435,"o":"m 279 17 l 279 17 l 388 17 q 435 -117 435 -40 l 435 -117 q 388 -237 435 -187 q 257 -286 342 -286 l 257 -286 q 121 -246 176 -286 l 121 -246 l 169 -137 q 232 -153 203 -153 l 232 -153 q 301 -69 301 -153 l 301 -69 q 279 17 301 -21 z "},"¹":{"ha":424,"x_min":14,"x_max":368,"o":"m 368 653 l 156 653 l 156 1026 l 14 1026 l 14 1172 l 240 1208 q 368 1128 368 1229 l 368 1128 l 368 653 z "},"º":{"ha":600,"x_min":28,"x_max":572,"o":"m 495 860 q 572 674 572 792 q 495 487 572 556 q 300 418 418 418 q 105 487 182 418 q 28 674 28 556 q 105 860 28 792 q 300 928 182 928 q 495 860 418 928 z m 367 674 l 367 674 q 300 792 367 792 q 233 674 233 792 l 233 674 q 300 554 233 554 q 367 674 367 554 z "},"»":{"ha":757,"x_min":24,"x_max":729,"o":"m 24 611 l 151 700 l 382 375 l 151 50 l 24 139 l 174 375 l 24 611 z m 371 611 l 499 700 l 729 375 l 499 50 l 371 139 l 521 375 l 371 611 z "},"¼":{"ha":1244,"x_min":38,"x_max":1196,"o":"m 358 -43 l 229 35 l 806 1014 l 935 936 l 358 -43 z m 392 426 l 179 426 l 179 800 l 38 800 l 38 946 l 264 982 q 392 901 392 1003 l 392 901 l 392 426 z m 910 0 l 910 86 l 660 86 l 660 222 l 839 550 l 1122 550 l 1122 236 l 1196 236 l 1196 86 l 1122 86 l 1122 0 l 910 0 z m 840 235 l 840 229 l 924 229 l 924 308 l 931 414 l 925 414 q 881 308 908 358 l 881 308 l 840 235 z "},"½":{"ha":1244,"x_min":42,"x_max":1169,"o":"m 363 -43 l 233 35 l 810 1014 l 939 936 l 363 -43 z m 396 426 l 183 426 l 183 800 l 42 800 l 42 946 l 268 982 q 396 901 396 1003 l 396 901 l 396 426 z m 956 181 l 956 175 l 1169 175 l 1169 0 l 719 0 l 719 124 l 818 211 q 890 276 869 257 q 927 320 910 294 q 944 369 944 346 l 944 369 q 900 407 944 407 l 900 407 q 789 375 844 407 l 789 375 l 735 497 q 950 560 838 560 l 950 560 q 1098 519 1035 560 q 1161 400 1161 479 l 1161 400 q 1124 297 1161 338 q 1018 217 1088 257 l 1018 217 l 956 181 z "},"¾":{"ha":1244,"x_min":28,"x_max":1217,"o":"m 379 -43 l 250 35 l 826 1014 l 956 936 l 379 -43 z m 85 818 l 85 818 l 42 943 q 257 986 144 986 l 257 986 q 406 953 347 986 q 464 844 464 919 l 464 844 q 431 756 464 789 q 340 717 397 722 l 340 717 l 340 711 q 442 672 406 706 q 478 586 478 638 l 478 586 q 404 458 478 500 q 225 417 331 417 l 225 417 q 28 457 104 417 l 28 457 l 74 582 q 188 561 124 561 l 188 561 q 261 607 261 561 l 261 607 q 240 641 261 633 q 178 649 219 649 l 178 649 l 129 649 l 129 760 l 171 760 q 247 803 247 760 l 247 803 q 189 842 247 842 l 189 842 q 85 818 139 842 z m 931 0 l 931 86 l 681 86 l 681 222 l 860 550 l 1143 550 l 1143 236 l 1217 236 l 1217 86 l 1143 86 l 1143 0 l 931 0 z m 861 235 l 861 229 l 944 229 l 944 308 l 951 414 l 946 414 q 901 308 929 358 l 901 308 l 861 235 z "},"¿":{"ha":693,"x_min":14,"x_max":665,"o":"m 560 4 l 560 4 l 665 -169 q 318 -278 514 -278 l 318 -278 q 101 -215 189 -278 q 14 -32 14 -151 l 14 -32 q 63 126 14 69 q 193 218 111 182 l 193 218 q 225 231 203 222 q 256 244 247 240 q 282 258 265 249 q 306 275 299 267 q 322 296 313 283 q 334 325 331 308 q 338 361 338 342 l 338 361 l 521 361 q 529 296 529 328 l 529 296 q 495 187 529 232 q 420 121 461 142 q 345 70 379 100 q 311 6 311 40 l 311 6 q 390 -56 311 -56 l 390 -56 q 560 4 476 -56 z m 527 713 q 557 604 557 683 q 527 495 557 525 q 418 465 497 465 q 309 495 339 465 q 279 604 279 525 q 309 713 279 683 q 418 743 339 743 q 527 713 497 743 z "},"À":{"ha":932,"x_min":0,"x_max":932,"o":"m 932 0 l 633 0 l 575 210 l 343 210 l 285 0 l 0 0 l 0 14 l 275 1000 l 657 1000 l 932 14 l 932 0 z m 408 518 l 385 419 l 533 419 l 510 518 q 484 647 496 578 q 467 756 472 717 l 467 756 l 463 796 l 457 796 q 408 518 440 653 l 408 518 z m 282 1219 l 357 1354 l 642 1165 l 581 1056 l 282 1219 z "},"Á":{"ha":932,"x_min":0,"x_max":932,"o":"m 932 0 l 633 0 l 575 210 l 343 210 l 285 0 l 0 0 l 0 14 l 275 1000 l 657 1000 l 932 14 l 932 0 z m 408 518 l 385 419 l 533 419 l 510 518 q 484 647 496 578 q 467 756 472 717 l 467 756 l 463 796 l 457 796 q 408 518 440 653 l 408 518 z m 390 1056 l 329 1165 l 614 1354 l 689 1219 l 390 1056 z "},"Â":{"ha":932,"x_min":0,"x_max":932,"o":"m 932 0 l 633 0 l 575 210 l 343 210 l 285 0 l 0 0 l 0 14 l 275 1000 l 657 1000 l 932 14 l 932 0 z m 408 518 l 385 419 l 533 419 l 510 518 q 484 647 496 578 q 467 756 472 717 l 467 756 l 463 796 l 457 796 q 408 518 440 653 l 408 518 z m 292 1056 l 210 1144 l 403 1340 l 528 1340 l 721 1144 l 639 1056 l 465 1208 l 292 1056 z "},"Ã":{"ha":932,"x_min":0,"x_max":932,"o":"m 932 0 l 633 0 l 575 210 l 343 210 l 285 0 l 0 0 l 0 14 l 275 1000 l 657 1000 l 932 14 l 932 0 z m 408 518 l 385 419 l 533 419 l 510 518 q 484 647 496 578 q 467 756 472 717 l 467 756 l 463 796 l 457 796 q 408 518 440 653 l 408 518 z m 336 1068 l 336 1068 l 221 1068 q 265 1219 224 1153 q 372 1286 307 1286 l 372 1286 q 447 1266 411 1286 q 508 1226 482 1246 q 549 1206 533 1206 l 549 1206 q 596 1286 583 1206 l 596 1286 l 711 1286 q 667 1134 708 1200 q 560 1068 626 1068 l 560 1068 q 453 1108 511 1068 q 383 1149 394 1149 l 383 1149 q 336 1068 347 1149 z "},"Ä":{"ha":932,"x_min":0,"x_max":932,"o":"m 932 0 l 633 0 l 575 210 l 343 210 l 285 0 l 0 0 l 0 14 l 275 1000 l 657 1000 l 932 14 l 932 0 z m 408 518 l 385 419 l 533 419 l 510 518 q 484 647 496 578 q 467 756 472 717 l 467 756 l 463 796 l 457 796 q 408 518 440 653 l 408 518 z m 188 1110 q 163 1206 163 1136 q 188 1301 163 1275 q 283 1326 214 1326 q 378 1301 353 1326 q 404 1206 404 1275 q 378 1110 404 1136 q 283 1085 353 1085 q 188 1110 214 1085 z m 552 1110 q 526 1206 526 1136 q 552 1301 526 1275 q 647 1326 578 1326 q 742 1301 717 1326 q 768 1206 768 1275 q 742 1110 768 1136 q 647 1085 717 1085 q 552 1110 578 1085 z "},"Å":{"ha":932,"x_min":0,"x_max":932,"o":"m 932 0 l 633 0 l 575 210 l 343 210 l 285 0 l 0 0 l 0 14 l 275 1000 l 657 1000 l 932 14 l 932 0 z m 408 518 l 385 419 l 533 419 l 510 518 q 484 647 496 578 q 467 756 472 717 l 467 756 l 463 796 l 457 796 q 408 518 440 653 l 408 518 z m 333 1072 q 282 1192 282 1115 q 333 1311 282 1268 q 465 1354 385 1354 q 597 1311 546 1354 q 649 1192 649 1268 q 597 1072 649 1115 q 465 1029 546 1029 q 333 1072 385 1029 z m 422 1238 q 406 1192 406 1219 q 422 1145 406 1164 q 465 1126 438 1126 q 509 1145 493 1126 q 525 1192 525 1164 q 509 1238 525 1219 q 465 1257 493 1257 q 422 1238 438 1257 z "},"Æ":{"ha":1301,"x_min":-14,"x_max":1274,"o":"m 1274 0 l 614 0 l 614 292 l 404 292 l 282 0 l -14 0 l -14 14 l 400 1000 l 1246 1000 l 1246 771 l 901 771 l 901 610 l 1178 610 l 1178 393 l 901 393 l 901 229 l 1274 229 l 1274 0 z m 614 775 l 590 775 l 475 501 l 614 501 l 614 775 z "},"Ç":{"ha":843,"x_min":42,"x_max":843,"o":"m 761 279 l 761 279 l 843 82 q 600 -8 736 8 l 600 -8 q 629 -117 629 -58 l 629 -117 q 583 -237 629 -187 q 451 -286 536 -286 l 451 -286 q 315 -246 371 -286 l 315 -246 l 364 -137 q 426 -153 397 -153 l 426 -153 q 496 -69 496 -153 l 496 -69 q 486 -12 496 -44 l 486 -12 q 154 131 267 -3 q 42 488 42 265 l 42 488 q 174 865 42 715 q 536 1014 307 1014 l 536 1014 q 829 936 700 1014 l 829 936 l 744 746 q 575 785 665 785 l 575 785 q 392 715 446 785 q 339 504 339 646 l 339 504 q 388 292 339 361 q 561 222 438 222 l 561 222 q 761 279 671 222 z "},"È":{"ha":764,"x_min":76,"x_max":736,"o":"m 736 0 l 76 0 l 76 1000 l 708 1000 l 708 771 l 364 771 l 364 621 l 640 621 l 640 404 l 364 404 l 364 229 l 736 229 l 736 0 z m 185 1219 l 260 1354 l 544 1165 l 483 1056 l 185 1219 z "},"É":{"ha":764,"x_min":76,"x_max":736,"o":"m 736 0 l 76 0 l 76 1000 l 708 1000 l 708 771 l 364 771 l 364 621 l 640 621 l 640 404 l 364 404 l 364 229 l 736 229 l 736 0 z m 331 1056 l 269 1165 l 554 1354 l 629 1219 l 331 1056 z "},"Ê":{"ha":764,"x_min":76,"x_max":736,"o":"m 736 0 l 76 0 l 76 1000 l 708 1000 l 708 771 l 364 771 l 364 621 l 640 621 l 640 404 l 364 404 l 364 229 l 736 229 l 736 0 z m 232 1056 l 150 1144 l 343 1340 l 468 1340 l 661 1144 l 579 1056 l 406 1208 l 232 1056 z "},"Ë":{"ha":764,"x_min":76,"x_max":736,"o":"m 736 0 l 76 0 l 76 1000 l 708 1000 l 708 771 l 364 771 l 364 621 l 640 621 l 640 404 l 364 404 l 364 229 l 736 229 l 736 0 z m 124 1110 q 99 1206 99 1136 q 124 1301 99 1275 q 219 1326 150 1326 q 315 1301 289 1326 q 340 1206 340 1275 q 315 1110 340 1136 q 219 1085 289 1085 q 124 1110 150 1085 z m 488 1110 q 463 1206 463 1136 q 488 1301 463 1275 q 583 1326 514 1326 q 678 1301 653 1326 q 704 1206 704 1275 q 678 1110 704 1136 q 583 1085 653 1085 q 488 1110 514 1085 z "},"Ì":{"ha":440,"x_min":26,"x_max":386,"o":"m 76 0 l 76 1000 l 364 1000 l 364 0 l 76 0 z m 26 1219 l 101 1354 l 386 1165 l 325 1056 l 26 1219 z "},"Í":{"ha":440,"x_min":54,"x_max":414,"o":"m 76 0 l 76 1000 l 364 1000 l 364 0 l 76 0 z m 115 1056 l 54 1165 l 339 1354 l 414 1219 l 115 1056 z "},"Î":{"ha":440,"x_min":-36,"x_max":475,"o":"m 76 0 l 76 1000 l 364 1000 l 364 0 l 76 0 z m 46 1056 l -36 1144 l 157 1340 l 282 1340 l 475 1144 l 393 1056 l 219 1208 l 46 1056 z "},"Ï":{"ha":440,"x_min":-83,"x_max":522,"o":"m 76 0 l 76 1000 l 364 1000 l 364 0 l 76 0 z m -57 1110 q -83 1206 -83 1136 q -57 1301 -83 1275 q 38 1326 -31 1326 q 132 1301 106 1326 q 158 1206 158 1275 q 132 1110 158 1136 q 38 1085 106 1085 q -57 1110 -31 1085 z m 307 1110 q 281 1206 281 1136 q 307 1301 281 1275 q 401 1326 333 1326 q 496 1301 469 1326 q 522 1206 522 1275 q 496 1110 522 1136 q 401 1085 469 1085 q 307 1110 333 1085 z "},"Ð":{"ha":1040,"x_min":35,"x_max":999,"o":"m 125 404 l 35 404 l 35 621 l 125 621 l 125 1000 l 436 1000 q 863 878 726 1000 q 999 500 999 757 q 863 122 999 243 q 436 0 726 0 l 436 0 l 125 0 l 125 404 z m 456 775 l 456 775 l 413 775 l 413 621 l 556 621 l 556 404 l 413 404 l 413 225 l 456 225 q 649 292 596 225 q 701 500 701 360 q 649 708 701 640 q 456 775 596 775 z "},"Ñ":{"ha":1035,"x_min":76,"x_max":958,"o":"m 407 450 l 322 808 l 317 808 q 336 419 336 485 l 336 419 l 336 0 l 76 0 l 76 1000 l 490 1000 l 628 550 q 656 433 636 522 q 692 267 676 343 l 692 267 l 707 192 l 713 192 q 699 581 699 515 l 699 581 l 699 1000 l 958 1000 l 958 0 l 544 0 l 407 450 z m 388 1088 l 388 1088 l 272 1088 q 317 1239 275 1172 q 424 1306 358 1306 l 424 1306 q 531 1265 475 1306 q 600 1225 586 1225 l 600 1225 q 647 1306 635 1225 l 647 1306 l 763 1306 q 719 1153 760 1219 q 611 1088 678 1088 l 611 1088 q 538 1108 575 1088 q 474 1148 501 1128 q 435 1168 447 1168 l 435 1168 q 388 1088 399 1168 z "},"Ò":{"ha":1069,"x_min":42,"x_max":1028,"o":"m 175 119 q 42 500 42 253 q 175 881 42 747 q 535 1014 308 1014 q 894 881 761 1014 q 1028 500 1028 747 q 894 119 1028 253 q 535 -14 761 -14 q 175 119 308 -14 z m 683 291 q 731 500 731 374 q 683 709 731 626 q 535 792 635 792 q 387 709 435 792 q 339 500 339 626 q 387 291 339 374 q 535 208 435 208 q 683 291 635 208 z m 314 1219 l 389 1354 l 674 1165 l 613 1056 l 314 1219 z "},"Ó":{"ha":1069,"x_min":42,"x_max":1028,"o":"m 175 119 q 42 500 42 253 q 175 881 42 747 q 535 1014 308 1014 q 894 881 761 1014 q 1028 500 1028 747 q 894 119 1028 253 q 535 -14 761 -14 q 175 119 308 -14 z m 683 291 q 731 500 731 374 q 683 709 731 626 q 535 792 635 792 q 387 709 435 792 q 339 500 339 626 q 387 291 339 374 q 535 208 435 208 q 683 291 635 208 z m 458 1056 l 397 1165 l 682 1354 l 757 1219 l 458 1056 z "},"Ô":{"ha":1069,"x_min":42,"x_max":1028,"o":"m 175 119 q 42 500 42 253 q 175 881 42 747 q 535 1014 308 1014 q 894 881 761 1014 q 1028 500 1028 747 q 894 119 1028 253 q 535 -14 761 -14 q 175 119 308 -14 z m 683 291 q 731 500 731 374 q 683 709 731 626 q 535 792 635 792 q 387 709 435 792 q 339 500 339 626 q 387 291 339 374 q 535 208 435 208 q 683 291 635 208 z m 361 1056 l 279 1144 l 472 1340 l 597 1340 l 790 1144 l 708 1056 l 535 1208 l 361 1056 z "},"Õ":{"ha":1069,"x_min":42,"x_max":1028,"o":"m 175 119 q 42 500 42 253 q 175 881 42 747 q 535 1014 308 1014 q 894 881 761 1014 q 1028 500 1028 747 q 894 119 1028 253 q 535 -14 761 -14 q 175 119 308 -14 z m 683 291 q 731 500 731 374 q 683 709 731 626 q 535 792 635 792 q 387 709 435 792 q 339 500 339 626 q 387 291 339 374 q 535 208 435 208 q 683 291 635 208 z m 406 1088 l 406 1088 l 290 1088 q 335 1239 293 1172 q 442 1306 376 1306 l 442 1306 q 516 1285 481 1306 q 577 1245 551 1265 q 618 1225 603 1225 l 618 1225 q 665 1306 653 1225 l 665 1306 l 781 1306 q 737 1153 778 1219 q 629 1088 696 1088 l 629 1088 q 522 1128 581 1088 q 453 1168 464 1168 l 453 1168 q 406 1088 417 1168 z "},"Ö":{"ha":1069,"x_min":42,"x_max":1028,"o":"m 175 119 q 42 500 42 253 q 175 881 42 747 q 535 1014 308 1014 q 894 881 761 1014 q 1028 500 1028 747 q 894 119 1028 253 q 535 -14 761 -14 q 175 119 308 -14 z m 683 291 q 731 500 731 374 q 683 709 731 626 q 535 792 635 792 q 387 709 435 792 q 339 500 339 626 q 387 291 339 374 q 535 208 435 208 q 683 291 635 208 z m 258 1110 q 232 1206 232 1136 q 258 1301 232 1275 q 353 1326 283 1326 q 448 1301 422 1326 q 474 1206 474 1275 q 448 1110 474 1136 q 353 1085 422 1085 q 258 1110 283 1085 z m 622 1110 q 596 1206 596 1136 q 622 1301 596 1275 q 717 1326 647 1326 q 812 1301 786 1326 q 838 1206 838 1275 q 812 1110 838 1136 q 717 1085 786 1085 q 622 1110 647 1085 z "},"×":{"ha":860,"x_min":56,"x_max":804,"o":"m 804 124 l 689 0 l 431 263 l 171 0 l 56 124 l 310 382 l 56 643 l 174 764 l 431 504 l 686 764 l 804 643 l 547 382 l 804 124 z "},"Ø":{"ha":1069,"x_min":42,"x_max":1028,"o":"m 42 500 l 42 500 q 175 881 42 747 q 535 1014 308 1014 l 535 1014 q 774 965 669 1014 l 774 965 l 853 1076 l 979 988 l 900 875 q 1028 500 1028 739 l 1028 500 q 894 119 1028 253 q 535 -14 761 -14 l 535 -14 q 304 31 406 -14 l 304 31 l 215 -96 l 89 -7 l 176 117 q 42 500 42 251 z m 535 806 l 535 806 q 387 719 435 806 q 339 500 339 632 l 339 500 q 353 368 339 425 l 353 368 l 638 771 q 535 806 594 806 z m 731 500 l 731 500 q 719 619 731 561 l 719 619 l 439 222 q 535 194 479 194 l 535 194 q 683 281 635 194 q 731 500 731 368 z "},"Ù":{"ha":993,"x_min":69,"x_max":924,"o":"m 69 433 l 69 1000 l 357 1000 l 357 433 q 386 262 357 318 q 500 206 415 206 l 500 206 q 611 264 579 206 q 643 433 643 322 l 643 433 l 643 1000 l 924 1000 l 924 433 q 812 103 924 221 q 496 -14 700 -14 l 496 -14 q 178 102 286 -14 q 69 433 69 218 l 69 433 z m 275 1219 l 350 1354 l 635 1165 l 574 1056 l 275 1219 z "},"Ú":{"ha":993,"x_min":69,"x_max":924,"o":"m 69 433 l 69 1000 l 357 1000 l 357 433 q 386 262 357 318 q 500 206 415 206 l 500 206 q 611 264 579 206 q 643 433 643 322 l 643 433 l 643 1000 l 924 1000 l 924 433 q 812 103 924 221 q 496 -14 700 -14 l 496 -14 q 178 102 286 -14 q 69 433 69 218 l 69 433 z m 433 1056 l 372 1165 l 657 1354 l 732 1219 l 433 1056 z "},"Û":{"ha":993,"x_min":69,"x_max":924,"o":"m 69 433 l 69 1000 l 357 1000 l 357 433 q 386 262 357 318 q 500 206 415 206 l 500 206 q 611 264 579 206 q 643 433 643 322 l 643 433 l 643 1000 l 924 1000 l 924 433 q 812 103 924 221 q 496 -14 700 -14 l 496 -14 q 178 102 286 -14 q 69 433 69 218 l 69 433 z m 322 1056 l 240 1144 l 433 1340 l 558 1340 l 751 1144 l 669 1056 l 496 1208 l 322 1056 z "},"Ü":{"ha":993,"x_min":69,"x_max":924,"o":"m 69 433 l 69 1000 l 357 1000 l 357 433 q 386 262 357 318 q 500 206 415 206 l 500 206 q 611 264 579 206 q 643 433 643 322 l 643 433 l 643 1000 l 924 1000 l 924 433 q 812 103 924 221 q 496 -14 700 -14 l 496 -14 q 178 102 286 -14 q 69 433 69 218 l 69 433 z m 219 1110 q 193 1206 193 1136 q 219 1301 193 1275 q 314 1326 244 1326 q 409 1301 383 1326 q 435 1206 435 1275 q 409 1110 435 1136 q 314 1085 383 1085 q 219 1110 244 1085 z m 583 1110 q 557 1206 557 1136 q 583 1301 557 1275 q 678 1326 608 1326 q 773 1301 747 1326 q 799 1206 799 1275 q 773 1110 799 1136 q 678 1085 747 1085 q 583 1110 608 1085 z "},"Ý":{"ha":881,"x_min":-14,"x_max":894,"o":"m 894 986 l 578 383 l 578 0 l 290 0 l 290 383 l -14 986 l -14 1000 l 311 1000 l 365 844 l 442 600 l 447 600 q 528 844 492 749 l 528 844 l 586 1000 l 894 1000 l 894 986 z m 378 1056 l 317 1165 l 601 1354 l 676 1219 l 378 1056 z "},"Þ":{"ha":856,"x_min":76,"x_max":814,"o":"m 364 0 l 76 0 l 76 1000 l 364 1000 l 364 858 q 690 767 565 858 q 814 501 814 676 q 690 235 814 326 q 364 144 565 144 l 364 144 l 364 0 z m 469 374 q 517 501 517 410 q 469 629 517 593 q 357 665 422 665 l 357 665 l 357 338 q 469 374 422 338 z "},"ß":{"ha":967,"x_min":7,"x_max":946,"o":"m 407 47 l 407 47 l 468 214 q 610 181 535 181 l 610 181 q 682 228 682 181 l 682 228 q 667 260 682 249 q 610 288 651 272 q 551 313 568 304 l 551 313 q 438 503 438 369 l 438 503 q 590 721 438 669 l 590 721 l 590 743 q 483 864 590 864 l 483 864 q 382 743 382 864 l 382 743 l 382 0 l 100 0 l 100 543 l 7 543 l 7 699 l 100 736 l 100 769 q 129 898 100 843 q 200 982 158 953 q 298 1028 242 1011 q 397 1051 354 1046 q 482 1056 439 1056 q 568 1051 525 1056 q 669 1028 611 1046 q 769 982 726 1011 q 842 898 811 953 q 872 769 872 843 l 872 769 l 872 544 q 754 563 818 563 l 754 563 q 681 531 681 563 l 681 531 q 698 500 681 513 q 758 469 715 488 q 826 436 801 450 l 826 436 q 913 355 881 406 q 946 243 946 304 l 946 243 q 858 53 946 119 q 642 -14 771 -14 l 642 -14 q 407 47 511 -14 z "},"à":{"ha":744,"x_min":28,"x_max":689,"o":"m 124 519 l 74 682 q 394 750 238 750 l 394 750 q 613 692 538 750 q 689 497 689 633 l 689 497 l 689 13 l 540 -11 q 449 1 486 -21 q 413 76 413 22 l 413 76 l 407 76 q 224 -14 328 -14 l 224 -14 q 79 47 131 -14 q 28 207 28 107 l 28 207 q 51 321 28 272 q 108 396 74 369 q 195 439 142 422 q 296 461 249 456 q 407 468 343 467 l 407 468 q 382 541 407 524 q 314 558 357 558 l 314 558 q 124 519 229 558 l 124 519 z m 414 228 l 414 228 l 414 313 l 389 313 q 320 297 340 313 q 300 246 300 281 l 300 246 q 342 185 300 185 l 342 185 q 414 228 385 185 z m 196 1038 l 304 1131 l 492 883 l 403 807 l 196 1038 z "},"á":{"ha":744,"x_min":28,"x_max":689,"o":"m 124 519 l 74 682 q 394 750 238 750 l 394 750 q 613 692 538 750 q 689 497 689 633 l 689 497 l 689 13 l 540 -11 q 449 1 486 -21 q 413 76 413 22 l 413 76 l 407 76 q 224 -14 328 -14 l 224 -14 q 79 47 131 -14 q 28 207 28 107 l 28 207 q 51 321 28 272 q 108 396 74 369 q 195 439 142 422 q 296 461 249 456 q 407 468 343 467 l 407 468 q 382 541 407 524 q 314 558 357 558 l 314 558 q 124 519 229 558 l 124 519 z m 414 228 l 414 228 l 414 313 l 389 313 q 320 297 340 313 q 300 246 300 281 l 300 246 q 342 185 300 185 l 342 185 q 414 228 385 185 z m 372 807 l 283 883 l 471 1131 l 579 1038 l 372 807 z "},"â":{"ha":744,"x_min":28,"x_max":689,"o":"m 124 519 l 74 682 q 394 750 238 750 l 394 750 q 613 692 538 750 q 689 497 689 633 l 689 497 l 689 13 l 540 -11 q 449 1 486 -21 q 413 76 413 22 l 413 76 l 407 76 q 224 -14 328 -14 l 224 -14 q 79 47 131 -14 q 28 207 28 107 l 28 207 q 51 321 28 272 q 108 396 74 369 q 195 439 142 422 q 296 461 249 456 q 407 468 343 467 l 407 468 q 382 541 407 524 q 314 558 357 558 l 314 558 q 124 519 229 558 l 124 519 z m 414 228 l 414 228 l 414 313 l 389 313 q 320 297 340 313 q 300 246 300 281 l 300 246 q 342 185 300 185 l 342 185 q 414 228 385 185 z m 240 807 l 149 878 l 318 1117 l 443 1117 l 613 878 l 521 807 l 381 985 l 240 807 z "},"ã":{"ha":744,"x_min":28,"x_max":689,"o":"m 124 519 l 74 682 q 394 750 238 750 l 394 750 q 613 692 538 750 q 689 497 689 633 l 689 497 l 689 13 l 540 -11 q 449 1 486 -21 q 413 76 413 22 l 413 76 l 407 76 q 224 -14 328 -14 l 224 -14 q 79 47 131 -14 q 28 207 28 107 l 28 207 q 51 321 28 272 q 108 396 74 369 q 195 439 142 422 q 296 461 249 456 q 407 468 343 467 l 407 468 q 382 541 407 524 q 314 558 357 558 l 314 558 q 124 519 229 558 l 124 519 z m 414 228 l 414 228 l 414 313 l 389 313 q 320 297 340 313 q 300 246 300 281 l 300 246 q 342 185 300 185 l 342 185 q 414 228 385 185 z m 258 821 l 258 821 l 143 821 q 188 972 146 906 q 294 1039 229 1039 l 294 1039 q 369 1019 333 1039 q 430 978 404 999 q 471 958 456 958 l 471 958 q 518 1039 506 958 l 518 1039 l 633 1039 q 590 887 631 953 q 482 821 549 821 l 482 821 q 375 861 433 821 q 306 901 317 901 l 306 901 q 258 821 269 901 z "},"ä":{"ha":744,"x_min":28,"x_max":689,"o":"m 124 519 l 74 682 q 394 750 238 750 l 394 750 q 613 692 538 750 q 689 497 689 633 l 689 497 l 689 13 l 540 -11 q 449 1 486 -21 q 413 76 413 22 l 413 76 l 407 76 q 224 -14 328 -14 l 224 -14 q 79 47 131 -14 q 28 207 28 107 l 28 207 q 51 321 28 272 q 108 396 74 369 q 195 439 142 422 q 296 461 249 456 q 407 468 343 467 l 407 468 q 382 541 407 524 q 314 558 357 558 l 314 558 q 124 519 229 558 l 124 519 z m 414 228 l 414 228 l 414 313 l 389 313 q 320 297 340 313 q 300 246 300 281 l 300 246 q 342 185 300 185 l 342 185 q 414 228 385 185 z m 117 851 q 93 939 93 875 q 117 1026 93 1003 q 204 1050 140 1050 q 292 1026 268 1050 q 315 939 315 1003 q 292 851 315 875 q 204 828 268 828 q 117 851 140 828 z m 454 851 q 431 939 431 875 q 454 1026 431 1003 q 542 1050 478 1050 q 629 1026 606 1050 q 653 939 653 1003 q 629 851 653 875 q 542 828 606 828 q 454 851 478 828 z "},"å":{"ha":744,"x_min":28,"x_max":689,"o":"m 124 519 l 74 682 q 394 750 238 750 l 394 750 q 613 692 538 750 q 689 497 689 633 l 689 497 l 689 13 l 540 -11 q 449 1 486 -21 q 413 76 413 22 l 413 76 l 407 76 q 224 -14 328 -14 l 224 -14 q 79 47 131 -14 q 28 207 28 107 l 28 207 q 51 321 28 272 q 108 396 74 369 q 195 439 142 422 q 296 461 249 456 q 407 468 343 467 l 407 468 q 382 541 407 524 q 314 558 357 558 l 314 558 q 124 519 229 558 l 124 519 z m 414 228 l 414 228 l 414 313 l 389 313 q 320 297 340 313 q 300 246 300 281 l 300 246 q 342 185 300 185 l 342 185 q 414 228 385 185 z m 256 853 q 204 972 204 896 q 256 1092 204 1049 q 388 1135 307 1135 q 519 1092 468 1135 q 571 972 571 1049 q 519 853 571 896 q 388 810 468 810 q 256 853 307 810 z m 344 1019 q 328 972 328 1000 q 344 926 328 944 q 388 907 360 907 q 431 926 415 907 q 447 972 447 944 q 431 1019 447 1000 q 388 1038 415 1038 q 344 1019 360 1038 z "},"æ":{"ha":1135,"x_min":28,"x_max":1100,"o":"m 1090 319 l 1090 319 l 685 319 q 865 188 701 188 l 865 188 q 1022 217 940 188 l 1022 217 l 1083 47 q 794 -14 953 -14 l 794 -14 q 499 92 600 -14 l 499 92 q 378 14 447 42 q 242 -14 310 -14 l 242 -14 q 88 42 149 -14 q 28 207 28 97 l 28 207 q 51 321 28 272 q 108 396 74 369 q 195 439 142 422 q 296 461 249 456 q 407 468 343 467 l 407 468 q 382 541 407 524 q 314 558 357 558 l 314 558 q 124 519 229 558 l 124 519 l 74 682 q 385 750 236 750 l 385 750 q 586 694 513 750 l 586 694 q 774 750 664 750 l 774 750 q 1010 665 921 750 q 1100 429 1100 579 l 1100 429 q 1090 319 1100 375 z m 683 449 l 683 449 l 831 468 q 813 552 831 521 q 765 583 796 583 l 765 583 q 708 544 729 583 q 683 449 686 506 z m 435 231 l 435 231 q 419 313 424 271 l 419 313 l 389 313 q 320 297 340 313 q 300 246 300 281 l 300 246 q 343 185 300 185 l 343 185 q 435 231 389 185 z "},"ç":{"ha":635,"x_min":28,"x_max":635,"o":"m 574 224 l 574 224 l 635 47 q 464 -8 560 6 l 464 -8 q 493 -117 493 -58 l 493 -117 q 447 -237 493 -187 q 315 -286 400 -286 l 315 -286 q 179 -246 235 -286 l 179 -246 l 228 -137 q 290 -153 261 -153 l 290 -153 q 360 -69 360 -153 l 360 -69 q 350 -12 360 -44 l 350 -12 q 114 94 200 -4 q 28 353 28 193 l 28 353 q 126 638 28 525 q 392 750 224 750 l 392 750 q 614 700 511 750 l 614 700 l 546 532 q 450 549 496 549 l 450 549 q 321 372 321 549 l 321 372 q 350 241 321 288 q 454 194 379 194 l 454 194 q 574 224 521 194 z "},"è":{"ha":760,"x_min":28,"x_max":725,"o":"m 715 319 l 715 319 l 310 319 q 490 188 326 188 l 490 188 q 647 217 564 188 l 647 217 l 708 47 q 419 -14 578 -14 l 419 -14 q 131 85 235 -14 q 28 368 28 183 l 28 368 q 126 648 28 546 q 400 750 225 750 l 400 750 q 636 663 547 750 q 725 429 725 576 l 725 429 q 715 319 725 375 z m 308 449 l 308 449 l 456 468 q 438 552 456 521 q 390 583 421 583 l 390 583 q 333 544 354 583 q 308 449 311 506 z m 206 1038 l 314 1131 l 501 883 l 413 807 l 206 1038 z "},"é":{"ha":760,"x_min":28,"x_max":725,"o":"m 715 319 l 715 319 l 310 319 q 490 188 326 188 l 490 188 q 647 217 564 188 l 647 217 l 708 47 q 419 -14 578 -14 l 419 -14 q 131 85 235 -14 q 28 368 28 183 l 28 368 q 126 648 28 546 q 400 750 225 750 l 400 750 q 636 663 547 750 q 725 429 725 576 l 725 429 q 715 319 725 375 z m 308 449 l 308 449 l 456 468 q 438 552 456 521 q 390 583 421 583 l 390 583 q 333 544 354 583 q 308 449 311 506 z m 382 807 l 293 883 l 481 1131 l 589 1038 l 382 807 z "},"ê":{"ha":760,"x_min":28,"x_max":725,"o":"m 715 319 l 715 319 l 310 319 q 490 188 326 188 l 490 188 q 647 217 564 188 l 647 217 l 708 47 q 419 -14 578 -14 l 419 -14 q 131 85 235 -14 q 28 368 28 183 l 28 368 q 126 648 28 546 q 400 750 225 750 l 400 750 q 636 663 547 750 q 725 429 725 576 l 725 429 q 715 319 725 375 z m 308 449 l 308 449 l 456 468 q 438 552 456 521 q 390 583 421 583 l 390 583 q 333 544 354 583 q 308 449 311 506 z m 243 807 l 151 878 l 321 1117 l 446 1117 l 615 878 l 524 807 l 383 985 l 243 807 z "},"ë":{"ha":760,"x_min":28,"x_max":725,"o":"m 715 319 l 715 319 l 310 319 q 490 188 326 188 l 490 188 q 647 217 564 188 l 647 217 l 708 47 q 419 -14 578 -14 l 419 -14 q 131 85 235 -14 q 28 368 28 183 l 28 368 q 126 648 28 546 q 400 750 225 750 l 400 750 q 636 663 547 750 q 725 429 725 576 l 725 429 q 715 319 725 375 z m 308 449 l 308 449 l 456 468 q 438 552 456 521 q 390 583 421 583 l 390 583 q 333 544 354 583 q 308 449 311 506 z m 121 851 q 97 939 97 875 q 121 1026 97 1003 q 208 1050 144 1050 q 296 1026 272 1050 q 319 939 319 1003 q 296 851 319 875 q 208 828 272 828 q 121 851 144 828 z m 458 851 q 435 939 435 875 q 458 1026 435 1003 q 546 1050 482 1050 q 633 1026 610 1050 q 657 939 657 1003 q 633 851 657 875 q 546 828 610 828 q 458 851 482 828 z "},"ì":{"ha":408,"x_min":43,"x_max":346,"o":"m 346 0 l 63 0 l 63 736 l 346 736 l 346 0 z m 43 1038 l 151 1131 l 339 883 l 250 807 l 43 1038 z "},"í":{"ha":408,"x_min":63,"x_max":367,"o":"m 346 0 l 63 0 l 63 736 l 346 736 l 346 0 z m 160 807 l 71 883 l 258 1131 l 367 1038 l 160 807 z "},"î":{"ha":408,"x_min":-28,"x_max":436,"o":"m 346 0 l 63 0 l 63 736 l 346 736 l 346 0 z m 64 807 l -28 878 l 142 1117 l 267 1117 l 436 878 l 344 807 l 204 985 l 64 807 z "},"ï":{"ha":408,"x_min":-75,"x_max":485,"o":"m 346 0 l 63 0 l 63 736 l 346 736 l 346 0 z m -51 851 q -75 939 -75 875 q -51 1026 -75 1003 q 36 1050 -28 1050 q 124 1026 100 1050 q 147 939 147 1003 q 124 851 147 875 q 36 828 100 828 q -51 851 -28 828 z m 286 851 q 263 939 263 875 q 286 1026 263 1003 q 374 1050 310 1050 q 461 1026 438 1050 q 485 939 485 1003 q 461 851 485 875 q 374 828 438 828 q 286 851 310 828 z "},"ð":{"ha":831,"x_min":28,"x_max":789,"o":"m 376 788 l 376 788 l 243 718 l 190 824 l 268 864 q 122 892 204 892 l 122 892 q 50 886 83 892 l 50 886 l 44 1050 q 153 1056 94 1056 l 153 1056 q 482 976 342 1056 l 482 976 l 650 1064 l 703 958 l 586 897 q 735 683 682 808 q 789 424 789 558 l 789 424 q 685 109 789 232 q 392 -14 582 -14 l 392 -14 q 131 79 233 -14 q 28 331 28 172 l 28 331 q 125 581 28 479 q 372 682 222 682 l 372 682 q 443 675 408 682 l 443 675 l 446 679 q 376 788 417 742 z m 496 335 l 496 335 q 408 488 496 488 q 321 335 321 488 l 321 335 q 408 181 321 181 q 496 335 496 181 z "},"ñ":{"ha":799,"x_min":63,"x_max":743,"o":"m 344 0 l 63 0 l 63 724 l 211 747 q 306 733 274 757 q 339 660 339 708 l 339 660 l 344 660 q 546 750 438 750 l 546 750 q 646 727 606 750 q 706 661 686 704 q 735 571 726 618 q 743 463 743 524 l 743 463 l 743 0 l 461 0 l 461 433 q 459 485 461 467 q 444 519 457 503 q 408 535 432 535 l 408 535 q 344 504 375 535 l 344 504 l 344 0 z m 274 821 l 274 821 l 158 821 q 203 972 161 906 q 310 1039 244 1039 l 310 1039 q 417 999 361 1039 q 486 958 472 958 l 486 958 q 533 1039 521 958 l 533 1039 l 649 1039 q 605 887 646 953 q 497 821 564 821 l 497 821 q 424 841 461 821 q 360 881 388 861 q 321 901 333 901 l 321 901 q 274 821 285 901 z "},"ò":{"ha":817,"x_min":28,"x_max":789,"o":"m 408 181 q 496 368 496 181 q 408 556 496 556 q 321 368 321 556 q 408 181 321 181 z m 688 649 q 789 368 789 549 q 688 87 789 188 q 408 -14 588 -14 q 128 87 229 -14 q 28 368 28 188 q 128 649 28 549 q 408 750 229 750 q 688 649 588 750 z m 219 1038 l 328 1131 l 515 883 l 426 807 l 219 1038 z "},"ó":{"ha":817,"x_min":28,"x_max":789,"o":"m 408 181 q 496 368 496 181 q 408 556 496 556 q 321 368 321 556 q 408 181 321 181 z m 688 649 q 789 368 789 549 q 688 87 789 188 q 408 -14 588 -14 q 128 87 229 -14 q 28 368 28 188 q 128 649 28 549 q 408 750 229 750 q 688 649 588 750 z m 406 807 l 317 883 l 504 1131 l 613 1038 l 406 807 z "},"ô":{"ha":817,"x_min":28,"x_max":789,"o":"m 408 181 q 496 368 496 181 q 408 556 496 556 q 321 368 321 556 q 408 181 321 181 z m 688 649 q 789 368 789 549 q 688 87 789 188 q 408 -14 588 -14 q 128 87 229 -14 q 28 368 28 188 q 128 649 28 549 q 408 750 229 750 q 688 649 588 750 z m 268 807 l 176 878 l 346 1117 l 471 1117 l 640 878 l 549 807 l 408 985 l 268 807 z "},"õ":{"ha":817,"x_min":28,"x_max":789,"o":"m 408 181 q 496 368 496 181 q 408 556 496 556 q 321 368 321 556 q 408 181 321 181 z m 688 649 q 789 368 789 549 q 688 87 789 188 q 408 -14 588 -14 q 128 87 229 -14 q 28 368 28 188 q 128 649 28 549 q 408 750 229 750 q 688 649 588 750 z m 279 821 l 279 821 l 164 821 q 208 972 167 906 q 315 1039 250 1039 l 315 1039 q 422 999 367 1039 q 492 958 478 958 l 492 958 q 539 1039 526 958 l 539 1039 l 654 1039 q 610 887 651 953 q 503 821 569 821 l 503 821 q 430 841 467 821 q 366 881 393 861 q 326 901 339 901 l 326 901 q 279 821 290 901 z "},"ö":{"ha":817,"x_min":28,"x_max":789,"o":"m 408 181 q 496 368 496 181 q 408 556 496 556 q 321 368 321 556 q 408 181 321 181 z m 688 649 q 789 368 789 549 q 688 87 789 188 q 408 -14 588 -14 q 128 87 229 -14 q 28 368 28 188 q 128 649 28 549 q 408 750 229 750 q 688 649 588 750 z m 153 851 q 129 939 129 875 q 153 1026 129 1003 q 240 1050 176 1050 q 328 1026 304 1050 q 351 939 351 1003 q 328 851 351 875 q 240 828 304 828 q 153 851 176 828 z m 490 851 q 467 939 467 875 q 490 1026 467 1003 q 578 1050 514 1050 q 665 1026 642 1050 q 689 939 689 1003 q 665 851 689 875 q 578 828 642 828 q 490 851 514 828 z "},"÷":{"ha":860,"x_min":56,"x_max":804,"o":"m 333 552 q 306 650 306 579 q 333 748 306 721 q 431 775 360 775 q 528 748 501 775 q 556 650 556 721 q 528 552 556 579 q 431 525 501 525 q 333 552 360 525 z m 804 474 l 804 307 l 56 307 l 56 474 l 804 474 z m 333 33 q 306 131 306 60 q 333 228 306 201 q 431 256 360 256 q 528 228 501 256 q 556 131 556 201 q 528 33 556 60 q 431 6 501 6 q 333 33 360 6 z "},"ø":{"ha":831,"x_min":28,"x_max":803,"o":"m 803 368 l 803 368 q 699 88 803 189 q 415 -14 596 -14 l 415 -14 q 257 10 331 -14 l 257 10 l 200 -78 l 94 -8 l 147 72 q 28 368 28 174 l 28 368 q 131 649 28 547 q 415 750 235 750 l 415 750 q 572 725 501 750 l 572 725 l 624 804 l 729 735 l 682 664 q 803 368 803 563 z m 517 368 l 517 368 q 514 425 517 389 l 514 425 l 364 196 q 415 181 386 181 l 415 181 q 517 368 517 181 z m 415 556 l 415 556 q 314 368 314 556 l 314 368 q 317 313 314 340 l 317 313 l 465 539 q 415 556 444 556 z "},"ù":{"ha":799,"x_min":56,"x_max":736,"o":"m 454 736 l 736 736 l 736 13 l 588 -11 q 492 3 525 -21 q 460 76 460 28 l 460 76 l 454 76 q 253 -14 375 -14 l 253 -14 q 153 9 193 -14 q 92 75 113 32 q 64 165 72 118 q 56 274 56 213 l 56 274 l 56 736 l 338 736 l 338 303 q 340 251 338 269 q 354 217 342 233 q 390 201 367 201 l 390 201 q 454 232 424 201 l 454 232 l 454 736 z m 193 1038 l 301 1131 l 489 883 l 400 807 l 193 1038 z "},"ú":{"ha":799,"x_min":56,"x_max":736,"o":"m 454 736 l 736 736 l 736 13 l 588 -11 q 492 3 525 -21 q 460 76 460 28 l 460 76 l 454 76 q 253 -14 375 -14 l 253 -14 q 153 9 193 -14 q 92 75 113 32 q 64 165 72 118 q 56 274 56 213 l 56 274 l 56 736 l 338 736 l 338 303 q 340 251 338 269 q 354 217 342 233 q 390 201 367 201 l 390 201 q 454 232 424 201 l 454 232 l 454 736 z m 393 807 l 304 883 l 492 1131 l 600 1038 l 393 807 z "},"û":{"ha":799,"x_min":56,"x_max":736,"o":"m 454 736 l 736 736 l 736 13 l 588 -11 q 492 3 525 -21 q 460 76 460 28 l 460 76 l 454 76 q 253 -14 375 -14 l 253 -14 q 153 9 193 -14 q 92 75 113 32 q 64 165 72 118 q 56 274 56 213 l 56 274 l 56 736 l 338 736 l 338 303 q 340 251 338 269 q 354 217 342 233 q 390 201 367 201 l 390 201 q 454 232 424 201 l 454 232 l 454 736 z m 256 807 l 164 878 l 333 1117 l 458 1117 l 628 878 l 536 807 l 396 985 l 256 807 z "},"ü":{"ha":799,"x_min":56,"x_max":736,"o":"m 454 736 l 736 736 l 736 13 l 588 -11 q 492 3 525 -21 q 460 76 460 28 l 460 76 l 454 76 q 253 -14 375 -14 l 253 -14 q 153 9 193 -14 q 92 75 113 32 q 64 165 72 118 q 56 274 56 213 l 56 274 l 56 736 l 338 736 l 338 303 q 340 251 338 269 q 354 217 342 233 q 390 201 367 201 l 390 201 q 454 232 424 201 l 454 232 l 454 736 z m 140 851 q 117 939 117 875 q 140 1026 117 1003 q 228 1050 164 1050 q 315 1026 292 1050 q 339 939 339 1003 q 315 851 339 875 q 228 828 292 828 q 140 851 164 828 z m 478 851 q 454 939 454 875 q 478 1026 454 1003 q 565 1050 501 1050 q 653 1026 629 1050 q 676 939 676 1003 q 653 851 676 875 q 565 828 629 828 q 478 851 501 828 z "},"ý":{"ha":775,"x_min":0,"x_max":775,"o":"m 275 40 l 275 40 l 0 722 l 0 736 l 301 736 l 356 536 q 381 424 368 488 q 400 322 394 361 l 400 322 l 407 282 l 413 282 q 453 539 431 428 l 453 539 l 492 736 l 775 736 l 775 722 l 571 118 q 135 -292 432 -292 l 135 -292 q 99 -290 111 -292 l 99 -290 l 43 -68 l 50 -56 q 107 -61 76 -61 l 107 -61 q 275 40 219 -61 z m 385 807 l 296 883 l 483 1131 l 592 1038 l 385 807 z "},"þ":{"ha":835,"x_min":63,"x_max":807,"o":"m 344 504 l 344 504 l 344 167 q 379 164 369 164 l 379 164 q 450 178 422 164 q 491 222 478 193 q 509 282 504 251 q 514 356 514 313 l 514 356 q 422 535 514 535 l 422 535 q 344 504 382 535 z m 344 -278 l 63 -278 l 63 1029 l 211 1053 q 344 944 344 1074 l 344 944 l 344 660 l 350 660 q 549 750 440 750 l 549 750 q 698 695 638 750 q 783 565 758 640 q 807 403 807 489 l 807 403 q 709 99 807 213 q 435 -14 611 -14 l 435 -14 q 344 -7 389 -14 l 344 -7 l 344 -278 z "},"ÿ":{"ha":775,"x_min":0,"x_max":775,"o":"m 275 40 l 275 40 l 0 722 l 0 736 l 301 736 l 356 536 q 381 424 368 488 q 400 322 394 361 l 400 322 l 407 282 l 413 282 q 453 539 431 428 l 453 539 l 492 736 l 775 736 l 775 722 l 571 118 q 135 -292 432 -292 l 135 -292 q 99 -290 111 -292 l 99 -290 l 43 -68 l 50 -56 q 107 -61 76 -61 l 107 -61 q 275 40 219 -61 z m 132 851 q 108 939 108 875 q 132 1026 108 1003 q 219 1050 156 1050 q 307 1026 283 1050 q 331 939 331 1003 q 307 851 331 875 q 219 828 283 828 q 132 851 156 828 z m 469 851 q 446 939 446 875 q 469 1026 446 1003 q 557 1050 493 1050 q 644 1026 621 1050 q 668 939 668 1003 q 644 851 668 875 q 557 828 621 828 q 469 851 493 828 z "},"Ā":{"ha":932,"x_min":0,"x_max":932,"o":"m 932 0 l 633 0 l 575 210 l 343 210 l 285 0 l 0 0 l 0 14 l 275 1000 l 657 1000 l 932 14 l 932 0 z m 408 518 l 385 419 l 533 419 l 510 518 q 484 647 496 578 q 467 756 472 717 l 467 756 l 463 796 l 457 796 q 408 518 440 653 l 408 518 z m 703 1242 l 703 1100 l 229 1100 l 229 1242 l 703 1242 z "},"ā":{"ha":744,"x_min":28,"x_max":689,"o":"m 124 519 l 74 682 q 394 750 238 750 l 394 750 q 613 692 538 750 q 689 497 689 633 l 689 497 l 689 13 l 540 -11 q 449 1 486 -21 q 413 76 413 22 l 413 76 l 407 76 q 224 -14 328 -14 l 224 -14 q 79 47 131 -14 q 28 207 28 107 l 28 207 q 51 321 28 272 q 108 396 74 369 q 195 439 142 422 q 296 461 249 456 q 407 468 343 467 l 407 468 q 382 541 407 524 q 314 558 357 558 l 314 558 q 124 519 229 558 l 124 519 z m 414 228 l 414 228 l 414 313 l 389 313 q 320 297 340 313 q 300 246 300 281 l 300 246 q 342 185 300 185 l 342 185 q 414 228 385 185 z m 599 992 l 599 861 l 153 861 l 153 992 l 599 992 z "},"Ă":{"ha":932,"x_min":0,"x_max":932,"o":"m 932 0 l 633 0 l 575 210 l 343 210 l 285 0 l 0 0 l 0 14 l 275 1000 l 657 1000 l 932 14 l 932 0 z m 408 518 l 385 419 l 533 419 l 510 518 q 484 647 496 578 q 467 756 472 717 l 467 756 l 463 796 l 457 796 q 408 518 440 653 l 408 518 z m 226 1322 l 226 1322 l 350 1322 q 383 1246 358 1274 q 465 1218 408 1218 q 547 1246 522 1218 q 581 1322 572 1274 l 581 1322 l 704 1322 q 636 1142 704 1206 q 465 1079 568 1079 q 294 1142 363 1079 q 226 1322 226 1206 z "},"ă":{"ha":744,"x_min":28,"x_max":689,"o":"m 124 519 l 74 682 q 394 750 238 750 l 394 750 q 613 692 538 750 q 689 497 689 633 l 689 497 l 689 13 l 540 -11 q 449 1 486 -21 q 413 76 413 22 l 413 76 l 407 76 q 224 -14 328 -14 l 224 -14 q 79 47 131 -14 q 28 207 28 107 l 28 207 q 51 321 28 272 q 108 396 74 369 q 195 439 142 422 q 296 461 249 456 q 407 468 343 467 l 407 468 q 382 541 407 524 q 314 558 357 558 l 314 558 q 124 519 229 558 l 124 519 z m 414 228 l 414 228 l 414 313 l 389 313 q 320 297 340 313 q 300 246 300 281 l 300 246 q 342 185 300 185 l 342 185 q 414 228 385 185 z m 163 1068 l 163 1068 l 282 1068 q 310 985 289 1014 q 382 956 332 956 q 453 985 432 956 q 482 1068 475 1014 l 482 1068 l 601 1068 q 540 894 601 960 q 382 828 479 828 q 224 894 285 828 q 163 1068 163 960 z "},"Ą":{"ha":932,"x_min":0,"x_max":932,"o":"m 633 0 l 633 0 l 575 210 l 343 210 l 285 0 l 0 0 l 0 14 l 275 1000 l 657 1000 l 932 14 l 932 0 l 746 0 q 732 -69 732 -32 l 732 -69 q 801 -153 732 -153 l 801 -153 q 864 -137 831 -153 l 864 -137 l 913 -246 q 776 -286 857 -286 l 776 -286 q 645 -237 692 -286 q 599 -117 599 -187 l 599 -117 q 633 0 599 -53 z m 408 518 l 385 419 l 533 419 l 510 518 q 484 647 496 578 q 467 756 472 717 l 467 756 l 463 796 l 457 796 q 408 518 440 653 l 408 518 z "},"ą":{"ha":744,"x_min":28,"x_max":713,"o":"m 689 497 l 689 497 l 689 13 l 542 -11 q 532 -69 532 -40 l 532 -69 q 601 -153 532 -153 l 601 -153 q 664 -137 631 -153 l 664 -137 l 713 -246 q 576 -286 657 -286 l 576 -286 q 445 -237 492 -286 q 399 -117 399 -187 q 439 8 399 -46 l 439 8 q 413 76 413 31 l 413 76 l 407 76 q 224 -14 328 -14 l 224 -14 q 79 47 131 -14 q 28 207 28 107 l 28 207 q 51 321 28 272 q 108 396 74 369 q 195 439 142 422 q 296 461 249 456 q 407 468 343 467 l 407 468 q 382 541 407 524 q 314 558 357 558 l 314 558 q 124 519 229 558 l 124 519 l 74 682 q 394 750 238 750 l 394 750 q 613 692 538 750 q 689 497 689 633 z m 414 228 l 414 228 l 414 313 l 389 313 q 320 297 340 313 q 300 246 300 281 l 300 246 q 342 185 300 185 l 342 185 q 414 228 385 185 z "},"Ć":{"ha":843,"x_min":42,"x_max":843,"o":"m 761 279 l 761 279 l 843 82 q 517 -14 706 -14 l 517 -14 q 162 122 282 -14 q 42 488 42 258 l 42 488 q 174 865 42 715 q 536 1014 307 1014 l 536 1014 q 829 936 700 1014 l 829 936 l 744 746 q 575 785 665 785 l 575 785 q 392 715 446 785 q 339 504 339 646 l 339 504 q 388 292 339 361 q 561 222 438 222 l 561 222 q 761 279 671 222 z m 399 1056 l 338 1165 l 622 1354 l 697 1219 l 399 1056 z "},"ć":{"ha":635,"x_min":28,"x_max":635,"o":"m 574 224 l 574 224 l 635 47 q 378 -14 519 -14 l 378 -14 q 122 86 217 -14 q 28 353 28 186 l 28 353 q 126 638 28 525 q 392 750 224 750 l 392 750 q 614 700 511 750 l 614 700 l 546 532 q 450 549 496 549 l 450 549 q 321 372 321 549 l 321 372 q 350 241 321 288 q 454 194 379 194 l 454 194 q 574 224 521 194 z m 331 807 l 242 883 l 429 1131 l 538 1038 l 331 807 z "},"Č":{"ha":843,"x_min":42,"x_max":843,"o":"m 761 279 l 761 279 l 843 82 q 517 -14 706 -14 l 517 -14 q 162 122 282 -14 q 42 488 42 258 l 42 488 q 174 865 42 715 q 536 1014 307 1014 l 536 1014 q 829 936 700 1014 l 829 936 l 744 746 q 575 785 665 785 l 575 785 q 392 715 446 785 q 339 504 339 646 l 339 504 q 388 292 339 361 q 561 222 438 222 l 561 222 q 761 279 671 222 z m 656 1354 l 738 1265 l 544 1069 l 419 1069 l 226 1265 l 308 1354 l 482 1201 l 656 1354 z "},"č":{"ha":635,"x_min":28,"x_max":635,"o":"m 574 224 l 574 224 l 635 47 q 378 -14 519 -14 l 378 -14 q 122 86 217 -14 q 28 353 28 186 l 28 353 q 126 638 28 525 q 392 750 224 750 l 392 750 q 614 700 511 750 l 614 700 l 546 532 q 450 549 496 549 l 450 549 q 321 372 321 549 l 321 372 q 350 241 321 288 q 454 194 379 194 l 454 194 q 574 224 521 194 z m 500 1131 l 592 1060 l 422 821 l 297 821 l 128 1060 l 219 1131 l 360 953 l 500 1131 z "},"Ď":{"ha":992,"x_min":76,"x_max":950,"o":"m 407 775 l 407 775 l 364 775 l 364 225 l 407 225 q 600 292 547 225 q 653 500 653 360 q 600 708 653 640 q 407 775 547 775 z m 388 0 l 76 0 l 76 1000 l 388 1000 q 814 878 678 1000 q 950 500 950 757 q 814 122 950 243 q 388 0 678 0 l 388 0 z m 650 1354 l 732 1265 l 539 1069 l 414 1069 l 221 1265 l 303 1354 l 476 1201 l 650 1354 z "},"ď":{"ha":835,"x_min":28,"x_max":1085,"o":"m 490 747 l 490 747 l 490 1029 l 639 1053 q 772 944 772 1074 l 772 944 l 772 13 l 624 -11 q 528 5 560 -21 q 496 76 496 31 l 496 76 l 490 76 q 296 -14 411 -14 l 296 -14 q 143 38 206 -14 q 54 164 81 89 q 28 328 28 239 l 28 328 q 140 635 28 519 q 446 750 251 750 l 446 750 q 490 747 468 750 z m 490 232 l 490 232 l 490 560 q 463 561 479 561 l 463 561 q 321 374 321 561 l 321 374 q 323 315 321 338 q 333 262 325 292 q 363 217 342 232 q 415 201 383 201 l 415 201 q 490 232 460 201 z m 946 774 l 946 774 l 838 843 q 915 979 915 900 l 915 979 q 904 1054 915 1010 l 904 1054 l 1063 1054 q 1085 960 1085 1006 l 1085 960 q 1047 850 1085 899 q 946 774 1010 801 z "},"Đ":{"ha":1040,"x_min":35,"x_max":999,"o":"m 125 404 l 35 404 l 35 621 l 125 621 l 125 1000 l 436 1000 q 863 878 726 1000 q 999 500 999 757 q 863 122 999 243 q 436 0 726 0 l 436 0 l 125 0 l 125 404 z m 456 775 l 456 775 l 413 775 l 413 621 l 556 621 l 556 404 l 413 404 l 413 225 l 456 225 q 649 292 596 225 q 701 500 701 360 q 649 708 701 640 q 456 775 596 775 z "},"đ":{"ha":842,"x_min":28,"x_max":851,"o":"m 490 713 l 490 800 l 294 800 l 294 938 l 490 938 l 490 1029 l 639 1053 q 772 944 772 1074 l 772 944 l 772 938 l 851 938 l 851 800 l 772 800 l 772 13 l 624 -11 q 528 5 560 -21 q 496 76 496 31 l 496 76 l 490 76 q 296 -14 411 -14 l 296 -14 q 95 81 163 -14 q 28 311 28 176 l 28 311 q 139 606 28 497 q 446 715 250 715 l 446 715 q 490 713 468 715 l 490 713 z m 490 232 l 490 232 l 490 539 q 464 540 479 540 l 464 540 q 321 357 321 540 l 321 357 q 324 303 321 325 q 334 256 326 282 q 362 215 342 229 q 413 201 382 201 l 413 201 q 490 232 460 201 z "},"Ē":{"ha":764,"x_min":76,"x_max":736,"o":"m 736 0 l 76 0 l 76 1000 l 708 1000 l 708 771 l 364 771 l 364 621 l 640 621 l 640 404 l 364 404 l 364 229 l 736 229 l 736 0 z m 632 1242 l 632 1100 l 158 1100 l 158 1242 l 632 1242 z "},"ē":{"ha":760,"x_min":28,"x_max":725,"o":"m 715 319 l 715 319 l 310 319 q 490 188 326 188 l 490 188 q 647 217 564 188 l 647 217 l 708 47 q 419 -14 578 -14 l 419 -14 q 131 85 235 -14 q 28 368 28 183 l 28 368 q 126 648 28 546 q 400 750 225 750 l 400 750 q 636 663 547 750 q 725 429 725 576 l 725 429 q 715 319 725 375 z m 308 449 l 308 449 l 456 468 q 438 552 456 521 q 390 583 421 583 l 390 583 q 333 544 354 583 q 308 449 311 506 z m 600 992 l 600 861 l 154 861 l 154 992 l 600 992 z "},"Ė":{"ha":764,"x_min":76,"x_max":736,"o":"m 736 0 l 76 0 l 76 1000 l 708 1000 l 708 771 l 364 771 l 364 621 l 640 621 l 640 404 l 364 404 l 364 229 l 736 229 l 736 0 z m 301 1112 q 275 1211 275 1139 q 301 1310 275 1283 q 401 1338 328 1338 q 501 1310 475 1338 q 528 1211 528 1283 q 501 1112 528 1139 q 401 1085 475 1085 q 301 1112 328 1085 z "},"ė":{"ha":760,"x_min":28,"x_max":725,"o":"m 715 319 l 715 319 l 310 319 q 490 188 326 188 l 490 188 q 647 217 564 188 l 647 217 l 708 47 q 419 -14 578 -14 l 419 -14 q 131 85 235 -14 q 28 368 28 183 l 28 368 q 126 648 28 546 q 400 750 225 750 l 400 750 q 636 663 547 750 q 725 429 725 576 l 725 429 q 715 319 725 375 z m 308 449 l 308 449 l 456 468 q 438 552 456 521 q 390 583 421 583 l 390 583 q 333 544 354 583 q 308 449 311 506 z m 276 854 q 250 954 250 881 q 276 1054 250 1028 q 376 1081 303 1081 q 476 1054 450 1081 q 503 954 503 1028 q 476 854 503 881 q 376 828 450 828 q 276 854 303 828 z "},"Ę":{"ha":764,"x_min":76,"x_max":750,"o":"m 471 0 l 76 0 l 76 1000 l 708 1000 l 708 771 l 364 771 l 364 621 l 640 621 l 640 404 l 364 404 l 364 229 l 736 229 l 736 0 l 583 0 q 569 -69 569 -32 l 569 -69 q 639 -153 569 -153 l 639 -153 q 701 -137 668 -153 l 701 -137 l 750 -246 q 614 -286 694 -286 l 614 -286 q 483 -237 529 -286 q 436 -117 436 -187 l 436 -117 q 471 0 436 -51 l 471 0 z "},"ę":{"ha":760,"x_min":28,"x_max":725,"o":"m 715 319 l 715 319 l 310 319 q 490 188 326 188 l 490 188 q 647 217 564 188 l 647 217 l 708 47 q 540 -4 632 11 l 540 -4 q 528 -69 528 -33 l 528 -69 q 597 -153 528 -153 l 597 -153 q 660 -137 626 -153 l 660 -137 l 708 -246 q 572 -286 653 -286 l 572 -286 q 441 -237 488 -286 q 394 -117 394 -187 l 394 -117 q 421 -14 394 -61 l 421 -14 q 131 85 233 -14 q 28 368 28 183 l 28 368 q 126 648 28 546 q 400 750 225 750 l 400 750 q 636 663 547 750 q 725 429 725 576 l 725 429 q 715 319 725 375 z m 308 449 l 308 449 l 456 468 q 438 552 456 521 q 390 583 421 583 l 390 583 q 333 544 354 583 q 308 449 311 506 z "},"Ě":{"ha":764,"x_min":76,"x_max":736,"o":"m 736 0 l 76 0 l 76 1000 l 708 1000 l 708 771 l 364 771 l 364 621 l 640 621 l 640 404 l 364 404 l 364 229 l 736 229 l 736 0 z m 579 1354 l 661 1265 l 468 1069 l 343 1069 l 150 1265 l 232 1354 l 406 1201 l 579 1354 z "},"ě":{"ha":760,"x_min":28,"x_max":725,"o":"m 715 319 l 715 319 l 310 319 q 490 188 326 188 l 490 188 q 647 217 564 188 l 647 217 l 708 47 q 419 -14 578 -14 l 419 -14 q 131 85 235 -14 q 28 368 28 183 l 28 368 q 126 648 28 546 q 400 750 225 750 l 400 750 q 636 663 547 750 q 725 429 725 576 l 725 429 q 715 319 725 375 z m 308 449 l 308 449 l 456 468 q 438 552 456 521 q 390 583 421 583 l 390 583 q 333 544 354 583 q 308 449 311 506 z m 524 1131 l 615 1060 l 446 821 l 321 821 l 151 1060 l 243 1131 l 383 953 l 524 1131 z "},"Ğ":{"ha":1007,"x_min":42,"x_max":938,"o":"m 568 335 l 568 553 l 938 553 l 938 75 q 544 -14 751 -14 l 544 -14 q 171 119 300 -14 q 42 486 42 251 l 42 486 q 192 869 42 725 q 588 1014 343 1014 l 588 1014 q 910 936 760 1014 l 910 936 l 825 746 q 610 785 706 785 l 610 785 q 405 714 471 785 q 339 496 339 643 l 339 496 q 348 376 339 425 q 381 287 357 328 q 451 226 404 246 q 568 206 497 206 l 568 206 q 678 221 629 206 l 678 221 l 678 335 l 568 335 z m 271 1322 l 271 1322 l 394 1322 q 428 1246 403 1274 q 510 1218 453 1218 q 592 1246 567 1218 q 625 1322 617 1274 l 625 1322 l 749 1322 q 681 1142 749 1206 q 510 1079 613 1079 q 339 1142 407 1079 q 271 1322 271 1206 z "},"ğ":{"ha":806,"x_min":42,"x_max":792,"o":"m 792 722 l 792 582 l 713 589 l 713 583 q 740 489 740 543 l 740 489 q 648 318 740 386 q 397 250 556 250 l 397 250 q 282 263 331 250 l 282 263 q 249 219 249 247 l 249 219 q 257 194 249 204 q 283 181 265 185 q 313 177 300 178 q 346 176 325 176 l 346 176 l 539 176 q 714 124 649 176 q 779 -26 779 72 l 779 -26 q 740 -161 779 -106 q 633 -243 700 -217 q 499 -281 567 -269 q 356 -292 432 -292 l 356 -292 q 42 -247 167 -292 l 42 -247 l 103 -85 q 378 -139 199 -139 l 378 -139 q 551 -83 551 -139 l 551 -83 q 506 -57 551 -57 l 506 -57 l 292 -57 q 213 -51 247 -57 q 138 -29 178 -46 q 76 26 99 -12 q 54 124 54 65 l 54 124 q 157 306 54 244 l 157 306 l 157 311 q 54 493 54 374 l 54 493 q 153 685 54 621 q 397 750 251 750 l 397 750 q 585 722 506 750 l 585 722 l 792 722 z m 450 441 q 468 500 468 467 q 450 559 468 533 q 397 585 432 585 q 344 559 363 585 q 326 500 326 533 q 344 441 326 467 q 397 415 363 415 q 450 441 432 415 z m 175 1068 l 175 1068 l 294 1068 q 323 985 301 1014 q 394 956 344 956 q 466 985 444 956 q 494 1068 488 1014 l 494 1068 l 614 1068 q 553 894 614 960 q 394 828 492 828 q 236 894 297 828 q 175 1068 175 960 z "},"Ģ":{"ha":1007,"x_min":42,"x_max":938,"o":"m 568 335 l 568 553 l 938 553 l 938 75 q 544 -14 751 -14 l 544 -14 q 171 119 300 -14 q 42 486 42 251 l 42 486 q 192 869 42 725 q 588 1014 343 1014 l 588 1014 q 910 936 760 1014 l 910 936 l 825 746 q 610 785 706 785 l 610 785 q 405 714 471 785 q 339 496 339 643 l 339 496 q 348 376 339 425 q 381 287 357 328 q 451 226 404 246 q 568 206 497 206 l 568 206 q 678 221 629 206 l 678 221 l 678 335 l 568 335 z m 506 -319 l 506 -319 l 397 -250 q 475 -114 475 -193 l 475 -114 q 464 -39 475 -83 l 464 -39 l 622 -39 q 644 -133 644 -87 l 644 -133 q 607 -243 644 -194 q 506 -319 569 -292 z "},"ģ":{"ha":806,"x_min":42,"x_max":792,"o":"m 792 722 l 792 582 l 713 589 l 713 583 q 740 489 740 543 l 740 489 q 648 318 740 386 q 397 250 556 250 l 397 250 q 282 263 331 250 l 282 263 q 249 219 249 247 l 249 219 q 257 194 249 204 q 283 181 265 185 q 313 177 300 178 q 346 176 325 176 l 346 176 l 539 176 q 714 124 649 176 q 779 -26 779 72 l 779 -26 q 740 -161 779 -106 q 633 -243 700 -217 q 499 -281 567 -269 q 356 -292 432 -292 l 356 -292 q 42 -247 167 -292 l 42 -247 l 103 -85 q 378 -139 199 -139 l 378 -139 q 551 -83 551 -139 l 551 -83 q 506 -57 551 -57 l 506 -57 l 292 -57 q 213 -51 247 -57 q 138 -29 178 -46 q 76 26 99 -12 q 54 124 54 65 l 54 124 q 157 306 54 244 l 157 306 l 157 311 q 54 493 54 374 l 54 493 q 153 685 54 621 q 397 750 251 750 l 397 750 q 585 722 506 750 l 585 722 l 792 722 z m 450 441 q 468 500 468 467 q 450 559 468 533 q 397 585 432 585 q 344 559 363 585 q 326 500 326 533 q 344 441 326 467 q 397 415 363 415 q 450 441 432 415 z m 440 1104 l 440 1104 l 549 1035 q 471 899 471 978 l 471 899 q 482 824 471 868 l 482 824 l 324 824 q 301 918 301 872 l 301 918 q 339 1028 301 979 q 440 1104 376 1076 z "},"Ī":{"ha":440,"x_min":-17,"x_max":457,"o":"m 76 0 l 76 1000 l 364 1000 l 364 0 l 76 0 z m 457 1242 l 457 1100 l -17 1100 l -17 1242 l 457 1242 z "},"ī":{"ha":408,"x_min":-18,"x_max":428,"o":"m 346 0 l 63 0 l 63 736 l 346 736 l 346 0 z m 428 992 l 428 861 l -18 861 l -18 992 l 428 992 z "},"Į":{"ha":440,"x_min":42,"x_max":364,"o":"m 76 0 l 76 1000 l 364 1000 l 364 0 l 189 0 q 175 -69 175 -32 l 175 -69 q 244 -153 175 -153 l 244 -153 q 307 -137 274 -153 l 307 -137 l 356 -246 q 219 -286 300 -286 l 219 -286 q 88 -237 135 -286 q 42 -117 42 -187 l 42 -117 q 76 0 42 -51 l 76 0 z "},"į":{"ha":408,"x_min":28,"x_max":346,"o":"m 63 0 l 63 0 l 63 736 l 346 736 l 346 0 l 175 0 q 161 -69 161 -32 l 161 -69 q 231 -153 161 -153 l 231 -153 q 293 -137 260 -153 l 293 -137 l 342 -246 q 206 -286 286 -286 l 206 -286 q 74 -237 121 -286 q 28 -117 28 -187 l 28 -117 q 63 0 28 -56 z m 99 857 q 69 963 69 886 q 99 1068 69 1039 q 204 1097 128 1097 q 310 1068 281 1097 q 339 963 339 1039 q 310 857 339 886 q 204 828 281 828 q 99 857 128 828 z "},"İ":{"ha":440,"x_min":76,"x_max":364,"o":"m 76 0 l 76 1000 l 364 1000 l 364 0 l 76 0 z m 120 1112 q 93 1211 93 1139 q 120 1310 93 1283 q 219 1338 147 1338 q 319 1310 292 1338 q 346 1211 346 1283 q 319 1112 346 1139 q 219 1085 292 1085 q 120 1112 147 1085 z "},"ı":{"ha":408,"x_min":63,"x_max":346,"o":"m 346 0 l 63 0 l 63 736 l 346 736 l 346 0 z "},"Ķ":{"ha":954,"x_min":76,"x_max":954,"o":"m 954 14 l 954 0 l 626 0 l 371 504 l 635 1000 l 915 1000 l 915 986 l 672 544 l 954 14 z m 76 0 l 76 1000 l 364 1000 l 364 0 l 76 0 z m 457 -319 l 457 -319 l 349 -250 q 426 -114 426 -193 l 426 -114 q 415 -39 426 -83 l 415 -39 l 574 -39 q 596 -133 596 -87 l 596 -133 q 558 -243 596 -194 q 457 -319 521 -292 z "},"ķ":{"ha":828,"x_min":63,"x_max":821,"o":"m 821 14 l 821 0 l 513 0 l 351 376 l 540 736 l 797 736 l 797 722 l 638 418 l 821 14 z m 344 0 l 63 0 l 63 1029 l 211 1053 q 344 944 344 1074 l 344 944 l 344 0 z m 386 -319 l 386 -319 l 278 -250 q 356 -114 356 -193 l 356 -114 q 344 -39 356 -83 l 344 -39 l 503 -39 q 525 -133 525 -87 l 525 -133 q 488 -243 525 -194 q 386 -319 450 -292 z "},"Ĺ":{"ha":694,"x_min":76,"x_max":694,"o":"m 694 246 l 694 0 l 76 0 l 76 1000 l 364 1000 l 364 246 l 694 246 z m 139 1056 l 78 1165 l 363 1354 l 438 1219 l 139 1056 z "},"ĺ":{"ha":478,"x_min":51,"x_max":478,"o":"m 63 275 l 63 275 l 63 1029 l 211 1053 q 344 944 344 1074 l 344 944 l 344 313 q 365 238 344 258 q 438 217 386 217 l 438 217 q 478 219 458 217 l 478 219 l 478 6 q 339 -14 419 -14 l 339 -14 q 278 -12 303 -14 q 208 6 253 -10 q 135 49 164 21 q 85 135 107 76 q 63 275 63 193 z m 113 1083 l 51 1193 l 336 1382 l 411 1247 l 113 1083 z "},"Ļ":{"ha":694,"x_min":76,"x_max":694,"o":"m 694 246 l 694 0 l 76 0 l 76 1000 l 364 1000 l 364 246 l 694 246 z m 356 -319 l 356 -319 l 247 -250 q 325 -114 325 -193 l 325 -114 q 314 -39 325 -83 l 314 -39 l 472 -39 q 494 -133 494 -87 l 494 -133 q 457 -243 494 -194 q 356 -319 419 -292 z "},"ļ":{"ha":478,"x_min":63,"x_max":478,"o":"m 63 275 l 63 275 l 63 1029 l 211 1053 q 344 944 344 1074 l 344 944 l 344 313 q 365 238 344 258 q 438 217 386 217 l 438 217 q 478 219 458 217 l 478 219 l 478 6 q 339 -14 419 -14 l 339 -14 q 278 -12 303 -14 q 208 6 253 -10 q 135 49 164 21 q 85 135 107 76 q 63 275 63 193 z m 207 -319 l 207 -319 l 99 -250 q 176 -114 176 -193 l 176 -114 q 165 -39 176 -83 l 165 -39 l 324 -39 q 346 -133 346 -87 l 346 -133 q 308 -243 346 -194 q 207 -319 271 -292 z "},"Ľ":{"ha":694,"x_min":76,"x_max":694,"o":"m 694 246 l 694 0 l 76 0 l 76 1000 l 364 1000 l 364 246 l 694 246 z m 536 719 l 536 719 l 428 789 q 506 925 506 846 l 506 925 q 494 1000 506 956 l 494 1000 l 653 1000 q 675 906 675 951 l 675 906 q 638 796 675 844 q 536 719 600 747 z "},"ľ":{"ha":478,"x_min":63,"x_max":657,"o":"m 63 275 l 63 275 l 63 1029 l 211 1053 q 344 944 344 1074 l 344 944 l 344 313 q 365 238 344 258 q 438 217 386 217 l 438 217 q 478 219 458 217 l 478 219 l 478 6 q 339 -14 419 -14 l 339 -14 q 278 -12 303 -14 q 208 6 253 -10 q 135 49 164 21 q 85 135 107 76 q 63 275 63 193 z m 518 774 l 518 774 l 410 843 q 488 979 488 900 l 488 979 q 476 1054 488 1010 l 476 1054 l 635 1054 q 657 960 657 1006 l 657 960 q 619 850 657 899 q 518 774 582 801 z "},"Ł":{"ha":764,"x_min":14,"x_max":764,"o":"m 604 833 l 604 644 l 433 515 l 433 246 l 764 246 l 764 0 l 146 0 l 146 304 l 19 208 l 14 211 l 14 400 l 146 500 l 146 1000 l 433 1000 l 433 711 l 599 836 l 604 833 z "},"ł":{"ha":532,"x_min":21,"x_max":532,"o":"m 117 275 l 117 385 l 26 317 l 21 319 l 21 497 l 117 569 l 117 1029 l 265 1053 q 399 944 399 1074 l 399 944 l 399 775 l 511 860 l 517 857 l 517 679 l 399 590 l 399 313 q 419 238 399 258 q 492 217 440 217 l 492 217 q 532 219 513 217 l 532 219 l 532 6 q 393 -14 474 -14 l 393 -14 q 332 -12 357 -14 q 263 6 307 -10 q 190 49 218 21 q 139 135 161 76 q 117 275 117 193 l 117 275 z "},"Ń":{"ha":1035,"x_min":76,"x_max":958,"o":"m 407 450 l 322 808 l 317 808 q 336 419 336 485 l 336 419 l 336 0 l 76 0 l 76 1000 l 490 1000 l 628 550 q 656 433 636 522 q 692 267 676 343 l 692 267 l 707 192 l 713 192 q 699 581 699 515 l 699 581 l 699 1000 l 958 1000 l 958 0 l 544 0 l 407 450 z m 454 1056 l 393 1165 l 678 1354 l 753 1219 l 454 1056 z "},"ń":{"ha":799,"x_min":63,"x_max":743,"o":"m 344 0 l 63 0 l 63 724 l 211 747 q 306 733 274 757 q 339 660 339 708 l 339 660 l 344 660 q 546 750 438 750 l 546 750 q 646 727 606 750 q 706 661 686 704 q 735 571 726 618 q 743 463 743 524 l 743 463 l 743 0 l 461 0 l 461 433 q 459 485 461 467 q 444 519 457 503 q 408 535 432 535 l 408 535 q 344 504 375 535 l 344 504 l 344 0 z m 400 807 l 311 883 l 499 1131 l 607 1038 l 400 807 z "},"Ņ":{"ha":1035,"x_min":76,"x_max":958,"o":"m 407 450 l 322 808 l 317 808 q 336 419 336 485 l 336 419 l 336 0 l 76 0 l 76 1000 l 490 1000 l 628 550 q 656 433 636 522 q 692 267 676 343 l 692 267 l 707 192 l 713 192 q 699 581 699 515 l 699 581 l 699 1000 l 958 1000 l 958 0 l 544 0 l 407 450 z m 501 -319 l 501 -319 l 393 -250 q 471 -114 471 -193 l 471 -114 q 460 -39 471 -83 l 460 -39 l 618 -39 q 640 -133 640 -87 l 640 -133 q 603 -243 640 -194 q 501 -319 565 -292 z "},"ņ":{"ha":799,"x_min":63,"x_max":743,"o":"m 344 0 l 63 0 l 63 724 l 211 747 q 306 733 274 757 q 339 660 339 708 l 339 660 l 344 660 q 546 750 438 750 l 546 750 q 646 727 606 750 q 706 661 686 704 q 735 571 726 618 q 743 463 743 524 l 743 463 l 743 0 l 461 0 l 461 433 q 459 485 461 467 q 444 519 457 503 q 408 535 432 535 l 408 535 q 344 504 375 535 l 344 504 l 344 0 z m 381 -319 l 381 -319 l 272 -250 q 350 -114 350 -193 l 350 -114 q 339 -39 350 -83 l 339 -39 l 497 -39 q 519 -133 519 -87 l 519 -133 q 482 -243 519 -194 q 381 -319 444 -292 z "},"Ň":{"ha":1035,"x_min":76,"x_max":958,"o":"m 407 450 l 322 808 l 317 808 q 336 419 336 485 l 336 419 l 336 0 l 76 0 l 76 1000 l 490 1000 l 628 550 q 656 433 636 522 q 692 267 676 343 l 692 267 l 707 192 l 713 192 q 699 581 699 515 l 699 581 l 699 1000 l 958 1000 l 958 0 l 544 0 l 407 450 z m 690 1354 l 772 1265 l 579 1069 l 454 1069 l 261 1265 l 343 1354 l 517 1201 l 690 1354 z "},"ň":{"ha":799,"x_min":63,"x_max":743,"o":"m 344 0 l 63 0 l 63 724 l 211 747 q 306 733 274 757 q 339 660 339 708 l 339 660 l 344 660 q 546 750 438 750 l 546 750 q 646 727 606 750 q 706 661 686 704 q 735 571 726 618 q 743 463 743 524 l 743 463 l 743 0 l 461 0 l 461 433 q 459 485 461 467 q 444 519 457 503 q 408 535 432 535 l 408 535 q 344 504 375 535 l 344 504 l 344 0 z m 543 1131 l 635 1060 l 465 821 l 340 821 l 171 1060 l 263 1131 l 403 953 l 543 1131 z "},"Ō":{"ha":1069,"x_min":42,"x_max":1028,"o":"m 772 1242 l 772 1100 l 299 1100 l 299 1242 l 772 1242 z m 175 119 q 42 500 42 253 q 175 881 42 747 q 535 1014 308 1014 q 894 881 761 1014 q 1028 500 1028 747 q 894 119 1028 253 q 535 -14 761 -14 q 175 119 308 -14 z m 683 291 q 731 500 731 374 q 683 709 731 626 q 535 792 635 792 q 387 709 435 792 q 339 500 339 626 q 387 291 339 374 q 535 208 435 208 q 683 291 635 208 z "},"ō":{"ha":817,"x_min":28,"x_max":789,"o":"m 408 181 q 496 368 496 181 q 408 556 496 556 q 321 368 321 556 q 408 181 321 181 z m 688 649 q 789 368 789 549 q 688 87 789 188 q 408 -14 588 -14 q 128 87 229 -14 q 28 368 28 188 q 128 649 28 549 q 408 750 229 750 q 688 649 588 750 z m 632 992 l 632 861 l 186 861 l 186 992 l 632 992 z "},"Ő":{"ha":1069,"x_min":42,"x_max":1028,"o":"m 175 119 q 42 500 42 253 q 175 881 42 747 q 535 1014 308 1014 q 894 881 761 1014 q 1028 500 1028 747 q 894 119 1028 253 q 535 -14 761 -14 q 175 119 308 -14 z m 683 291 q 731 500 731 374 q 683 709 731 626 q 535 792 635 792 q 387 709 435 792 q 339 500 339 626 q 387 291 339 374 q 535 208 435 208 q 683 291 635 208 z m 360 1056 l 272 1142 l 460 1354 l 565 1250 l 360 1056 z m 676 1056 l 589 1142 l 776 1354 l 882 1250 l 676 1056 z "},"ő":{"ha":817,"x_min":28,"x_max":789,"o":"m 408 181 q 496 368 496 181 q 408 556 496 556 q 321 368 321 556 q 408 181 321 181 z m 688 649 q 789 368 789 549 q 688 87 789 188 q 408 -14 588 -14 q 128 87 229 -14 q 28 368 28 188 q 128 649 28 549 q 408 750 229 750 q 688 649 588 750 z m 257 807 l 167 876 l 340 1131 l 453 1044 l 257 807 z m 539 807 l 449 876 l 622 1131 l 735 1044 l 539 807 z "},"Œ":{"ha":1390,"x_min":42,"x_max":1363,"o":"m 731 1000 l 731 1000 l 1335 1000 l 1335 771 l 990 771 l 990 621 l 1267 621 l 1267 404 l 990 404 l 990 229 l 1363 229 l 1363 0 l 731 0 q 627 -7 693 0 q 525 -14 561 -14 l 525 -14 q 174 120 307 -14 q 42 500 42 254 q 175 880 42 746 q 526 1014 308 1014 l 526 1014 q 629 1007 563 1014 q 731 1000 696 1000 z m 703 254 l 703 254 l 703 747 q 557 792 644 792 l 557 792 q 339 500 339 792 q 557 208 339 208 l 557 208 q 703 254 642 208 z "},"œ":{"ha":1211,"x_min":28,"x_max":1176,"o":"m 1167 319 l 1167 319 l 753 319 q 938 188 769 188 l 938 188 q 1099 217 1017 188 l 1099 217 l 1160 47 q 885 -14 1033 -14 l 885 -14 q 635 58 728 -14 l 635 58 q 400 -14 542 -14 l 400 -14 q 126 90 224 -14 q 28 368 28 194 l 28 368 q 128 649 28 547 q 401 750 229 750 l 401 750 q 633 679 536 750 l 633 679 q 856 750 731 750 l 856 750 q 1088 663 999 750 q 1176 429 1176 575 l 1176 429 q 1167 319 1176 375 z m 408 181 q 496 368 496 181 q 408 556 496 556 q 321 368 321 556 q 408 181 321 181 z m 751 449 l 751 449 l 907 468 q 889 552 907 521 q 838 583 871 583 l 838 583 q 776 544 799 583 q 751 449 754 506 z "},"Ŕ":{"ha":951,"x_min":76,"x_max":951,"o":"m 553 639 q 563 689 563 660 q 553 739 563 718 q 530 771 543 760 q 493 788 517 782 q 451 794 469 793 q 406 796 433 796 l 406 796 l 364 796 l 364 582 l 406 582 q 451 583 433 582 q 493 590 469 585 q 530 607 517 596 q 553 639 543 618 z m 611 0 l 392 378 l 364 378 l 364 0 l 76 0 l 76 1000 l 388 1000 q 534 994 471 1000 q 661 967 597 988 q 767 914 725 947 q 834 824 808 881 q 860 689 860 767 l 860 689 q 813 521 860 592 q 676 417 767 450 l 676 417 q 804 238 743 331 l 804 238 l 951 14 l 951 0 l 611 0 z m 396 1056 l 335 1165 l 619 1354 l 694 1219 l 396 1056 z "},"ŕ":{"ha":608,"x_min":63,"x_max":615,"o":"m 344 0 l 63 0 l 63 724 l 211 747 q 306 733 274 757 q 339 660 339 708 l 339 660 l 344 660 q 615 736 482 788 l 615 736 l 532 485 q 458 511 499 507 q 389 508 417 515 q 344 490 361 501 l 344 490 l 344 0 z m 296 807 l 207 883 l 394 1131 l 503 1038 l 296 807 z "},"Ŗ":{"ha":951,"x_min":76,"x_max":951,"o":"m 553 639 q 563 689 563 660 q 553 739 563 718 q 530 771 543 760 q 493 788 517 782 q 451 794 469 793 q 406 796 433 796 l 406 796 l 364 796 l 364 582 l 406 582 q 451 583 433 582 q 493 590 469 585 q 530 607 517 596 q 553 639 543 618 z m 611 0 l 392 378 l 364 378 l 364 0 l 76 0 l 76 1000 l 388 1000 q 534 994 471 1000 q 661 967 597 988 q 767 914 725 947 q 834 824 808 881 q 860 689 860 767 l 860 689 q 813 521 860 592 q 676 417 767 450 l 676 417 q 804 238 743 331 l 804 238 l 951 14 l 951 0 l 611 0 z m 464 -319 l 464 -319 l 356 -250 q 433 -114 433 -193 l 433 -114 q 422 -39 433 -83 l 422 -39 l 581 -39 q 603 -133 603 -87 l 603 -133 q 565 -243 603 -194 q 464 -319 528 -292 z "},"ŗ":{"ha":608,"x_min":63,"x_max":615,"o":"m 344 0 l 63 0 l 63 724 l 211 747 q 306 733 274 757 q 339 660 339 708 l 339 660 l 344 660 q 615 736 482 788 l 615 736 l 532 485 q 458 511 499 507 q 389 508 417 515 q 344 490 361 501 l 344 490 l 344 0 z m 171 -319 l 171 -319 l 63 -250 q 140 -114 140 -193 l 140 -114 q 129 -39 140 -83 l 129 -39 l 288 -39 q 310 -133 310 -87 l 310 -133 q 272 -243 310 -194 q 171 -319 235 -292 z "},"Ř":{"ha":951,"x_min":76,"x_max":951,"o":"m 553 639 q 563 689 563 660 q 553 739 563 718 q 530 771 543 760 q 493 788 517 782 q 451 794 469 793 q 406 796 433 796 l 406 796 l 364 796 l 364 582 l 406 582 q 451 583 433 582 q 493 590 469 585 q 530 607 517 596 q 553 639 543 618 z m 611 0 l 392 378 l 364 378 l 364 0 l 76 0 l 76 1000 l 388 1000 q 534 994 471 1000 q 661 967 597 988 q 767 914 725 947 q 834 824 808 881 q 860 689 860 767 l 860 689 q 813 521 860 592 q 676 417 767 450 l 676 417 q 804 238 743 331 l 804 238 l 951 14 l 951 0 l 611 0 z m 614 1354 l 696 1265 l 503 1069 l 378 1069 l 185 1265 l 267 1354 l 440 1201 l 614 1354 z "},"ř":{"ha":608,"x_min":63,"x_max":615,"o":"m 344 0 l 63 0 l 63 724 l 211 747 q 306 733 274 757 q 339 660 339 708 l 339 660 l 344 660 q 615 736 482 788 l 615 736 l 532 485 q 458 511 499 507 q 389 508 417 515 q 344 490 361 501 l 344 490 l 344 0 z m 450 1131 l 542 1060 l 372 821 l 247 821 l 78 1060 l 169 1131 l 310 953 l 450 1131 z "},"Ś":{"ha":853,"x_min":35,"x_max":811,"o":"m 35 79 l 35 79 l 124 278 q 233 237 161 254 q 372 219 306 219 l 372 219 q 518 292 518 219 l 518 292 q 510 323 518 310 q 482 347 503 336 q 442 364 461 357 q 379 384 422 371 q 304 410 336 397 l 304 410 q 213 449 249 431 q 138 501 178 467 q 78 586 97 535 q 58 708 58 638 l 58 708 q 92 851 58 790 q 184 947 126 913 q 310 997 242 981 q 456 1014 378 1014 l 456 1014 q 775 936 624 1014 l 775 936 l 690 746 q 472 788 576 788 l 472 788 q 342 728 342 788 l 342 728 q 351 694 342 708 q 387 666 361 679 q 434 644 413 653 q 501 622 456 636 q 576 596 547 607 l 576 596 q 749 493 686 556 q 811 325 811 431 l 811 325 q 687 72 811 157 q 381 -14 563 -14 l 381 -14 q 35 79 174 -14 z m 346 1056 l 285 1165 l 569 1354 l 644 1219 l 346 1056 z "},"ś":{"ha":635,"x_min":28,"x_max":607,"o":"m 28 47 l 28 47 l 89 214 q 249 181 164 181 l 249 181 q 343 222 343 181 l 343 222 q 335 242 343 233 q 311 258 328 251 q 278 269 294 264 q 237 283 263 275 q 192 297 211 290 l 192 297 q 83 369 124 324 q 43 500 43 415 l 43 500 q 133 690 43 631 q 357 750 222 750 l 357 750 q 589 700 485 750 l 589 700 l 522 535 q 375 563 456 563 l 375 563 q 288 531 288 563 l 288 531 q 296 510 288 519 q 321 494 304 501 q 354 481 338 486 q 398 467 371 475 q 443 453 425 460 l 443 453 q 563 379 519 426 q 607 247 607 332 l 607 247 q 509 51 607 115 q 268 -14 411 -14 l 268 -14 q 28 47 119 -14 z m 300 807 l 211 883 l 399 1131 l 507 1038 l 300 807 z "},"Ş":{"ha":853,"x_min":35,"x_max":811,"o":"m 35 79 l 35 79 l 124 278 q 233 237 161 254 q 372 219 306 219 l 372 219 q 518 292 518 219 l 518 292 q 510 323 518 310 q 482 347 503 336 q 442 364 461 357 q 379 384 422 371 q 304 410 336 397 l 304 410 q 213 449 249 431 q 138 501 178 467 q 78 586 97 535 q 58 708 58 638 l 58 708 q 92 851 58 790 q 184 947 126 913 q 310 997 242 981 q 456 1014 378 1014 l 456 1014 q 775 936 624 1014 l 775 936 l 690 746 q 472 788 576 788 l 472 788 q 342 728 342 788 l 342 728 q 351 694 342 708 q 387 666 361 679 q 434 644 413 653 q 501 622 456 636 q 576 596 547 607 l 576 596 q 749 493 686 556 q 811 325 811 431 l 811 325 q 734 113 811 193 q 529 3 657 32 l 529 3 q 567 -117 567 -51 l 567 -117 q 520 -237 567 -187 q 389 -286 474 -286 l 389 -286 q 253 -246 308 -286 l 253 -246 l 301 -137 q 364 -153 335 -153 l 364 -153 q 433 -69 433 -153 l 433 -69 q 424 -12 433 -42 l 424 -12 q 381 -14 406 -14 l 381 -14 q 35 79 174 -14 z "},"ş":{"ha":635,"x_min":28,"x_max":607,"o":"m 28 47 l 28 47 l 89 214 q 249 181 164 181 l 249 181 q 343 222 343 181 l 343 222 q 335 242 343 233 q 311 258 328 251 q 278 269 294 264 q 237 283 263 275 q 192 297 211 290 l 192 297 q 83 369 124 324 q 43 500 43 415 l 43 500 q 133 690 43 631 q 357 750 222 750 l 357 750 q 589 700 485 750 l 589 700 l 522 535 q 375 563 456 563 l 375 563 q 288 531 288 563 l 288 531 q 296 510 288 519 q 321 494 304 501 q 354 481 338 486 q 398 467 371 475 q 443 453 425 460 l 443 453 q 563 379 519 426 q 607 247 607 332 l 607 247 q 408 4 607 61 l 408 4 q 447 -117 447 -49 l 447 -117 q 401 -237 447 -187 q 269 -286 354 -286 l 269 -286 q 133 -246 189 -286 l 133 -246 l 182 -137 q 244 -153 215 -153 l 244 -153 q 314 -69 314 -153 l 314 -69 q 304 -12 314 -42 l 304 -12 q 268 -14 288 -14 l 268 -14 q 28 47 119 -14 z "},"Š":{"ha":853,"x_min":35,"x_max":811,"o":"m 35 79 l 35 79 l 124 278 q 233 237 161 254 q 372 219 306 219 l 372 219 q 518 292 518 219 l 518 292 q 510 323 518 310 q 482 347 503 336 q 442 364 461 357 q 379 384 422 371 q 304 410 336 397 l 304 410 q 213 449 249 431 q 138 501 178 467 q 78 586 97 535 q 58 708 58 638 l 58 708 q 92 851 58 790 q 184 947 126 913 q 310 997 242 981 q 456 1014 378 1014 l 456 1014 q 775 936 624 1014 l 775 936 l 690 746 q 472 788 576 788 l 472 788 q 342 728 342 788 l 342 728 q 351 694 342 708 q 387 666 361 679 q 434 644 413 653 q 501 622 456 636 q 576 596 547 607 l 576 596 q 749 493 686 556 q 811 325 811 431 l 811 325 q 687 72 811 157 q 381 -14 563 -14 l 381 -14 q 35 79 174 -14 z m 596 1354 l 678 1265 l 485 1069 l 360 1069 l 167 1265 l 249 1354 l 422 1201 l 596 1354 z "},"š":{"ha":635,"x_min":28,"x_max":607,"o":"m 28 47 l 28 47 l 89 214 q 249 181 164 181 l 249 181 q 343 222 343 181 l 343 222 q 335 242 343 233 q 311 258 328 251 q 278 269 294 264 q 237 283 263 275 q 192 297 211 290 l 192 297 q 83 369 124 324 q 43 500 43 415 l 43 500 q 133 690 43 631 q 357 750 222 750 l 357 750 q 589 700 485 750 l 589 700 l 522 535 q 375 563 456 563 l 375 563 q 288 531 288 563 l 288 531 q 296 510 288 519 q 321 494 304 501 q 354 481 338 486 q 398 467 371 475 q 443 453 425 460 l 443 453 q 563 379 519 426 q 607 247 607 332 l 607 247 q 509 51 607 115 q 268 -14 411 -14 l 268 -14 q 28 47 119 -14 z m 461 1131 l 553 1060 l 383 821 l 258 821 l 89 1060 l 181 1131 l 321 953 l 461 1131 z "},"Ţ":{"ha":746,"x_min":0,"x_max":746,"o":"m 746 1000 l 746 754 l 517 754 l 517 0 l 229 0 l 229 754 l 0 754 l 0 1000 l 746 1000 z m 331 -319 l 331 -319 l 222 -250 q 300 -114 300 -193 l 300 -114 q 289 -39 300 -83 l 289 -39 l 447 -39 q 469 -133 469 -87 l 469 -133 q 432 -243 469 -194 q 331 -319 394 -292 z "},"ţ":{"ha":569,"x_min":7,"x_max":556,"o":"m 100 289 l 100 289 l 100 543 l 7 543 l 7 699 l 100 736 l 110 914 l 365 965 l 382 951 l 382 736 l 556 736 l 556 543 l 382 543 l 382 344 q 406 244 382 275 q 493 214 431 214 l 493 214 q 556 219 519 214 l 556 219 l 556 6 q 401 -14 481 -14 l 401 -14 q 173 56 246 -14 q 100 289 100 126 z m 281 -319 l 281 -319 l 172 -250 q 250 -114 250 -193 l 250 -114 q 239 -39 250 -83 l 239 -39 l 397 -39 q 419 -133 419 -87 l 419 -133 q 382 -243 419 -194 q 281 -319 344 -292 z "},"Ť":{"ha":746,"x_min":0,"x_max":746,"o":"m 746 1000 l 746 754 l 517 754 l 517 0 l 229 0 l 229 754 l 0 754 l 0 1000 l 746 1000 z m 546 1354 l 628 1265 l 435 1069 l 310 1069 l 117 1265 l 199 1354 l 372 1201 l 546 1354 z "},"ť":{"ha":569,"x_min":7,"x_max":701,"o":"m 100 289 l 100 289 l 100 543 l 7 543 l 7 699 l 100 736 l 110 914 l 365 965 l 382 951 l 382 736 l 556 736 l 556 543 l 382 543 l 382 344 q 406 244 382 275 q 493 214 431 214 l 493 214 q 556 219 519 214 l 556 219 l 556 6 q 401 -14 481 -14 l 401 -14 q 173 56 246 -14 q 100 289 100 126 z m 563 810 l 563 810 l 454 879 q 532 1015 532 936 l 532 1015 q 521 1090 532 1046 l 521 1090 l 679 1090 q 701 996 701 1042 l 701 996 q 664 886 701 935 q 563 810 626 838 z "},"Ū":{"ha":993,"x_min":69,"x_max":924,"o":"m 69 433 l 69 1000 l 357 1000 l 357 433 q 386 262 357 318 q 500 206 415 206 l 500 206 q 611 264 579 206 q 643 433 643 322 l 643 433 l 643 1000 l 924 1000 l 924 433 q 812 103 924 221 q 496 -14 700 -14 l 496 -14 q 178 102 286 -14 q 69 433 69 218 l 69 433 z m 733 1242 l 733 1100 l 260 1100 l 260 1242 l 733 1242 z "},"ū":{"ha":799,"x_min":56,"x_max":736,"o":"m 454 736 l 736 736 l 736 13 l 588 -11 q 492 3 525 -21 q 460 76 460 28 l 460 76 l 454 76 q 253 -14 375 -14 l 253 -14 q 153 9 193 -14 q 92 75 113 32 q 64 165 72 118 q 56 274 56 213 l 56 274 l 56 736 l 338 736 l 338 303 q 340 251 338 269 q 354 217 342 233 q 390 201 367 201 l 390 201 q 454 232 424 201 l 454 232 l 454 736 z m 619 992 l 619 861 l 174 861 l 174 992 l 619 992 z "},"Ů":{"ha":993,"x_min":69,"x_max":924,"o":"m 69 433 l 69 1000 l 357 1000 l 357 433 q 386 262 357 318 q 500 206 415 206 l 500 206 q 611 264 579 206 q 643 433 643 322 l 643 433 l 643 1000 l 924 1000 l 924 433 q 812 103 924 221 q 496 -14 700 -14 l 496 -14 q 178 102 286 -14 q 69 433 69 218 l 69 433 z m 364 1092 q 313 1211 313 1135 q 364 1331 313 1288 q 496 1374 415 1374 q 628 1331 576 1374 q 679 1211 679 1288 q 628 1092 679 1135 q 496 1049 576 1049 q 364 1092 415 1049 z m 452 1258 q 436 1211 436 1239 q 452 1165 436 1183 q 496 1146 468 1146 q 540 1165 524 1146 q 556 1211 556 1183 q 540 1258 556 1239 q 496 1276 524 1276 q 452 1258 468 1276 z "},"ů":{"ha":799,"x_min":56,"x_max":736,"o":"m 454 736 l 736 736 l 736 13 l 588 -11 q 492 3 525 -21 q 460 76 460 28 l 460 76 l 454 76 q 253 -14 375 -14 l 253 -14 q 153 9 193 -14 q 92 75 113 32 q 64 165 72 118 q 56 274 56 213 l 56 274 l 56 736 l 338 736 l 338 303 q 340 251 338 269 q 354 217 342 233 q 390 201 367 201 l 390 201 q 454 232 424 201 l 454 232 l 454 736 z m 264 853 q 213 972 213 896 q 264 1092 213 1049 q 396 1135 315 1135 q 528 1092 476 1135 q 579 972 579 1049 q 528 853 579 896 q 396 810 476 810 q 264 853 315 810 z m 352 1019 q 336 972 336 1000 q 352 926 336 944 q 396 907 368 907 q 440 926 424 907 q 456 972 456 944 q 440 1019 456 1000 q 396 1038 424 1038 q 352 1019 368 1038 z "},"Ű":{"ha":993,"x_min":69,"x_max":924,"o":"m 69 433 l 69 1000 l 357 1000 l 357 433 q 386 262 357 318 q 500 206 415 206 l 500 206 q 611 264 579 206 q 643 433 643 322 l 643 433 l 643 1000 l 924 1000 l 924 433 q 812 103 924 221 q 496 -14 700 -14 l 496 -14 q 178 102 286 -14 q 69 433 69 218 l 69 433 z m 321 1056 l 233 1142 l 421 1354 l 526 1250 l 321 1056 z m 638 1056 l 550 1142 l 738 1354 l 843 1250 l 638 1056 z "},"ű":{"ha":799,"x_min":56,"x_max":736,"o":"m 454 736 l 736 736 l 736 13 l 588 -11 q 492 3 525 -21 q 460 76 460 28 l 460 76 l 454 76 q 253 -14 375 -14 l 253 -14 q 153 9 193 -14 q 92 75 113 32 q 64 165 72 118 q 56 274 56 213 l 56 274 l 56 736 l 338 736 l 338 303 q 340 251 338 269 q 354 217 342 233 q 390 201 367 201 l 390 201 q 454 232 424 201 l 454 232 l 454 736 z m 244 807 l 154 876 l 328 1131 l 440 1044 l 244 807 z m 526 807 l 436 876 l 610 1131 l 722 1044 l 526 807 z "},"Ų":{"ha":993,"x_min":69,"x_max":924,"o":"m 69 433 l 69 1000 l 357 1000 l 357 433 q 386 262 357 318 q 500 206 415 206 l 500 206 q 611 264 579 206 q 643 433 643 322 l 643 433 l 643 1000 l 924 1000 l 924 433 q 828 121 924 236 q 556 -11 732 6 l 556 -11 q 546 -69 546 -40 l 546 -69 q 615 -153 546 -153 l 615 -153 q 678 -137 644 -153 l 678 -137 l 726 -246 q 590 -286 671 -286 l 590 -286 q 459 -237 506 -286 q 413 -117 413 -187 l 413 -117 q 440 -11 413 -58 l 440 -11 q 164 118 258 3 q 69 433 69 233 l 69 433 z "},"ų":{"ha":799,"x_min":56,"x_max":760,"o":"m 454 736 l 736 736 l 736 13 l 589 -11 q 579 -69 579 -40 l 579 -69 q 649 -153 579 -153 l 649 -153 q 711 -137 678 -153 l 711 -137 l 760 -246 q 624 -286 704 -286 l 624 -286 q 492 -237 539 -286 q 446 -117 446 -187 l 446 -117 q 486 8 446 -49 l 486 8 q 460 76 460 33 l 460 76 l 454 76 q 253 -14 375 -14 l 253 -14 q 153 9 193 -14 q 92 75 113 32 q 64 165 72 118 q 56 274 56 213 l 56 274 l 56 736 l 338 736 l 338 303 q 340 251 338 269 q 354 217 342 233 q 390 201 367 201 l 390 201 q 454 232 424 201 l 454 232 l 454 736 z "},"Ÿ":{"ha":881,"x_min":-14,"x_max":894,"o":"m 894 986 l 578 383 l 578 0 l 290 0 l 290 383 l -14 986 l -14 1000 l 311 1000 l 365 844 l 442 600 l 447 600 q 528 844 492 749 l 528 844 l 586 1000 l 894 1000 l 894 986 z m 163 1110 q 138 1206 138 1136 q 163 1301 138 1275 q 258 1326 189 1326 q 353 1301 328 1326 q 379 1206 379 1275 q 353 1110 379 1136 q 258 1085 328 1085 q 163 1110 189 1085 z m 527 1110 q 501 1206 501 1136 q 527 1301 501 1275 q 622 1326 553 1326 q 717 1301 692 1326 q 743 1206 743 1275 q 717 1110 743 1136 q 622 1085 692 1085 q 527 1110 553 1085 z "},"Ź":{"ha":839,"x_min":14,"x_max":825,"o":"m 46 768 l 46 1000 l 803 1000 l 803 847 l 596 529 q 501 392 554 465 q 415 278 447 319 l 415 278 l 383 238 l 383 232 l 825 232 l 825 0 l 14 0 l 14 153 l 219 469 q 315 607 261 533 q 400 722 368 681 l 400 722 l 433 763 l 433 768 l 46 768 z m 357 1056 l 296 1165 l 581 1354 l 656 1219 l 357 1056 z "},"ź":{"ha":667,"x_min":14,"x_max":653,"o":"m 264 489 l 288 513 l 288 518 l 35 518 l 35 736 l 639 736 l 639 569 l 517 403 q 449 317 488 363 q 389 247 411 272 l 389 247 l 365 224 l 365 218 l 653 218 l 653 0 l 14 0 l 14 167 l 136 333 q 204 419 167 374 q 264 489 242 464 l 264 489 z m 331 807 l 242 883 l 429 1131 l 538 1038 l 331 807 z "},"Ż":{"ha":839,"x_min":14,"x_max":825,"o":"m 46 768 l 46 1000 l 803 1000 l 803 847 l 596 529 q 501 392 554 465 q 415 278 447 319 l 415 278 l 383 238 l 383 232 l 825 232 l 825 0 l 14 0 l 14 153 l 219 469 q 315 607 261 533 q 400 722 368 681 l 400 722 l 433 763 l 433 768 l 46 768 z m 343 1112 q 317 1211 317 1139 q 343 1310 317 1283 q 443 1338 369 1338 q 543 1310 517 1338 q 569 1211 569 1283 q 543 1112 569 1139 q 443 1085 517 1085 q 343 1112 369 1085 z "},"ż":{"ha":667,"x_min":14,"x_max":653,"o":"m 264 489 l 288 513 l 288 518 l 35 518 l 35 736 l 639 736 l 639 569 l 517 403 q 449 317 488 363 q 389 247 411 272 l 389 247 l 365 224 l 365 218 l 653 218 l 653 0 l 14 0 l 14 167 l 136 333 q 204 419 167 374 q 264 489 242 464 l 264 489 z m 248 854 q 221 954 221 881 q 248 1054 221 1028 q 347 1081 275 1081 q 447 1054 419 1081 q 474 954 474 1028 q 447 854 474 881 q 347 828 419 828 q 248 854 275 828 z "},"Ž":{"ha":839,"x_min":14,"x_max":825,"o":"m 46 768 l 46 1000 l 803 1000 l 803 847 l 596 529 q 501 392 554 465 q 415 278 447 319 l 415 278 l 383 238 l 383 232 l 825 232 l 825 0 l 14 0 l 14 153 l 219 469 q 315 607 261 533 q 400 722 368 681 l 400 722 l 433 763 l 433 768 l 46 768 z m 603 1354 l 685 1265 l 492 1069 l 367 1069 l 174 1265 l 256 1354 l 429 1201 l 603 1354 z "},"ž":{"ha":667,"x_min":14,"x_max":653,"o":"m 264 489 l 288 513 l 288 518 l 35 518 l 35 736 l 639 736 l 639 569 l 517 403 q 449 317 488 363 q 389 247 411 272 l 389 247 l 365 224 l 365 218 l 653 218 l 653 0 l 14 0 l 14 167 l 136 333 q 204 419 167 374 q 264 489 242 464 l 264 489 z m 476 1131 l 568 1060 l 399 821 l 274 821 l 104 1060 l 196 1131 l 336 953 l 476 1131 z "},"ƒ":{"ha":881,"x_min":-36,"x_max":879,"o":"m 769 681 l 736 500 l 588 500 l 546 190 q 528 90 538 131 q 493 -10 519 50 q 428 -106 467 -69 q 321 -170 390 -143 q 158 -197 251 -197 l 158 -197 q -36 -149 44 -197 l -36 -149 l 39 47 q 129 29 85 29 l 129 29 q 229 83 194 29 q 279 251 264 138 l 279 251 l 313 500 l 214 500 l 240 639 l 338 681 l 350 767 q 460 951 368 888 q 674 1014 551 1014 l 674 1014 q 879 963 789 1014 l 879 963 l 815 797 q 725 815 778 815 l 725 815 q 622 744 632 815 l 622 744 l 613 681 l 769 681 z "},"Ș":{"ha":853,"x_min":35,"x_max":811,"o":"m 35 79 l 35 79 l 124 278 q 233 237 161 254 q 372 219 306 219 l 372 219 q 518 292 518 219 l 518 292 q 510 323 518 310 q 482 347 503 336 q 442 364 461 357 q 379 384 422 371 q 304 410 336 397 l 304 410 q 213 449 249 431 q 138 501 178 467 q 78 586 97 535 q 58 708 58 638 l 58 708 q 92 851 58 790 q 184 947 126 913 q 310 997 242 981 q 456 1014 378 1014 l 456 1014 q 775 936 624 1014 l 775 936 l 690 746 q 472 788 576 788 l 472 788 q 342 728 342 788 l 342 728 q 351 694 342 708 q 387 666 361 679 q 434 644 413 653 q 501 622 456 636 q 576 596 547 607 l 576 596 q 749 493 686 556 q 811 325 811 431 l 811 325 q 687 72 811 157 q 381 -14 563 -14 l 381 -14 q 35 79 174 -14 z m 393 -319 l 393 -319 l 285 -250 q 363 -114 363 -193 l 363 -114 q 351 -39 363 -83 l 351 -39 l 510 -39 q 532 -133 532 -87 l 532 -133 q 494 -243 532 -194 q 393 -319 457 -292 z "},"ș":{"ha":635,"x_min":28,"x_max":607,"o":"m 28 47 l 28 47 l 89 214 q 249 181 164 181 l 249 181 q 343 222 343 181 l 343 222 q 335 242 343 233 q 311 258 328 251 q 278 269 294 264 q 237 283 263 275 q 192 297 211 290 l 192 297 q 83 369 124 324 q 43 500 43 415 l 43 500 q 133 690 43 631 q 357 750 222 750 l 357 750 q 589 700 485 750 l 589 700 l 522 535 q 375 563 456 563 l 375 563 q 288 531 288 563 l 288 531 q 296 510 288 519 q 321 494 304 501 q 354 481 338 486 q 398 467 371 475 q 443 453 425 460 l 443 453 q 563 379 519 426 q 607 247 607 332 l 607 247 q 509 51 607 115 q 268 -14 411 -14 l 268 -14 q 28 47 119 -14 z m 299 -319 l 299 -319 l 190 -250 q 268 -114 268 -193 l 268 -114 q 257 -39 268 -83 l 257 -39 l 415 -39 q 438 -133 438 -87 l 438 -133 q 400 -243 438 -194 q 299 -319 363 -292 z "},"ˆ":{"ha":556,"x_min":46,"x_max":510,"o":"m 138 807 l 46 878 l 215 1117 l 340 1117 l 510 878 l 418 807 l 278 985 l 138 807 z "},"ˇ":{"ha":556,"x_min":46,"x_max":510,"o":"m 418 1131 l 510 1060 l 340 821 l 215 821 l 46 1060 l 138 1131 l 278 953 l 418 1131 z "},"˘":{"ha":556,"x_min":58,"x_max":497,"o":"m 58 1068 l 58 1068 l 178 1068 q 206 985 185 1014 q 278 956 228 956 q 349 985 328 956 q 378 1068 371 1014 l 378 1068 l 497 1068 q 436 894 497 960 q 278 828 375 828 q 119 894 181 828 q 58 1068 58 960 z "},"˙":{"ha":556,"x_min":151,"x_max":404,"o":"m 178 854 q 151 954 151 881 q 178 1054 151 1028 q 278 1081 206 1081 q 377 1054 350 1081 q 404 954 404 1028 q 377 854 404 881 q 278 828 350 828 q 178 854 206 828 z "},"˚":{"ha":556,"x_min":94,"x_max":461,"o":"m 146 853 q 94 972 94 896 q 146 1092 94 1049 q 278 1135 197 1135 q 410 1092 358 1135 q 461 972 461 1049 q 410 853 461 896 q 278 810 358 810 q 146 853 197 810 z m 234 1019 q 218 972 218 1000 q 234 926 218 944 q 278 907 250 907 q 322 926 306 907 q 338 972 338 944 q 322 1019 338 1000 q 278 1038 306 1038 q 234 1019 250 1038 z "},"˛":{"ha":556,"x_min":121,"x_max":435,"o":"m 168 17 l 168 17 l 276 17 q 254 -69 254 -21 l 254 -69 q 324 -153 254 -153 l 324 -153 q 386 -137 353 -153 l 386 -137 l 435 -246 q 299 -286 379 -286 l 299 -286 q 167 -237 214 -286 q 121 -117 121 -187 l 121 -117 q 168 17 121 -40 z "},"˜":{"ha":556,"x_min":32,"x_max":522,"o":"m 147 821 l 147 821 l 32 821 q 76 972 35 906 q 183 1039 118 1039 l 183 1039 q 258 1019 222 1039 q 319 978 293 999 q 360 958 344 958 l 360 958 q 407 1039 394 958 l 407 1039 l 522 1039 q 478 887 519 953 q 371 821 438 821 l 371 821 q 264 861 322 821 q 194 901 206 901 l 194 901 q 147 821 158 901 z "},"˝":{"ha":556,"x_min":-6,"x_max":563,"o":"m 85 807 l -6 876 l 168 1131 l 281 1044 l 85 807 z m 367 807 l 276 876 l 450 1131 l 563 1044 l 367 807 z "},"Ё":{"ha":764,"x_min":76,"x_max":736,"o":"m 124 1110 q 99 1206 99 1136 q 124 1301 99 1275 q 219 1326 150 1326 q 315 1301 289 1326 q 340 1206 340 1275 q 315 1110 340 1136 q 219 1085 289 1085 q 124 1110 150 1085 z m 488 1110 q 463 1206 463 1136 q 488 1301 463 1275 q 583 1326 514 1326 q 678 1301 653 1326 q 704 1206 704 1275 q 678 1110 704 1136 q 583 1085 653 1085 q 488 1110 514 1085 z m 736 0 l 76 0 l 76 1000 l 708 1000 l 708 771 l 364 771 l 364 621 l 640 621 l 640 404 l 364 404 l 364 229 l 736 229 l 736 0 z "},"Ђ":{"ha":1086,"x_min":0,"x_max":1044,"o":"m 229 0 l 229 754 l 0 754 l 0 1000 l 871 1000 l 871 754 l 517 754 l 517 593 q 686 615 604 615 l 686 615 q 951 515 858 615 q 1044 242 1044 415 l 1044 242 q 923 -98 1044 28 q 594 -224 801 -224 l 594 -224 l 543 -15 q 699 51 650 -4 q 747 222 747 106 l 747 222 q 711 358 747 317 q 600 400 675 400 l 600 400 q 517 389 557 400 l 517 389 l 517 0 l 229 0 z "},"Ѓ":{"ha":683,"x_min":76,"x_max":683,"o":"m 683 1000 l 683 754 l 364 754 l 364 0 l 76 0 l 76 1000 l 683 1000 z m 296 1056 l 235 1165 l 519 1354 l 594 1219 l 296 1056 z "},"Є":{"ha":867,"x_min":42,"x_max":853,"o":"m 771 279 l 771 279 l 853 82 q 519 -14 713 -14 l 519 -14 q 163 122 285 -14 q 42 492 42 257 l 42 492 q 174 867 42 721 q 532 1014 306 1014 l 532 1014 q 836 936 700 1014 l 836 936 l 751 746 q 564 785 658 785 l 564 785 q 418 747 472 785 q 349 618 364 708 l 349 618 l 696 636 l 696 403 l 342 421 q 551 222 350 222 l 551 222 q 771 279 676 222 z "},"Ѕ":{"ha":853,"x_min":35,"x_max":811,"o":"m 35 79 l 35 79 l 124 278 q 233 237 161 254 q 372 219 306 219 l 372 219 q 518 292 518 219 l 518 292 q 510 323 518 310 q 482 347 503 336 q 442 364 461 357 q 379 384 422 371 q 304 410 336 397 l 304 410 q 213 449 249 431 q 138 501 178 467 q 78 586 97 535 q 58 708 58 638 l 58 708 q 92 851 58 790 q 184 947 126 913 q 310 997 242 981 q 456 1014 378 1014 l 456 1014 q 775 936 624 1014 l 775 936 l 690 746 q 472 788 576 788 l 472 788 q 342 728 342 788 l 342 728 q 351 694 342 708 q 387 666 361 679 q 434 644 413 653 q 501 622 456 636 q 576 596 547 607 l 576 596 q 749 493 686 556 q 811 325 811 431 l 811 325 q 687 72 811 157 q 381 -14 563 -14 l 381 -14 q 35 79 174 -14 z "},"І":{"ha":440,"x_min":76,"x_max":364,"o":"m 76 0 l 76 1000 l 364 1000 l 364 0 l 76 0 z "},"Ї":{"ha":440,"x_min":-83,"x_max":522,"o":"m 76 0 l 76 1000 l 364 1000 l 364 0 l 76 0 z m -57 1110 q -83 1206 -83 1136 q -57 1301 -83 1275 q 38 1326 -31 1326 q 132 1301 106 1326 q 158 1206 158 1275 q 132 1110 158 1136 q 38 1085 106 1085 q -57 1110 -31 1085 z m 307 1110 q 281 1206 281 1136 q 307 1301 281 1275 q 401 1326 333 1326 q 496 1301 469 1326 q 522 1206 522 1275 q 496 1110 522 1136 q 401 1085 469 1085 q 307 1110 333 1085 z "},"Ј":{"ha":486,"x_min":-76,"x_max":410,"o":"m 122 236 l 122 236 l 122 1000 l 410 1000 l 410 142 q 297 -119 410 -28 q -24 -224 183 -210 l -24 -224 l -76 -14 q 81 72 40 15 q 122 236 122 128 z "},"Љ":{"ha":1418,"x_min":-7,"x_max":1390,"o":"m 942 0 l 660 0 l 660 754 l 497 754 l 479 425 q 444 258 474 333 q 375 138 414 183 q 283 59 336 93 q 192 11 231 25 q 111 -14 153 -3 l 111 -14 l -7 231 q 157 330 111 265 q 208 499 203 394 l 208 499 l 235 1000 l 947 1000 l 947 646 q 1042 644 1003 646 q 1130 635 1081 642 q 1214 615 1179 628 q 1284 578 1249 601 q 1341 521 1319 554 q 1376 438 1363 488 q 1390 324 1390 388 l 1390 324 q 1376 211 1390 261 q 1340 128 1363 161 q 1282 70 1318 94 q 1210 33 1246 46 q 1126 12 1175 19 q 1036 2 1076 4 q 942 0 996 0 l 942 0 z m 1064 253 q 1093 324 1093 271 q 1064 393 1093 376 q 960 410 1035 410 l 960 410 l 940 410 l 940 236 l 960 236 q 1064 253 1035 236 z "},"Њ":{"ha":1388,"x_min":76,"x_max":1360,"o":"m 629 400 l 364 400 l 364 0 l 76 0 l 76 1000 l 364 1000 l 364 646 l 629 646 l 629 1000 l 917 1000 l 917 646 q 1011 644 972 646 q 1099 635 1050 642 q 1183 615 1149 628 q 1253 578 1218 601 q 1310 521 1289 554 q 1346 438 1332 488 q 1360 324 1360 388 l 1360 324 q 1346 211 1360 261 q 1310 128 1332 161 q 1251 70 1288 94 q 1180 33 1215 46 q 1095 12 1144 19 q 1006 2 1046 4 q 911 0 965 0 l 911 0 l 629 0 l 629 400 z m 1033 253 q 1063 324 1063 271 q 1033 393 1063 376 q 929 410 1004 410 l 929 410 l 910 410 l 910 236 l 929 236 q 1033 253 1004 236 z "},"Ћ":{"ha":1107,"x_min":0,"x_max":1044,"o":"m 229 0 l 229 754 l 0 754 l 0 1000 l 871 1000 l 871 754 l 517 754 l 517 593 q 699 615 603 615 l 699 615 q 833 599 772 615 q 942 550 893 583 q 1017 457 990 517 q 1044 315 1044 397 l 1044 315 l 1044 0 l 757 0 l 757 229 q 753 296 757 271 q 738 348 750 321 q 695 388 725 375 q 618 400 665 400 l 618 400 q 517 389 568 400 l 517 389 l 517 0 l 229 0 z "},"Ќ":{"ha":954,"x_min":76,"x_max":954,"o":"m 954 14 l 954 0 l 626 0 l 371 504 l 635 1000 l 915 1000 l 915 986 l 672 544 l 954 14 z m 76 0 l 76 1000 l 364 1000 l 364 0 l 76 0 z m 411 1056 l 350 1165 l 635 1354 l 710 1219 l 411 1056 z "},"Ў":{"ha":918,"x_min":7,"x_max":946,"o":"m 107 -8 l 107 -8 l 107 254 q 185 247 144 247 l 185 247 q 340 310 292 247 l 340 310 l 7 986 l 7 1000 l 318 1000 l 371 879 q 425 745 396 821 q 471 622 454 669 l 471 622 l 488 576 l 493 576 q 606 879 549 749 l 606 879 l 658 1000 l 946 1000 l 946 986 l 664 367 q 556 169 608 246 q 445 53 503 92 q 333 0 388 14 q 201 -14 278 -14 l 201 -14 q 107 -8 150 -14 z m 233 1322 l 233 1322 l 378 1322 q 476 1208 393 1208 q 575 1322 560 1208 l 575 1322 l 719 1322 q 644 1140 714 1200 q 476 1079 575 1079 q 308 1140 378 1079 q 233 1322 239 1200 z "},"Џ":{"ha":1000,"x_min":76,"x_max":924,"o":"m 76 1000 l 364 1000 l 364 246 l 636 246 l 636 1000 l 924 1000 l 924 0 l 629 0 l 621 -232 l 379 -232 l 371 0 l 76 0 l 76 1000 z "},"А":{"ha":932,"x_min":0,"x_max":932,"o":"m 932 0 l 633 0 l 575 210 l 343 210 l 285 0 l 0 0 l 0 14 l 275 1000 l 657 1000 l 932 14 l 932 0 z m 408 518 l 385 419 l 533 419 l 510 518 q 484 647 496 578 q 467 756 472 717 l 467 756 l 463 796 l 457 796 q 408 518 440 653 l 408 518 z "},"Б":{"ha":893,"x_min":76,"x_max":858,"o":"m 388 0 l 76 0 l 76 1000 l 753 1000 l 753 754 l 364 754 l 364 606 l 388 606 q 748 540 638 606 q 858 310 858 474 l 858 310 q 746 72 858 144 q 388 0 633 0 l 388 0 z m 388 401 l 364 401 l 364 204 l 388 204 q 525 223 489 204 q 561 303 561 242 q 525 383 561 364 q 388 401 489 401 l 388 401 z "},"В":{"ha":900,"x_min":76,"x_max":858,"o":"m 397 796 l 364 796 l 364 621 l 397 621 q 462 625 440 621 q 499 649 483 629 q 515 708 515 668 q 499 768 515 749 q 462 792 483 788 q 397 796 440 796 l 397 796 z m 390 426 l 390 426 l 364 426 l 364 204 l 390 204 q 454 206 432 204 q 502 213 476 207 q 540 230 528 218 q 560 263 551 242 q 568 315 568 283 l 568 315 q 529 408 568 389 q 390 426 490 426 z m 388 0 l 76 0 l 76 1000 l 361 1000 q 449 999 413 1000 q 535 992 486 997 q 619 978 585 988 q 690 950 653 968 q 748 907 726 932 q 784 844 769 882 q 799 757 799 806 l 799 757 q 615 543 799 582 l 615 543 l 615 538 q 793 467 728 526 q 858 310 858 407 l 858 310 q 815 153 858 218 q 699 58 772 89 q 550 13 625 26 q 388 0 475 0 l 388 0 z "},"Г":{"ha":683,"x_min":76,"x_max":683,"o":"m 683 1000 l 683 754 l 364 754 l 364 0 l 76 0 l 76 1000 l 683 1000 z "},"Д":{"ha":1082,"x_min":7,"x_max":1054,"o":"m 7 -232 l 7 246 l 138 246 q 203 719 189 439 l 203 719 l 218 1000 l 917 1000 l 917 246 l 1054 246 l 1054 -232 l 813 -232 l 799 0 l 263 0 l 249 -232 l 7 -232 z m 629 246 l 629 754 l 479 754 l 474 644 q 424 246 463 414 l 424 246 l 629 246 z "},"Е":{"ha":764,"x_min":76,"x_max":736,"o":"m 736 0 l 76 0 l 76 1000 l 708 1000 l 708 771 l 364 771 l 364 621 l 640 621 l 640 404 l 364 404 l 364 229 l 736 229 l 736 0 z "},"Ж":{"ha":1468,"x_min":0,"x_max":1468,"o":"m 1468 14 l 1468 0 l 1140 0 l 885 504 l 1149 1000 l 1429 1000 l 1429 986 l 1186 544 l 1468 14 z m 590 0 l 590 1000 l 878 1000 l 878 0 l 590 0 z m 583 504 l 328 0 l 0 0 l 0 14 l 282 544 l 39 986 l 39 1000 l 319 1000 l 583 504 z "},"З":{"ha":794,"x_min":14,"x_max":753,"o":"m 103 743 l 103 743 l 44 940 q 401 1014 217 1014 l 401 1014 q 627 956 539 1014 q 715 772 715 899 l 715 772 q 649 608 715 671 q 478 539 583 544 l 478 539 l 478 533 q 678 467 604 533 q 753 293 753 400 l 753 293 q 632 67 753 147 q 346 -14 511 -14 l 346 -14 q 14 75 144 -14 l 14 75 l 96 272 q 192 239 128 256 q 314 222 257 222 l 314 222 q 456 325 456 222 l 456 325 q 443 372 456 354 q 404 398 431 390 q 356 408 378 406 q 299 410 335 410 l 299 410 l 194 410 l 194 622 l 275 622 q 381 640 343 622 q 418 708 418 658 l 418 708 q 299 785 418 785 l 299 785 q 103 743 213 785 z "},"И":{"ha":1035,"x_min":76,"x_max":958,"o":"m 514 328 l 364 168 l 364 0 l 76 0 l 76 1000 l 364 1000 l 364 767 l 357 515 l 363 514 q 521 692 440 607 l 521 692 l 671 851 l 671 1000 l 958 1000 l 958 0 l 671 0 l 671 243 l 678 504 l 672 506 q 514 328 592 410 l 514 328 z "},"Й":{"ha":1035,"x_min":76,"x_max":958,"o":"m 514 328 l 364 168 l 364 0 l 76 0 l 76 1000 l 364 1000 l 364 767 l 357 515 l 363 514 q 521 692 440 607 l 521 692 l 671 851 l 671 1000 l 958 1000 l 958 0 l 671 0 l 671 243 l 678 504 l 672 506 q 514 328 592 410 l 514 328 z m 274 1322 l 274 1322 l 418 1322 q 517 1208 433 1208 q 615 1322 600 1208 l 615 1322 l 760 1322 q 685 1140 754 1200 q 517 1079 615 1079 q 349 1140 418 1079 q 274 1322 279 1200 z "},"К":{"ha":954,"x_min":76,"x_max":954,"o":"m 954 14 l 954 0 l 626 0 l 371 504 l 635 1000 l 915 1000 l 915 986 l 672 544 l 954 14 z m 76 0 l 76 1000 l 364 1000 l 364 0 l 76 0 z "},"Л":{"ha":1038,"x_min":-7,"x_max":961,"o":"m 111 -14 l 111 -14 l -7 231 q 157 330 111 265 q 208 499 203 394 l 208 499 l 235 1000 l 961 1000 l 961 0 l 674 0 l 674 754 l 497 754 l 479 425 q 444 258 474 333 q 375 138 414 183 q 283 59 336 93 q 192 11 231 25 q 111 -14 153 -3 z "},"М":{"ha":1294,"x_min":69,"x_max":1225,"o":"m 688 588 l 688 588 l 753 1000 l 1178 1000 l 1225 0 l 951 0 l 929 489 l 922 808 l 917 808 q 871 489 882 544 l 871 489 l 782 14 l 490 14 l 408 489 l 365 808 l 360 808 q 351 489 354 544 l 351 489 l 329 0 l 69 0 l 117 1000 l 558 1000 l 615 588 l 646 206 l 651 206 q 688 588 679 533 z "},"Н":{"ha":1021,"x_min":76,"x_max":944,"o":"m 657 400 l 364 400 l 364 0 l 76 0 l 76 1000 l 364 1000 l 364 646 l 657 646 l 657 1000 l 944 1000 l 944 0 l 657 0 l 657 400 z "},"О":{"ha":1069,"x_min":42,"x_max":1028,"o":"m 175 119 q 42 500 42 253 q 175 881 42 747 q 535 1014 308 1014 q 894 881 761 1014 q 1028 500 1028 747 q 894 119 1028 253 q 535 -14 761 -14 q 175 119 308 -14 z m 683 291 q 731 500 731 374 q 683 709 731 626 q 535 792 635 792 q 387 709 435 792 q 339 500 339 626 q 387 291 339 374 q 535 208 435 208 q 683 291 635 208 z "},"П":{"ha":1000,"x_min":76,"x_max":924,"o":"m 636 754 l 364 754 l 364 0 l 76 0 l 76 1000 l 924 1000 l 924 0 l 636 0 l 636 754 z "},"Р":{"ha":874,"x_min":76,"x_max":860,"o":"m 551 608 q 563 675 563 633 q 551 742 563 717 q 514 779 540 768 q 463 793 488 790 q 392 796 439 796 l 392 796 l 364 796 l 364 554 l 392 554 q 463 557 439 554 q 514 571 488 560 q 551 608 540 582 z m 401 350 l 401 350 l 364 350 l 364 0 l 76 0 l 76 1000 l 401 1000 q 751 923 642 1000 q 860 675 860 846 l 860 675 q 750 428 860 507 q 401 350 640 350 z "},"С":{"ha":843,"x_min":42,"x_max":843,"o":"m 761 279 l 761 279 l 843 82 q 517 -14 706 -14 l 517 -14 q 162 122 282 -14 q 42 488 42 258 l 42 488 q 174 865 42 715 q 536 1014 307 1014 l 536 1014 q 829 936 700 1014 l 829 936 l 744 746 q 575 785 665 785 l 575 785 q 392 715 446 785 q 339 504 339 646 l 339 504 q 388 292 339 361 q 561 222 438 222 l 561 222 q 761 279 671 222 z "},"Т":{"ha":746,"x_min":0,"x_max":746,"o":"m 746 1000 l 746 754 l 517 754 l 517 0 l 229 0 l 229 754 l 0 754 l 0 1000 l 746 1000 z "},"У":{"ha":918,"x_min":7,"x_max":946,"o":"m 107 -8 l 107 -8 l 107 254 q 185 247 144 247 l 185 247 q 340 310 292 247 l 340 310 l 7 986 l 7 1000 l 318 1000 l 371 879 q 425 745 396 821 q 471 622 454 669 l 471 622 l 488 576 l 493 576 q 606 879 549 749 l 606 879 l 658 1000 l 946 1000 l 946 986 l 664 367 q 556 169 608 246 q 445 53 503 92 q 333 0 388 14 q 201 -14 278 -14 l 201 -14 q 107 -8 150 -14 z "},"Ф":{"ha":1218,"x_min":42,"x_max":1176,"o":"m 465 914 l 465 1028 l 753 1028 l 753 914 q 1176 503 1176 861 l 1176 503 q 753 89 1176 142 l 753 89 l 753 -28 l 465 -28 l 465 89 q 155 214 268 114 q 42 503 42 314 l 42 503 q 465 914 42 861 l 465 914 z m 363 658 q 325 503 325 608 q 363 348 325 397 q 472 285 400 299 l 472 285 l 472 721 q 363 658 400 707 z m 856 348 q 893 503 893 397 q 856 658 893 608 q 746 721 818 707 l 746 721 l 746 285 q 856 348 818 299 z "},"Х":{"ha":961,"x_min":0,"x_max":961,"o":"m 0 14 l 315 513 l 21 986 l 21 1000 l 356 1000 l 401 903 l 488 699 l 493 699 q 581 903 536 811 l 581 903 l 628 1000 l 940 1000 l 940 986 l 644 522 l 961 14 l 961 0 l 626 0 l 579 97 l 474 333 l 468 333 q 363 97 410 189 l 363 97 l 313 0 l 0 0 l 0 14 z "},"Ц":{"ha":1089,"x_min":76,"x_max":1061,"o":"m 76 1000 l 364 1000 l 364 246 l 636 246 l 636 1000 l 924 1000 l 924 246 l 1061 246 l 1061 -232 l 819 -232 l 806 0 l 76 0 l 76 1000 z "},"Ч":{"ha":954,"x_min":63,"x_max":878,"o":"m 63 646 l 63 646 l 63 1000 l 350 1000 l 350 732 q 376 590 350 636 q 492 544 403 544 l 492 544 q 590 556 543 544 l 590 556 l 590 1000 l 878 1000 l 878 0 l 590 0 l 590 351 q 414 329 501 329 l 414 329 q 63 646 63 329 z "},"Ш":{"ha":1453,"x_min":76,"x_max":1376,"o":"m 76 1000 l 357 1000 l 357 246 l 586 246 l 586 986 l 867 986 l 867 246 l 1096 246 l 1096 1000 l 1376 1000 l 1376 0 l 76 0 l 76 1000 z "},"Щ":{"ha":1542,"x_min":76,"x_max":1514,"o":"m 76 1000 l 357 1000 l 357 246 l 586 246 l 586 986 l 867 986 l 867 246 l 1096 246 l 1096 1000 l 1376 1000 l 1376 246 l 1514 246 l 1514 -232 l 1272 -232 l 1258 0 l 76 0 l 76 1000 z "},"Ъ":{"ha":988,"x_min":0,"x_max":960,"o":"m 229 754 l 0 754 l 0 1000 l 517 1000 l 517 646 q 611 644 572 646 q 699 635 650 642 q 783 615 749 628 q 853 578 818 601 q 910 521 889 554 q 946 438 932 488 q 960 324 960 388 l 960 324 q 946 211 960 261 q 910 128 932 161 q 851 70 888 94 q 780 33 815 46 q 695 12 744 19 q 606 2 646 4 q 511 0 565 0 l 511 0 l 229 0 l 229 754 z m 633 253 q 663 324 663 271 q 633 393 663 376 q 529 410 604 410 l 529 410 l 510 410 l 510 236 l 529 236 q 633 253 604 236 z "},"Ы":{"ha":1275,"x_min":76,"x_max":1199,"o":"m 358 0 l 76 0 l 76 1000 l 364 1000 l 364 646 q 458 644 419 646 q 547 635 497 642 q 631 615 596 628 q 701 578 665 601 q 758 521 736 554 q 793 438 779 488 q 807 324 807 388 l 807 324 q 793 211 807 261 q 757 128 779 161 q 699 70 735 94 q 627 33 663 46 q 542 12 592 19 q 453 2 493 4 q 358 0 413 0 l 358 0 z m 481 253 q 510 324 510 271 q 481 393 510 376 q 376 410 451 410 l 376 410 l 357 410 l 357 236 l 376 236 q 481 253 451 236 z m 911 0 l 911 1000 l 1199 1000 l 1199 0 l 911 0 z "},"Ь":{"ha":835,"x_min":76,"x_max":807,"o":"m 358 0 l 76 0 l 76 1000 l 364 1000 l 364 646 q 458 644 419 646 q 547 635 497 642 q 631 615 596 628 q 701 578 665 601 q 758 521 736 554 q 793 438 779 488 q 807 324 807 388 l 807 324 q 793 211 807 261 q 757 128 779 161 q 699 70 735 94 q 627 33 663 46 q 542 12 592 19 q 453 2 493 4 q 358 0 413 0 l 358 0 z m 481 253 q 510 324 510 271 q 481 393 510 376 q 376 410 451 410 l 376 410 l 357 410 l 357 236 l 376 236 q 481 253 451 236 z "},"Э":{"ha":867,"x_min":14,"x_max":825,"o":"m 14 82 l 14 82 l 96 279 q 308 222 200 222 l 308 222 q 524 421 500 222 l 524 421 l 171 403 l 171 636 l 524 618 q 465 747 517 708 q 322 785 414 785 l 322 785 q 117 740 225 785 l 117 740 l 35 928 q 378 1014 204 1014 l 378 1014 q 705 880 585 1014 q 825 515 825 746 l 825 515 q 692 127 825 268 q 342 -14 558 -14 l 342 -14 q 160 13 247 -14 q 14 82 72 40 z "},"Ю":{"ha":1449,"x_min":76,"x_max":1407,"o":"m 76 0 l 76 1000 l 364 1000 l 364 643 l 492 643 q 645 919 526 824 q 943 1014 764 1014 l 943 1014 q 1282 881 1157 1014 q 1407 500 1407 747 q 1282 119 1407 253 q 943 -14 1157 -14 l 943 -14 q 630 93 751 -14 q 485 403 508 200 l 485 403 l 364 403 l 364 0 l 76 0 z m 1070 290 q 1110 500 1110 372 q 1070 710 1110 628 q 943 792 1031 792 q 816 710 856 792 q 776 500 776 628 q 816 290 776 372 q 943 208 856 208 q 1070 290 1031 208 z "},"Я":{"ha":954,"x_min":0,"x_max":878,"o":"m 878 0 l 590 0 l 590 360 l 574 360 l 338 0 l 0 0 l 0 14 l 172 271 q 360 399 250 386 l 360 399 l 360 404 q 168 491 242 414 q 94 681 94 568 l 94 681 q 136 836 94 771 q 250 935 178 901 q 402 985 322 969 q 575 1000 482 1000 l 575 1000 l 878 1000 l 878 0 z m 405 744 q 392 681 392 719 q 405 617 392 642 q 445 581 418 592 q 497 567 472 569 q 563 564 522 564 l 563 564 l 590 564 l 590 796 l 563 796 q 497 793 522 796 q 445 779 472 790 q 405 744 418 768 z "},"а":{"ha":744,"x_min":28,"x_max":689,"o":"m 124 519 l 74 682 q 394 750 238 750 l 394 750 q 613 692 538 750 q 689 497 689 633 l 689 497 l 689 13 l 540 -11 q 449 1 486 -21 q 413 76 413 22 l 413 76 l 407 76 q 224 -14 328 -14 l 224 -14 q 79 47 131 -14 q 28 207 28 107 l 28 207 q 51 321 28 272 q 108 396 74 369 q 195 439 142 422 q 296 461 249 456 q 407 468 343 467 l 407 468 q 382 541 407 524 q 314 558 357 558 l 314 558 q 124 519 229 558 l 124 519 z m 414 228 l 414 228 l 414 313 l 389 313 q 320 297 340 313 q 300 246 300 281 l 300 246 q 342 185 300 185 l 342 185 q 414 228 385 185 z "},"б":{"ha":831,"x_min":49,"x_max":803,"o":"m 490 214 q 510 328 510 247 q 490 442 510 408 q 426 475 469 475 q 363 442 383 475 q 343 328 343 408 q 363 214 343 247 q 426 181 383 181 q 490 214 469 181 z m 803 332 l 803 332 q 701 80 803 174 q 428 -14 599 -14 l 428 -14 q 253 22 328 -14 q 135 123 179 58 q 70 269 92 188 q 49 451 49 351 l 49 451 q 83 722 49 589 q 193 922 117 854 l 193 922 q 324 997 251 975 q 513 1032 397 1018 l 513 1032 l 661 1049 q 724 1058 704 1053 l 724 1058 l 724 878 q 706 822 724 840 q 649 800 688 804 l 649 800 l 457 779 q 384 769 411 774 q 321 749 357 764 q 263 710 285 733 q 222 644 242 686 q 192 542 201 601 l 192 542 l 197 538 q 317 635 243 601 q 474 669 390 669 l 474 669 q 713 578 624 669 q 803 332 803 486 z "},"в":{"ha":788,"x_min":63,"x_max":760,"o":"m 385 560 l 385 560 l 338 560 l 338 454 l 385 454 q 442 507 442 454 q 385 560 442 560 z m 481 242 l 481 242 q 468 285 481 269 q 442 303 456 300 q 406 306 428 306 l 406 306 l 338 306 l 338 176 l 406 176 q 481 242 481 176 z m 397 0 l 63 0 l 63 736 l 397 736 q 505 731 458 736 q 606 708 551 725 q 690 653 660 692 q 721 556 721 614 l 721 556 q 673 442 721 488 q 556 389 625 396 l 556 389 l 556 383 q 701 335 643 381 q 760 208 760 289 l 760 208 q 729 98 760 142 q 642 34 699 54 q 529 7 585 14 q 397 0 474 0 l 397 0 z "},"г":{"ha":563,"x_min":63,"x_max":563,"o":"m 563 736 l 563 518 l 344 518 l 344 0 l 63 0 l 63 736 l 563 736 z "},"д":{"ha":904,"x_min":0,"x_max":897,"o":"m 353 218 l 353 218 l 507 218 l 507 518 l 397 518 l 389 404 q 353 218 379 288 z m 789 736 l 789 218 l 897 218 l 897 -181 l 657 -181 l 643 0 l 254 0 l 240 -181 l 0 -181 l 0 218 l 92 218 q 135 346 122 285 q 158 529 149 407 l 158 529 l 175 736 l 789 736 z "},"е":{"ha":760,"x_min":28,"x_max":725,"o":"m 715 319 l 715 319 l 310 319 q 490 188 326 188 l 490 188 q 647 217 564 188 l 647 217 l 708 47 q 419 -14 578 -14 l 419 -14 q 131 85 235 -14 q 28 368 28 183 l 28 368 q 126 648 28 546 q 400 750 225 750 l 400 750 q 636 663 547 750 q 725 429 725 576 l 725 429 q 715 319 725 375 z m 308 449 l 308 449 l 456 468 q 438 552 456 521 q 390 583 421 583 l 390 583 q 333 544 354 583 q 308 449 311 506 z "},"ж":{"ha":1249,"x_min":7,"x_max":1242,"o":"m 1242 14 l 1242 0 l 933 0 l 772 376 l 961 736 l 1218 736 l 1218 722 l 1058 418 l 1242 14 z m 765 0 l 483 0 l 483 736 l 765 736 l 765 0 z m 476 376 l 315 0 l 7 0 l 7 14 l 190 418 l 31 722 l 31 736 l 288 736 l 476 376 z "},"з":{"ha":706,"x_min":0,"x_max":678,"o":"m 0 58 l 0 58 l 61 228 q 155 199 88 214 q 279 183 222 183 l 279 183 q 385 246 385 183 l 385 246 q 289 301 385 301 l 289 301 l 183 301 l 183 460 l 257 460 q 363 513 363 460 q 263 565 363 565 l 263 565 q 85 531 161 565 l 85 531 l 28 681 q 353 750 182 750 l 353 750 q 656 558 656 750 l 656 558 q 514 392 656 428 l 514 392 l 514 386 q 633 331 589 374 q 678 221 678 289 q 644 103 678 153 q 551 31 610 54 q 434 -3 493 7 q 308 -14 375 -14 l 308 -14 q 0 58 143 -14 z "},"и":{"ha":819,"x_min":63,"x_max":757,"o":"m 410 213 l 410 213 l 344 125 l 344 0 l 63 0 l 63 736 l 344 736 l 344 594 l 339 436 l 344 435 q 410 531 378 489 l 410 531 l 475 618 l 475 736 l 757 736 l 757 0 l 475 0 l 475 146 l 481 307 l 475 308 q 410 213 443 257 z "},"й":{"ha":819,"x_min":63,"x_max":757,"o":"m 410 213 l 410 213 l 344 125 l 344 0 l 63 0 l 63 736 l 344 736 l 344 594 l 339 436 l 344 435 q 410 531 378 489 l 410 531 l 475 618 l 475 736 l 757 736 l 757 0 l 475 0 l 475 146 l 481 307 l 475 308 q 410 213 443 257 z m 189 1068 l 189 1068 l 318 1068 q 410 947 326 947 q 501 1068 493 947 l 501 1068 l 631 1068 q 567 894 631 960 q 410 828 503 828 q 253 894 317 828 q 189 1068 189 960 z "},"к":{"ha":828,"x_min":63,"x_max":821,"o":"m 821 14 l 821 0 l 513 0 l 351 376 l 540 736 l 797 736 l 797 722 l 638 418 l 821 14 z m 344 0 l 63 0 l 63 736 l 344 736 l 344 0 z "},"л":{"ha":861,"x_min":0,"x_max":799,"o":"m 146 397 l 146 397 l 175 736 l 799 736 l 799 0 l 517 0 l 517 518 l 426 518 l 407 296 q 99 -21 381 -7 l 99 -21 l 0 199 q 76 225 46 204 q 119 279 106 246 q 138 337 133 313 q 146 397 143 361 z "},"м":{"ha":1107,"x_min":42,"x_max":1044,"o":"m 669 736 l 1044 736 l 1044 0 l 771 0 l 771 521 l 763 521 q 718 269 750 382 l 718 269 l 646 14 l 424 14 l 383 268 q 369 381 375 318 q 361 483 363 444 l 361 483 l 358 521 l 353 521 l 299 0 l 42 0 l 124 736 l 499 736 l 533 514 q 546 413 540 471 q 553 318 551 354 l 553 318 l 556 282 l 561 282 q 610 514 583 415 l 610 514 l 669 736 z "},"н":{"ha":813,"x_min":63,"x_max":750,"o":"m 468 0 l 468 281 l 344 281 l 344 0 l 63 0 l 63 736 l 344 736 l 344 499 l 468 499 l 468 736 l 750 736 l 750 0 l 468 0 z "},"о":{"ha":817,"x_min":28,"x_max":789,"o":"m 408 181 q 496 368 496 181 q 408 556 496 556 q 321 368 321 556 q 408 181 321 181 z m 688 649 q 789 368 789 549 q 688 87 789 188 q 408 -14 588 -14 q 128 87 229 -14 q 28 368 28 188 q 128 649 28 549 q 408 750 229 750 q 688 649 588 750 z "},"п":{"ha":806,"x_min":63,"x_max":743,"o":"m 461 0 l 461 518 l 344 518 l 344 0 l 63 0 l 63 736 l 743 736 l 743 0 l 461 0 z "},"р":{"ha":835,"x_min":63,"x_max":807,"o":"m 344 504 l 344 504 l 344 181 q 379 178 369 178 l 379 178 q 485 226 457 178 q 514 356 514 274 l 514 356 q 422 535 514 535 l 422 535 q 344 504 382 535 z m 344 -278 l 63 -278 l 63 724 l 211 747 q 306 734 272 757 q 339 660 339 711 l 339 660 l 344 660 q 549 750 442 750 l 549 750 q 698 695 638 750 q 783 565 758 640 q 807 403 807 489 l 807 403 q 709 99 807 213 q 435 -14 611 -14 l 435 -14 q 344 -7 389 -14 l 344 -7 l 344 -278 z "},"с":{"ha":635,"x_min":28,"x_max":635,"o":"m 574 224 l 574 224 l 635 47 q 378 -14 519 -14 l 378 -14 q 122 86 217 -14 q 28 353 28 186 l 28 353 q 126 638 28 525 q 392 750 224 750 l 392 750 q 614 700 511 750 l 614 700 l 546 532 q 450 549 496 549 l 450 549 q 321 372 321 549 l 321 372 q 350 241 321 288 q 454 194 379 194 l 454 194 q 574 224 521 194 z "},"т":{"ha":649,"x_min":0,"x_max":649,"o":"m 183 518 l 0 518 l 0 736 l 649 736 l 649 518 l 465 518 l 465 0 l 183 0 l 183 518 z "},"у":{"ha":775,"x_min":0,"x_max":775,"o":"m 275 40 l 275 40 l 0 722 l 0 736 l 301 736 l 356 536 q 381 424 368 488 q 400 322 394 361 l 400 322 l 407 282 l 413 282 q 453 539 431 428 l 453 539 l 492 736 l 775 736 l 775 722 l 571 118 q 135 -292 432 -292 l 135 -292 q 99 -290 111 -292 l 99 -290 l 43 -68 l 50 -56 q 107 -61 76 -61 l 107 -61 q 275 40 219 -61 z "},"ф":{"ha":1201,"x_min":28,"x_max":1174,"o":"m 460 747 l 460 747 l 460 1029 l 608 1053 q 742 944 742 1074 l 742 944 l 742 660 l 747 660 q 931 750 819 750 l 931 750 q 1048 719 999 750 q 1124 635 1097 688 q 1162 524 1150 582 q 1174 403 1174 467 l 1174 403 q 1081 98 1174 210 q 808 -14 988 -14 l 808 -14 q 742 -7 774 -14 l 742 -7 l 742 -278 l 460 -278 l 460 76 l 454 76 q 268 -14 382 -14 l 268 -14 q 128 38 183 -14 q 50 165 72 90 q 28 331 28 239 l 28 331 q 128 643 28 536 q 408 750 228 750 l 408 750 q 460 747 438 750 z m 467 232 l 467 232 l 467 574 q 447 575 457 575 l 447 575 q 314 374 314 575 l 314 374 q 394 201 314 201 l 394 201 q 467 232 436 201 z m 735 504 l 735 504 l 735 167 q 768 164 751 164 l 768 164 q 888 353 888 164 l 888 353 q 810 535 888 535 l 810 535 q 735 504 771 535 z "},"х":{"ha":794,"x_min":0,"x_max":794,"o":"m 0 14 l 236 376 l 7 722 l 7 736 l 321 736 l 360 647 l 410 507 l 415 507 q 464 647 438 586 l 464 647 l 503 736 l 788 736 l 788 722 l 557 371 l 794 14 l 794 0 l 478 0 l 433 101 q 409 166 421 132 q 392 219 397 200 l 392 219 l 386 238 l 381 238 q 331 101 361 169 l 331 101 l 285 0 l 0 0 l 0 14 z "},"ц":{"ha":858,"x_min":63,"x_max":851,"o":"m 613 -181 l 599 0 l 63 0 l 63 736 l 344 736 l 344 218 l 461 218 l 461 736 l 743 736 l 743 218 l 851 218 l 851 -181 l 613 -181 z "},"ч":{"ha":785,"x_min":49,"x_max":722,"o":"m 440 454 l 440 454 l 440 736 l 722 736 l 722 0 l 440 0 l 440 261 l 435 263 q 282 236 369 236 l 282 236 q 101 299 154 236 q 49 507 49 363 l 49 507 l 49 736 l 331 736 l 331 533 q 332 495 331 508 q 339 467 333 482 q 357 447 344 453 q 392 442 369 442 l 392 442 q 440 454 421 442 z "},"ш":{"ha":1183,"x_min":63,"x_max":1121,"o":"m 1121 736 l 1121 0 l 63 0 l 63 736 l 338 736 l 338 218 l 454 218 l 454 722 l 729 722 l 729 218 l 846 218 l 846 736 l 1121 736 z "},"щ":{"ha":1236,"x_min":63,"x_max":1229,"o":"m 989 -181 l 975 0 l 63 0 l 63 736 l 338 736 l 338 218 l 454 218 l 454 722 l 729 722 l 729 218 l 846 218 l 846 736 l 1121 736 l 1121 218 l 1229 218 l 1229 -181 l 989 -181 z "},"ъ":{"ha":850,"x_min":0,"x_max":836,"o":"m 183 518 l 0 518 l 0 736 l 465 736 l 465 499 l 522 499 q 688 477 621 499 q 784 417 754 456 q 825 340 814 378 q 836 250 836 301 l 836 250 q 831 178 836 210 q 806 112 825 147 q 753 53 786 76 q 661 15 719 31 q 522 0 603 0 l 522 0 l 183 0 l 183 518 z m 479 308 l 458 308 l 458 190 l 479 190 q 553 203 535 190 q 571 250 571 217 q 553 296 571 283 q 479 308 535 308 l 479 308 z "},"ы":{"ha":1138,"x_min":63,"x_max":1075,"o":"m 1075 0 l 792 0 l 792 736 l 1075 736 l 1075 0 z m 401 0 l 63 0 l 63 736 l 344 736 l 344 499 l 401 499 q 567 477 500 499 q 663 417 633 456 q 704 340 693 378 q 715 250 715 301 l 715 250 q 710 178 715 210 q 685 112 704 147 q 632 53 665 76 q 540 15 599 31 q 401 0 482 0 l 401 0 z m 358 308 l 338 308 l 338 190 l 358 190 q 432 203 414 190 q 450 250 450 217 q 432 296 450 283 q 358 308 414 308 l 358 308 z "},"ь":{"ha":729,"x_min":63,"x_max":715,"o":"m 401 0 l 63 0 l 63 736 l 344 736 l 344 499 l 401 499 q 567 477 500 499 q 663 417 633 456 q 704 340 693 378 q 715 250 715 301 l 715 250 q 710 178 715 210 q 685 112 704 147 q 632 53 665 76 q 540 15 599 31 q 401 0 482 0 l 401 0 z m 358 308 l 338 308 l 338 190 l 358 190 q 432 203 414 190 q 450 250 450 217 q 432 296 450 283 q 358 308 414 308 l 358 308 z "},"э":{"ha":674,"x_min":14,"x_max":646,"o":"m 14 47 l 14 47 l 74 218 q 208 188 135 188 l 208 188 q 351 289 336 188 l 351 289 l 125 279 l 125 464 l 356 454 q 217 556 347 556 l 217 556 q 101 538 149 556 l 101 538 l 36 700 q 268 750 135 750 l 268 750 q 537 650 428 750 q 646 371 646 550 l 646 371 q 533 94 646 201 q 247 -14 419 -14 l 247 -14 q 14 47 121 -14 z "},"ю":{"ha":1199,"x_min":63,"x_max":1171,"o":"m 1073 649 q 1171 368 1171 547 q 1073 88 1171 189 q 803 -14 975 -14 l 803 -14 q 559 63 653 -14 q 442 281 465 140 l 442 281 l 344 281 l 344 0 l 63 0 l 63 736 l 344 736 l 344 499 l 450 499 q 574 685 482 619 q 803 750 665 750 l 803 750 q 1073 649 975 750 z m 803 181 q 885 368 885 181 q 803 556 885 556 q 721 368 721 556 q 803 181 721 181 z "},"я":{"ha":869,"x_min":0,"x_max":807,"o":"m 511 246 l 328 0 l 0 0 l 0 14 l 119 175 q 299 282 194 276 l 299 282 l 299 288 q 107 486 107 326 l 107 486 q 135 595 107 549 q 205 668 163 642 q 309 710 247 694 q 426 731 371 726 q 550 736 482 736 l 550 736 l 807 736 l 807 0 l 525 0 l 525 246 l 511 246 z m 525 406 l 525 560 l 507 560 q 400 483 400 560 l 400 483 q 507 406 400 406 l 507 406 l 525 406 z "},"ё":{"ha":760,"x_min":28,"x_max":725,"o":"m 715 319 l 715 319 l 310 319 q 490 188 326 188 l 490 188 q 647 217 564 188 l 647 217 l 708 47 q 419 -14 578 -14 l 419 -14 q 131 85 235 -14 q 28 368 28 183 l 28 368 q 126 648 28 546 q 400 750 225 750 l 400 750 q 636 663 547 750 q 725 429 725 576 l 725 429 q 715 319 725 375 z m 308 449 l 308 449 l 456 468 q 438 552 456 521 q 390 583 421 583 l 390 583 q 333 544 354 583 q 308 449 311 506 z m 121 851 q 97 939 97 875 q 121 1026 97 1003 q 208 1050 144 1050 q 296 1026 272 1050 q 319 939 319 1003 q 296 851 319 875 q 208 828 272 828 q 121 851 144 828 z m 458 851 q 435 939 435 875 q 458 1026 435 1003 q 546 1050 482 1050 q 633 1026 610 1050 q 657 939 657 1003 q 633 851 657 875 q 546 828 610 828 q 458 851 482 828 z "},"ђ":{"ha":863,"x_min":-17,"x_max":821,"o":"m -17 792 l -17 892 l 76 929 l 76 1029 l 225 1053 q 358 944 358 1074 l 358 944 l 358 929 l 582 929 l 582 792 l 358 792 l 358 618 l 364 618 q 455 684 401 660 q 563 708 508 708 l 563 708 q 689 666 635 708 q 769 556 743 624 q 808 418 796 488 q 821 278 821 349 l 821 278 q 800 96 821 182 q 733 -72 779 10 q 601 -212 688 -154 q 396 -292 515 -271 l 396 -292 l 326 -101 q 528 258 528 -31 l 528 258 q 436 493 528 493 l 436 493 q 358 463 393 493 l 358 463 l 358 0 l 76 0 l 76 792 l -17 792 z "},"ѓ":{"ha":563,"x_min":63,"x_max":563,"o":"m 563 736 l 563 518 l 344 518 l 344 0 l 63 0 l 63 736 l 563 736 z m 292 807 l 203 883 l 390 1131 l 499 1038 l 292 807 z "},"є":{"ha":674,"x_min":28,"x_max":660,"o":"m 600 218 l 600 218 l 660 47 q 392 -14 539 -14 l 392 -14 q 126 86 224 -14 q 28 353 28 186 l 28 353 q 130 638 28 525 q 407 750 232 750 l 407 750 q 638 700 531 750 l 638 700 l 572 539 q 463 556 519 556 l 463 556 q 317 454 336 556 l 317 454 l 549 464 l 549 279 l 317 289 q 463 188 336 188 l 463 188 q 600 218 539 188 z "},"ѕ":{"ha":635,"x_min":28,"x_max":607,"o":"m 28 47 l 28 47 l 89 214 q 249 181 164 181 l 249 181 q 343 222 343 181 l 343 222 q 335 242 343 233 q 311 258 328 251 q 278 269 294 264 q 237 283 263 275 q 192 297 211 290 l 192 297 q 83 369 124 324 q 43 500 43 415 l 43 500 q 133 690 43 631 q 357 750 222 750 l 357 750 q 589 700 485 750 l 589 700 l 522 535 q 375 563 456 563 l 375 563 q 288 531 288 563 l 288 531 q 296 510 288 519 q 321 494 304 501 q 354 481 338 486 q 398 467 371 475 q 443 453 425 460 l 443 453 q 563 379 519 426 q 607 247 607 332 l 607 247 q 509 51 607 115 q 268 -14 411 -14 l 268 -14 q 28 47 119 -14 z "},"і":{"ha":408,"x_min":63,"x_max":346,"o":"m 346 0 l 63 0 l 63 736 l 346 736 l 346 0 z m 99 857 q 69 963 69 886 q 99 1068 69 1039 q 204 1097 128 1097 q 310 1068 281 1097 q 339 963 339 1039 q 310 857 339 886 q 204 828 281 828 q 99 857 128 828 z "},"ї":{"ha":408,"x_min":-75,"x_max":485,"o":"m 346 0 l 63 0 l 63 736 l 346 736 l 346 0 z m -51 851 q -75 939 -75 875 q -51 1026 -75 1003 q 36 1050 -28 1050 q 124 1026 100 1050 q 147 939 147 1003 q 124 851 147 875 q 36 828 100 828 q -51 851 -28 828 z m 286 851 q 263 939 263 875 q 286 1026 263 1003 q 374 1050 310 1050 q 461 1026 438 1050 q 485 939 485 1003 q 461 851 485 875 q 374 828 438 828 q 286 851 310 828 z "},"ј":{"ha":408,"x_min":-104,"x_max":346,"o":"m 63 117 l 63 117 l 63 736 l 346 736 l 346 35 q 244 -193 346 -104 q -31 -292 142 -282 l -31 -292 l -104 -90 q 22 -20 -18 -62 q 63 117 63 22 z m 99 857 q 69 963 69 886 q 99 1068 69 1039 q 204 1097 128 1097 q 310 1068 281 1097 q 339 963 339 1039 q 310 857 339 886 q 204 828 281 828 q 99 857 128 828 z "},"љ":{"ha":1169,"x_min":0,"x_max":1156,"o":"m 146 397 l 146 397 l 175 736 l 785 736 l 785 499 l 842 499 q 1007 477 940 499 q 1103 417 1074 456 q 1144 340 1133 378 q 1156 250 1156 301 l 1156 250 q 1150 178 1156 210 q 1125 112 1144 147 q 1072 53 1106 76 q 981 15 1039 31 q 842 0 922 0 l 842 0 l 503 0 l 503 518 l 426 518 l 407 296 q 99 -21 381 -7 l 99 -21 l 0 199 q 76 225 46 204 q 119 279 106 246 q 138 337 133 313 q 146 397 143 361 z m 799 308 l 778 308 l 778 190 l 799 190 q 872 203 854 190 q 890 250 890 217 q 872 296 890 283 q 799 308 854 308 l 799 308 z "},"њ":{"ha":1128,"x_min":63,"x_max":1114,"o":"m 461 0 l 461 281 l 344 281 l 344 0 l 63 0 l 63 736 l 344 736 l 344 499 l 461 499 l 461 736 l 743 736 l 743 499 l 800 499 q 965 477 899 499 q 1062 417 1032 456 q 1103 340 1092 378 q 1114 250 1114 301 l 1114 250 q 1108 178 1114 210 q 1083 112 1103 147 q 1031 53 1064 76 q 939 15 997 31 q 800 0 881 0 l 800 0 l 461 0 z m 757 308 l 736 308 l 736 190 l 757 190 q 831 203 813 190 q 849 250 849 217 q 831 296 849 283 q 757 308 813 308 l 757 308 z "},"ћ":{"ha":813,"x_min":-17,"x_max":757,"o":"m -17 892 l 76 929 l 76 1029 l 225 1053 q 358 944 358 1074 l 358 944 l 358 929 l 582 929 l 582 792 l 358 792 l 358 618 l 364 618 q 560 708 457 708 l 560 708 q 660 685 619 708 q 720 619 700 663 q 749 529 740 576 q 757 421 757 482 l 757 421 l 757 0 l 475 0 l 475 392 q 473 443 475 425 q 458 477 471 461 q 422 493 446 493 l 422 493 q 358 463 389 493 l 358 463 l 358 0 l 76 0 l 76 792 l -17 792 l -17 892 z "},"ќ":{"ha":828,"x_min":63,"x_max":821,"o":"m 821 14 l 821 0 l 513 0 l 351 376 l 540 736 l 797 736 l 797 722 l 638 418 l 821 14 z m 344 0 l 63 0 l 63 736 l 344 736 l 344 0 z m 438 807 l 349 883 l 536 1131 l 644 1038 l 438 807 z "},"ў":{"ha":775,"x_min":0,"x_max":775,"o":"m 275 40 l 275 40 l 0 722 l 0 736 l 301 736 l 356 536 q 381 424 368 488 q 400 322 394 361 l 400 322 l 407 282 l 413 282 q 453 539 431 428 l 453 539 l 492 736 l 775 736 l 775 722 l 571 118 q 135 -292 432 -292 l 135 -292 q 99 -290 111 -292 l 99 -290 l 43 -68 l 50 -56 q 107 -61 76 -61 l 107 -61 q 275 40 219 -61 z m 167 1068 l 167 1068 l 296 1068 q 388 947 304 947 q 479 1068 471 947 l 479 1068 l 608 1068 q 544 894 608 960 q 388 828 481 828 q 231 894 294 828 q 167 1068 167 960 z "},"џ":{"ha":806,"x_min":63,"x_max":743,"o":"m 522 -181 l 283 -181 l 276 0 l 63 0 l 63 736 l 344 736 l 344 218 l 461 218 l 461 736 l 743 736 l 743 0 l 529 0 l 522 -181 z "},"Ґ":{"ha":683,"x_min":76,"x_max":683,"o":"m 76 0 l 76 1000 l 431 1000 l 442 1169 l 683 1169 l 683 754 l 364 754 l 364 0 l 76 0 z "},"ґ":{"ha":563,"x_min":63,"x_max":563,"o":"m 563 886 l 563 518 l 344 518 l 344 0 l 63 0 l 63 736 l 338 736 l 349 886 l 563 886 z "},"–":{"ha":694,"x_min":42,"x_max":653,"o":"m 653 474 l 653 307 l 42 307 l 42 474 l 653 474 z "},"—":{"ha":1389,"x_min":42,"x_max":1347,"o":"m 1347 474 l 1347 307 l 42 307 l 42 474 l 1347 474 z "},"‘":{"ha":404,"x_min":72,"x_max":383,"o":"m 258 1069 l 258 1069 l 383 983 q 303 795 325 907 q 294 567 282 683 l 294 567 q 72 567 171 554 l 72 567 q 258 1069 47 897 z "},"’":{"ha":404,"x_min":21,"x_max":332,"o":"m 146 546 l 146 546 l 21 632 q 101 820 79 708 q 110 1049 122 932 l 110 1049 q 332 1049 233 1061 l 332 1049 q 146 546 357 718 z "},"‚":{"ha":383,"x_min":0,"x_max":311,"o":"m 125 -239 l 125 -239 l 0 -153 q 80 35 58 -76 q 89 264 101 147 l 89 264 q 311 264 213 276 l 311 264 q 125 -239 336 -67 z "},"“":{"ha":758,"x_min":72,"x_max":738,"o":"m 613 1069 l 613 1069 l 738 983 q 658 795 679 907 q 649 567 636 683 l 649 567 q 426 567 525 554 l 426 567 q 613 1069 401 897 z m 258 1069 l 258 1069 l 383 983 q 303 795 325 907 q 294 567 282 683 l 294 567 q 72 567 171 554 l 72 567 q 258 1069 47 897 z "},"”":{"ha":758,"x_min":21,"x_max":686,"o":"m 146 546 l 146 546 l 21 632 q 101 820 79 708 q 110 1049 122 932 l 110 1049 q 332 1049 233 1061 l 332 1049 q 146 546 357 718 z m 500 546 l 500 546 l 375 632 q 455 820 433 708 q 464 1049 476 932 l 464 1049 q 686 1049 588 1061 l 686 1049 q 500 546 711 718 z "},"„":{"ha":738,"x_min":0,"x_max":665,"o":"m 125 -239 l 125 -239 l 0 -153 q 80 35 58 -76 q 89 264 101 147 l 89 264 q 311 264 213 276 l 311 264 q 125 -239 336 -67 z m 479 -239 l 479 -239 l 354 -153 q 434 35 413 -76 q 443 264 456 147 l 443 264 q 665 264 567 276 l 665 264 q 479 -239 690 -67 z "},"†":{"ha":750,"x_min":42,"x_max":708,"o":"m 268 -97 l 283 549 l 42 536 l 42 736 l 283 724 l 268 1000 l 482 1000 l 467 724 l 708 736 l 708 536 l 467 549 l 482 -97 l 268 -97 z "},"‡":{"ha":750,"x_min":42,"x_max":708,"o":"m 275 364 l 275 549 l 42 536 l 42 736 l 283 724 l 268 1000 l 482 1000 l 467 724 l 708 736 l 708 536 l 475 549 l 475 364 l 708 376 l 708 176 l 467 189 l 482 -97 l 268 -97 l 283 189 l 42 176 l 42 376 l 275 364 z "},"•":{"ha":594,"x_min":69,"x_max":525,"o":"m 131 235 q 69 401 69 296 q 131 568 69 507 q 297 629 192 629 q 464 568 403 629 q 525 401 525 507 q 464 235 525 296 q 297 174 403 174 q 131 235 192 174 z "},"…":{"ha":1297,"x_min":69,"x_max":1228,"o":"m 99 23 q 69 132 69 53 q 99 241 69 211 q 208 271 129 271 q 317 241 288 271 q 347 132 347 211 q 317 23 347 53 q 208 -7 288 -7 q 99 23 129 -7 z m 540 23 q 510 132 510 53 q 540 241 510 211 q 649 271 569 271 q 758 241 728 271 q 788 132 788 211 q 758 23 788 53 q 649 -7 728 -7 q 540 23 569 -7 z m 980 23 q 950 132 950 53 q 980 241 950 211 q 1089 271 1010 271 q 1198 241 1168 271 q 1228 132 1228 211 q 1198 23 1228 53 q 1089 -7 1168 -7 q 980 23 1010 -7 z "},"‰":{"ha":1825,"x_min":42,"x_max":1783,"o":"m 331 588 q 342 701 342 621 q 331 815 342 782 q 294 847 319 847 q 258 815 269 847 q 247 701 247 782 q 258 588 247 621 q 294 556 269 556 q 331 588 319 556 z m 479 910 q 547 701 547 835 q 479 492 547 568 q 294 417 411 417 q 110 492 178 417 q 42 701 42 568 q 110 910 42 835 q 294 986 178 986 q 479 910 411 986 z m 408 -43 l 279 35 l 856 1014 l 985 936 l 408 -43 z m 1006 158 q 1017 271 1017 190 q 1006 384 1017 351 q 969 417 994 417 q 933 384 944 417 q 922 271 922 351 q 933 158 922 190 q 969 125 944 125 q 1006 158 994 125 z m 1154 480 q 1222 271 1222 404 q 1154 62 1222 138 q 969 -14 1086 -14 q 785 62 853 -14 q 717 271 717 138 q 785 480 717 404 q 969 556 853 556 q 1154 480 1086 556 z m 1567 158 q 1578 271 1578 190 q 1567 384 1578 351 q 1531 417 1556 417 q 1494 384 1506 417 q 1483 271 1483 351 q 1494 158 1483 190 q 1531 125 1506 125 q 1567 158 1556 125 z m 1715 480 q 1783 271 1783 404 q 1715 62 1783 138 q 1531 -14 1647 -14 q 1346 62 1414 -14 q 1278 271 1278 138 q 1346 480 1278 404 q 1531 556 1414 556 q 1715 480 1647 556 z "},"‹":{"ha":410,"x_min":28,"x_max":386,"o":"m 258 50 l 28 375 l 258 700 l 386 611 l 236 375 l 386 139 l 258 50 z "},"›":{"ha":410,"x_min":24,"x_max":382,"o":"m 24 611 l 151 700 l 382 375 l 151 50 l 24 139 l 174 375 l 24 611 z "},"⁄":{"ha":206,"x_min":-250,"x_max":456,"o":"m -121 -43 l -250 35 l 326 1014 l 456 936 l -121 -43 z "},"⁰":{"ha":586,"x_min":28,"x_max":558,"o":"m 101 717 q 28 931 28 790 q 100 1142 28 1071 q 293 1213 172 1213 q 486 1142 414 1213 q 558 931 558 1071 q 485 717 558 790 q 293 643 413 643 q 101 717 174 643 z m 330 813 q 342 931 342 844 q 330 1046 342 1017 q 293 1075 318 1075 q 256 1046 268 1075 q 244 931 244 1017 q 256 813 244 844 q 293 781 268 781 q 330 813 318 781 z "},"⁴":{"ha":578,"x_min":21,"x_max":557,"o":"m 271 653 l 271 739 l 21 739 l 21 875 l 200 1203 l 483 1203 l 483 889 l 557 889 l 557 739 l 483 739 l 483 653 l 271 653 z m 201 888 l 201 882 l 285 882 l 285 961 l 292 1067 l 286 1067 q 242 961 269 1011 l 242 961 l 201 888 z "},"⁵":{"ha":510,"x_min":28,"x_max":482,"o":"m 28 685 l 28 685 l 74 801 q 185 781 122 781 l 185 781 q 265 826 265 781 l 265 826 q 174 869 265 869 l 174 869 q 61 857 118 869 l 61 857 l 56 861 l 56 1203 l 463 1203 l 463 1042 l 176 1042 l 176 971 q 267 978 221 978 l 267 978 q 419 942 357 978 q 482 826 482 907 l 482 826 q 405 687 482 731 q 221 643 328 643 l 221 643 q 28 685 108 643 z "},"⁶":{"ha":538,"x_min":28,"x_max":517,"o":"m 228 835 q 271 760 228 760 q 314 835 314 760 l 314 835 q 271 908 314 908 q 228 835 228 908 l 228 835 z m 238 1006 l 238 1006 l 242 1003 q 328 1019 282 1019 l 328 1019 q 463 969 410 1019 q 517 840 517 919 l 517 840 q 449 694 517 744 q 276 643 381 643 l 276 643 q 97 710 167 643 q 28 896 28 778 l 28 896 q 116 1126 28 1039 q 349 1213 204 1213 l 349 1213 q 486 1186 429 1213 l 486 1186 l 464 1078 q 385 1088 426 1088 l 385 1088 q 238 1006 269 1088 z "},"⁷":{"ha":488,"x_min":14,"x_max":474,"o":"m 14 1028 l 14 1203 l 474 1203 l 474 1079 l 214 636 l 75 729 l 290 1022 l 288 1028 l 14 1028 z "},"⁸":{"ha":550,"x_min":28,"x_max":522,"o":"m 101 913 l 101 913 l 101 918 q 42 1039 42 964 l 42 1039 q 117 1169 42 1126 q 289 1213 192 1213 l 289 1213 q 443 1176 378 1213 q 508 1072 508 1139 l 508 1072 q 421 965 508 992 l 421 965 l 421 960 q 522 822 522 921 l 522 822 q 444 688 522 732 q 264 643 365 643 l 264 643 q 97 684 167 643 q 28 801 28 725 q 101 913 28 878 z m 203 861 l 203 861 q 193 821 193 842 l 193 821 q 213 776 193 792 q 264 760 232 760 l 264 760 q 303 769 286 760 q 319 797 319 779 l 319 797 q 306 820 319 813 q 263 839 293 828 l 263 839 q 203 861 228 850 z m 321 1003 l 321 1003 q 344 1054 344 1029 l 344 1054 q 283 1096 344 1096 l 283 1096 q 231 1064 231 1096 l 231 1064 q 278 1019 231 1038 l 278 1019 q 321 1003 308 1008 z "},"⁹":{"ha":535,"x_min":21,"x_max":507,"o":"m 307 1022 q 264 1096 307 1096 q 221 1022 221 1096 l 221 1022 q 264 950 221 950 q 307 1022 307 950 l 307 1022 z m 297 853 l 297 853 l 293 856 q 207 839 254 839 l 207 839 q 72 884 124 839 q 21 1008 21 929 l 21 1008 q 91 1159 21 1106 q 265 1213 161 1213 l 265 1213 q 440 1147 374 1213 q 507 964 507 1082 l 507 964 q 418 732 507 821 q 186 643 329 643 l 186 643 q 49 669 106 643 l 49 669 l 71 778 q 151 768 107 768 l 151 768 q 297 853 265 768 z "},"ⁿ":{"ha":569,"x_min":49,"x_max":528,"o":"m 250 425 l 49 425 l 49 910 l 146 925 q 244 868 244 942 l 244 868 l 250 868 q 386 928 310 928 l 386 928 q 528 726 528 928 l 528 726 l 528 425 l 326 425 l 326 706 q 290 769 326 769 l 290 769 q 250 753 268 769 l 250 753 l 250 425 z "},"₀":{"ha":586,"x_min":28,"x_max":558,"o":"m 101 -126 q 28 88 28 -53 q 100 299 28 228 q 293 369 172 369 q 486 299 414 369 q 558 88 558 228 q 485 -126 558 -53 q 293 -200 413 -200 q 101 -126 174 -200 z m 330 -31 q 342 88 342 1 q 330 203 342 174 q 293 232 318 232 q 256 203 268 232 q 244 88 244 174 q 256 -31 244 1 q 293 -62 268 -62 q 330 -31 318 -62 z "},"₁":{"ha":424,"x_min":14,"x_max":368,"o":"m 368 -190 l 156 -190 l 156 183 l 14 183 l 14 329 l 240 365 q 368 285 368 386 l 368 285 l 368 -190 z "},"₂":{"ha":506,"x_min":21,"x_max":471,"o":"m 257 -10 l 257 -15 l 471 -15 l 471 -190 l 21 -190 l 21 -67 l 119 21 q 191 85 171 67 q 228 130 211 104 q 246 179 246 156 l 246 179 q 201 217 246 217 l 201 217 q 90 185 146 217 l 90 185 l 36 307 q 251 369 139 369 l 251 369 q 399 329 336 369 q 463 210 463 289 l 463 210 q 426 107 463 147 q 319 26 389 67 l 319 26 l 257 -10 z "},"₃":{"ha":485,"x_min":7,"x_max":457,"o":"m 64 201 l 64 201 l 21 326 q 236 369 124 369 l 236 369 q 385 336 326 369 q 443 228 443 303 l 443 228 q 410 139 443 172 q 319 100 376 106 l 319 100 l 319 94 q 421 55 385 89 q 457 -31 457 21 l 457 -31 q 383 -158 457 -117 q 204 -200 310 -200 l 204 -200 q 7 -160 83 -200 l 7 -160 l 53 -35 q 167 -56 103 -56 l 167 -56 q 240 -10 240 -56 l 240 -10 q 219 24 240 17 q 157 32 199 32 l 157 32 l 108 32 l 108 143 l 150 143 q 226 186 226 143 l 226 186 q 168 225 226 225 l 168 225 q 64 201 118 225 z "},"₄":{"ha":578,"x_min":21,"x_max":557,"o":"m 271 -190 l 271 -104 l 21 -104 l 21 32 l 200 360 l 483 360 l 483 46 l 557 46 l 557 -104 l 483 -104 l 483 -190 l 271 -190 z m 201 44 l 201 39 l 285 39 l 285 118 l 292 224 l 286 224 q 242 118 269 168 l 242 118 l 201 44 z "},"₅":{"ha":510,"x_min":28,"x_max":482,"o":"m 28 -158 l 28 -158 l 74 -42 q 185 -62 122 -62 l 185 -62 q 265 -17 265 -62 l 265 -17 q 174 26 265 26 l 174 26 q 61 14 118 26 l 61 14 l 56 18 l 56 360 l 463 360 l 463 199 l 176 199 l 176 128 q 267 135 221 135 l 267 135 q 419 99 357 135 q 482 -17 482 64 l 482 -17 q 405 -156 482 -112 q 221 -200 328 -200 l 221 -200 q 28 -158 108 -200 z "},"₆":{"ha":538,"x_min":28,"x_max":517,"o":"m 228 -8 q 271 -83 228 -83 q 314 -8 314 -83 l 314 -8 q 271 65 314 65 q 228 -8 228 65 l 228 -8 z m 238 163 l 238 163 l 242 160 q 328 176 281 176 l 328 176 q 463 126 410 176 q 517 -3 517 76 l 517 -3 q 449 -149 517 -99 q 276 -200 381 -200 l 276 -200 q 97 -133 167 -200 q 28 53 28 -65 l 28 53 q 116 283 28 196 q 349 369 204 369 l 349 369 q 486 343 429 369 l 486 343 l 464 235 q 385 244 426 244 l 385 244 q 238 163 269 244 z "},"₇":{"ha":488,"x_min":14,"x_max":474,"o":"m 14 185 l 14 360 l 474 360 l 474 236 l 214 -207 l 75 -114 l 290 179 l 288 185 l 14 185 z "},"₈":{"ha":550,"x_min":28,"x_max":522,"o":"m 101 69 l 101 69 l 101 75 q 42 196 42 121 l 42 196 q 117 326 42 283 q 289 369 192 369 l 289 369 q 443 333 378 369 q 508 229 508 296 l 508 229 q 421 122 508 149 l 421 122 l 421 117 q 522 -21 522 78 l 522 -21 q 444 -156 522 -111 q 264 -200 365 -200 l 264 -200 q 97 -159 167 -200 q 28 -42 28 -118 q 101 69 28 35 z m 203 18 l 203 18 q 193 -22 193 -1 l 193 -22 q 213 -67 193 -51 q 264 -83 232 -83 l 264 -83 q 303 -74 286 -83 q 319 -46 319 -64 l 319 -46 q 306 -23 319 -31 q 263 -4 293 -15 l 263 -4 q 203 18 228 7 z m 321 160 l 321 160 q 344 211 344 186 l 344 211 q 283 253 344 253 l 283 253 q 231 221 231 253 l 231 221 q 278 176 231 194 l 278 176 q 321 160 308 165 z "},"₉":{"ha":535,"x_min":21,"x_max":507,"o":"m 307 179 q 264 253 307 253 q 221 179 221 253 l 221 179 q 264 107 221 107 q 307 179 307 107 l 307 179 z m 297 10 l 297 10 l 293 13 q 207 -4 253 -4 l 207 -4 q 72 41 124 -4 q 21 165 21 86 l 21 165 q 91 316 21 263 q 265 369 161 369 l 265 369 q 440 304 374 369 q 507 121 507 239 l 507 121 q 418 -111 507 -22 q 186 -200 329 -200 l 186 -200 q 49 -174 106 -200 l 49 -174 l 71 -65 q 151 -75 107 -75 l 151 -75 q 297 10 265 -75 z "},"€":{"ha":881,"x_min":17,"x_max":871,"o":"m 789 279 l 789 279 l 871 82 q 556 -14 738 -14 l 556 -14 q 254 78 368 -14 q 106 328 140 169 l 106 328 l 17 328 l 17 453 l 90 453 q 93 542 90 507 l 93 542 l 17 542 l 17 667 l 121 667 q 288 899 171 813 q 575 986 406 986 l 575 986 q 857 908 732 986 l 857 908 l 772 718 q 607 757 701 757 l 607 757 q 418 667 460 757 l 418 667 l 681 667 l 681 542 l 382 542 q 382 453 379 494 l 382 453 l 681 453 l 681 328 l 407 328 q 474 249 422 275 q 593 222 525 222 l 593 222 q 789 279 703 222 z "},"№":{"ha":1546,"x_min":76,"x_max":1504,"o":"m 1474 290 l 1474 153 l 993 153 l 993 290 l 1474 290 z m 321 696 l 314 753 l 300 753 q 324 375 324 543 l 324 375 l 324 0 l 76 0 l 76 972 l 464 972 l 567 593 q 603 426 586 519 q 626 276 619 333 l 626 276 l 633 219 l 647 219 q 624 597 624 429 l 624 597 l 624 972 l 871 972 l 871 0 l 483 0 l 381 379 q 344 546 361 453 q 321 696 328 639 l 321 696 z m 1233 507 q 1285 626 1285 507 q 1233 746 1285 746 q 1182 626 1182 746 q 1233 507 1182 507 z m 1433 829 q 1504 626 1504 757 q 1433 424 1504 496 q 1233 351 1361 351 q 1034 424 1106 351 q 963 626 963 496 q 1034 829 963 757 q 1233 901 1106 901 q 1433 829 1361 901 z "},"™":{"ha":1038,"x_min":28,"x_max":996,"o":"m 386 1000 l 386 903 l 269 903 l 269 571 l 144 571 l 144 903 l 28 903 l 28 1000 l 386 1000 z m 719 771 l 775 1000 l 956 1000 l 996 571 l 869 571 l 847 814 l 843 903 l 838 903 q 825 814 835 854 l 825 814 l 767 571 l 639 571 l 581 813 l 567 903 l 561 903 q 557 806 561 853 l 557 806 l 535 571 l 413 571 l 453 1000 l 635 1000 l 690 771 l 703 678 l 708 678 q 719 771 710 729 l 719 771 z "},"⅓":{"ha":1244,"x_min":33,"x_max":1197,"o":"m 388 426 l 175 426 l 175 800 l 33 800 l 33 946 l 260 982 q 388 901 388 1003 l 388 901 l 388 426 z m 804 392 l 804 392 l 761 517 q 976 560 864 560 l 976 560 q 1125 526 1067 560 q 1183 418 1183 493 l 1183 418 q 1150 329 1183 363 q 1060 290 1117 296 l 1060 290 l 1060 285 q 1161 245 1125 279 q 1197 160 1197 211 l 1197 160 q 1124 32 1197 74 q 944 -10 1050 -10 l 944 -10 q 747 31 824 -10 l 747 31 l 793 156 q 907 135 843 135 l 907 135 q 981 181 981 135 l 981 181 q 960 215 981 207 q 897 222 939 222 l 897 222 l 849 222 l 849 333 l 890 333 q 967 376 967 333 l 967 376 q 908 415 967 415 l 908 415 q 804 392 858 415 z m 360 -43 l 231 35 l 807 1014 l 936 936 l 360 -43 z "},"⅔":{"ha":1244,"x_min":0,"x_max":1235,"o":"m 415 -43 l 286 35 l 863 1014 l 992 936 l 415 -43 z m 842 392 l 842 392 l 799 517 q 1014 560 901 560 l 1014 560 q 1163 526 1104 560 q 1221 418 1221 493 l 1221 418 q 1188 329 1221 363 q 1097 290 1154 296 l 1097 290 l 1097 285 q 1199 245 1163 279 q 1235 160 1235 211 l 1235 160 q 1161 32 1235 74 q 982 -10 1088 -10 l 982 -10 q 785 31 861 -10 l 785 31 l 831 156 q 944 135 881 135 l 944 135 q 1018 181 1018 135 l 1018 181 q 997 215 1018 207 q 935 222 976 222 l 935 222 l 886 222 l 886 333 l 928 333 q 1004 376 1004 333 l 1004 376 q 946 415 1004 415 l 946 415 q 842 392 896 415 z m 236 607 l 236 601 l 450 601 l 450 426 l 0 426 l 0 550 l 99 638 q 170 702 150 683 q 208 747 190 721 q 225 796 225 772 l 225 796 q 181 833 225 833 l 181 833 q 69 801 125 833 l 69 801 l 15 924 q 231 986 118 986 l 231 986 q 378 946 315 986 q 442 826 442 906 l 442 826 q 405 724 442 764 q 299 643 368 683 l 299 643 l 236 607 z "},"⅛":{"ha":1244,"x_min":31,"x_max":1199,"o":"m 353 -43 l 224 35 l 800 1014 l 929 936 l 353 -43 z m 385 426 l 172 426 l 172 800 l 31 800 l 31 946 l 257 982 q 385 901 385 1003 l 385 901 l 385 426 z m 778 260 l 778 260 l 778 265 q 718 386 718 311 l 718 386 q 793 517 718 474 q 965 560 868 560 l 965 560 q 1119 523 1054 560 q 1185 419 1185 486 l 1185 419 q 1097 313 1185 339 l 1097 313 l 1097 307 q 1199 169 1199 268 l 1199 169 q 1120 35 1199 79 q 940 -10 1042 -10 l 940 -10 q 774 31 843 -10 q 704 149 704 72 q 778 260 704 225 z m 879 208 l 879 208 q 869 168 869 189 l 869 168 q 889 123 869 139 q 940 107 908 107 l 940 107 q 979 117 963 107 q 996 144 996 126 l 996 144 q 983 167 996 160 q 939 186 969 175 l 939 186 q 879 208 904 199 z m 997 350 l 997 350 q 1021 401 1021 376 l 1021 401 q 960 443 1021 443 l 960 443 q 907 411 907 443 l 907 411 q 954 367 907 385 l 954 367 q 997 350 985 356 z "},"⅜":{"ha":1244,"x_min":24,"x_max":1207,"o":"m 374 -43 l 244 35 l 821 1014 l 950 936 l 374 -43 z m 81 818 l 81 818 l 38 943 q 253 986 140 986 l 253 986 q 401 953 343 986 q 460 844 460 919 l 460 844 q 426 756 460 789 q 336 717 393 722 l 336 717 l 336 711 q 438 672 401 706 q 474 586 474 638 l 474 586 q 400 458 474 500 q 221 417 326 417 l 221 417 q 24 457 100 417 l 24 457 l 69 582 q 183 561 119 561 l 183 561 q 257 607 257 561 l 257 607 q 236 641 257 633 q 174 649 215 649 l 174 649 l 125 649 l 125 760 l 167 760 q 243 803 243 760 l 243 803 q 185 842 243 842 l 185 842 q 81 818 135 842 z m 786 260 l 786 260 l 786 265 q 726 386 726 311 l 726 386 q 801 517 726 474 q 974 560 876 560 l 974 560 q 1128 523 1063 560 q 1193 419 1193 486 l 1193 419 q 1106 313 1193 339 l 1106 313 l 1106 307 q 1207 169 1207 268 l 1207 169 q 1128 35 1207 79 q 949 -10 1050 -10 l 949 -10 q 782 31 851 -10 q 713 149 713 72 q 786 260 713 225 z m 888 208 l 888 208 q 878 168 878 189 l 878 168 q 897 123 878 139 q 949 107 917 107 l 949 107 q 988 117 971 107 q 1004 144 1004 126 l 1004 144 q 991 167 1004 160 q 947 186 978 175 l 947 186 q 888 208 911 199 z m 1006 350 l 1006 350 q 1029 401 1029 376 l 1029 401 q 968 443 1029 443 l 968 443 q 915 411 915 443 l 915 411 q 963 367 915 385 l 963 367 q 1006 350 993 356 z "},"⅝":{"ha":1244,"x_min":31,"x_max":1215,"o":"m 31 458 l 31 458 l 76 575 q 188 554 125 554 l 188 554 q 268 600 268 554 l 268 600 q 176 643 268 643 l 176 643 q 64 631 119 643 l 64 631 l 58 635 l 58 976 l 465 976 l 465 815 l 179 815 l 179 744 q 269 751 224 751 l 269 751 q 422 716 360 751 q 485 600 485 681 l 485 600 q 408 460 485 504 q 224 417 331 417 l 224 417 q 31 458 111 417 z m 381 -43 l 251 35 l 828 1014 l 957 936 l 381 -43 z m 794 260 l 794 260 l 794 265 q 735 386 735 311 l 735 386 q 810 517 735 474 q 982 560 885 560 l 982 560 q 1136 523 1071 560 q 1201 419 1201 486 l 1201 419 q 1114 313 1201 339 l 1114 313 l 1114 307 q 1215 169 1215 268 l 1215 169 q 1137 35 1215 79 q 957 -10 1058 -10 l 957 -10 q 790 31 860 -10 q 721 149 721 72 q 794 260 721 225 z m 896 208 l 896 208 q 886 168 886 189 l 886 168 q 906 123 886 139 q 957 107 925 107 l 957 107 q 996 117 979 107 q 1013 144 1013 126 l 1013 144 q 999 167 1013 160 q 956 186 986 175 l 956 186 q 896 208 919 199 z m 1014 350 l 1014 350 q 1038 401 1038 376 l 1038 401 q 976 443 1038 443 l 976 443 q 924 411 924 443 l 924 411 q 971 367 924 385 l 971 367 q 1014 350 1001 356 z "},"⅞":{"ha":1244,"x_min":58,"x_max":1172,"o":"m 331 -43 l 201 35 l 778 1014 l 907 936 l 331 -43 z m 58 801 l 58 976 l 518 976 l 518 853 l 258 410 l 119 503 l 335 796 l 332 801 l 58 801 z m 751 260 l 751 260 l 751 265 q 692 386 692 311 l 692 386 q 767 517 692 474 q 939 560 842 560 l 939 560 q 1093 523 1028 560 q 1158 419 1158 486 l 1158 419 q 1071 313 1158 339 l 1071 313 l 1071 307 q 1172 169 1172 268 l 1172 169 q 1094 35 1172 79 q 914 -10 1015 -10 l 914 -10 q 747 31 817 -10 q 678 149 678 72 q 751 260 678 225 z m 853 208 l 853 208 q 843 168 843 189 l 843 168 q 863 123 843 139 q 914 107 882 107 l 914 107 q 953 117 936 107 q 969 144 969 126 l 969 144 q 956 167 969 160 q 913 186 943 175 l 913 186 q 853 208 876 199 z m 971 350 l 971 350 q 994 401 994 376 l 994 401 q 933 443 994 443 l 933 443 q 881 411 881 443 l 881 411 q 928 367 881 385 l 928 367 q 971 350 958 356 z "},"−":{"ha":860,"x_min":56,"x_max":804,"o":"m 804 474 l 804 307 l 56 307 l 56 474 l 804 474 z "},"ꀌ":{"ha":917,"x_min":0,"x_max":917,"o":"m 601 0 l 601 0 l 567 114 l 328 114 l 293 0 l 0 0 l 0 14 l 275 736 l 642 736 l 917 14 l 917 0 l 714 0 q 700 -69 700 -32 l 700 -69 q 769 -153 700 -153 l 769 -153 q 832 -137 799 -153 l 832 -137 l 881 -246 q 744 -286 825 -286 l 744 -286 q 613 -237 660 -286 q 567 -117 567 -187 l 567 -117 q 601 0 567 -53 z m 451 543 l 446 543 l 383 303 l 513 303 l 451 543 z "},"":{"ha":917,"x_min":0,"x_max":917,"o":"m 917 0 l 601 0 l 567 114 l 328 114 l 293 0 l 0 0 l 0 14 l 275 736 l 642 736 l 917 14 l 917 0 z m 451 543 l 446 543 l 383 303 l 513 303 l 451 543 z "},"":{"ha":1283,"x_min":0,"x_max":1249,"o":"m 1249 0 l 628 0 l 628 182 l 408 182 l 314 0 l 0 0 l 0 14 l 379 736 l 1228 736 l 1228 526 l 913 526 l 913 465 l 1124 465 l 1124 275 l 913 275 l 913 210 l 1249 210 l 1249 0 z m 628 526 l 576 526 l 494 371 l 628 371 l 628 526 z "},"":{"ha":917,"x_min":0,"x_max":917,"o":"m 917 0 l 601 0 l 567 114 l 328 114 l 293 0 l 0 0 l 0 14 l 275 736 l 642 736 l 917 14 l 917 0 z m 451 543 l 446 543 l 383 303 l 513 303 l 451 543 z m 403 807 l 328 900 l 572 1118 l 664 1004 l 403 807 z "},"":{"ha":917,"x_min":0,"x_max":917,"o":"m 917 0 l 601 0 l 567 114 l 328 114 l 293 0 l 0 0 l 0 14 l 275 736 l 642 736 l 917 14 l 917 0 z m 451 543 l 446 543 l 383 303 l 513 303 l 451 543 z m 232 1068 l 232 1068 l 353 1068 q 458 957 368 957 q 564 1068 549 957 l 564 1068 l 685 1068 q 622 895 685 963 q 458 828 558 828 q 295 895 358 828 q 232 1068 232 963 z "},"":{"ha":917,"x_min":0,"x_max":917,"o":"m 917 0 l 601 0 l 567 114 l 328 114 l 293 0 l 0 0 l 0 14 l 275 736 l 642 736 l 917 14 l 917 0 z m 451 543 l 446 543 l 383 303 l 513 303 l 451 543 z m 396 1106 l 521 1106 l 699 889 l 613 808 l 458 974 l 304 808 l 218 889 l 396 1106 z "},"":{"ha":917,"x_min":0,"x_max":917,"o":"m 917 0 l 601 0 l 567 114 l 328 114 l 293 0 l 0 0 l 0 14 l 275 736 l 642 736 l 917 14 l 917 0 z m 451 543 l 446 543 l 383 303 l 513 303 l 451 543 z m 190 853 q 165 944 165 878 q 190 1036 165 1011 q 282 1061 215 1061 q 374 1036 349 1061 q 399 944 399 1011 q 374 853 399 878 q 282 828 349 828 q 190 853 215 828 z m 543 853 q 518 944 518 878 q 543 1036 518 1011 q 635 1061 568 1061 q 726 1036 701 1061 q 751 944 751 1011 q 726 853 751 878 q 635 828 701 828 q 543 853 568 828 z "},"":{"ha":917,"x_min":0,"x_max":917,"o":"m 917 0 l 601 0 l 567 114 l 328 114 l 293 0 l 0 0 l 0 14 l 275 736 l 642 736 l 917 14 l 917 0 z m 451 543 l 446 543 l 383 303 l 513 303 l 451 543 z m 286 1004 l 378 1118 l 622 900 l 547 807 l 286 1004 z "},"":{"ha":917,"x_min":0,"x_max":917,"o":"m 917 0 l 601 0 l 567 114 l 328 114 l 293 0 l 0 0 l 0 14 l 275 736 l 642 736 l 917 14 l 917 0 z m 451 543 l 446 543 l 383 303 l 513 303 l 451 543 z m 693 997 l 693 861 l 225 861 l 225 997 l 693 997 z "},"":{"ha":917,"x_min":0,"x_max":917,"o":"m 917 0 l 601 0 l 567 114 l 328 114 l 293 0 l 0 0 l 0 14 l 275 736 l 642 736 l 917 14 l 917 0 z m 451 543 l 446 543 l 383 303 l 513 303 l 451 543 z m 326 853 q 275 972 275 896 q 326 1092 275 1049 q 458 1135 378 1135 q 590 1092 539 1135 q 642 972 642 1049 q 590 853 642 896 q 458 810 539 810 q 326 853 378 810 z m 415 1019 q 399 972 399 1000 q 415 926 399 944 q 458 907 431 907 q 502 926 486 907 q 518 972 518 944 q 502 1019 518 1000 q 458 1038 486 1038 q 415 1019 431 1038 z "},"":{"ha":917,"x_min":0,"x_max":917,"o":"m 917 0 l 601 0 l 567 114 l 328 114 l 293 0 l 0 0 l 0 14 l 275 736 l 642 736 l 917 14 l 917 0 z m 451 543 l 446 543 l 383 303 l 513 303 l 451 543 z m 329 821 l 329 821 l 214 821 q 258 972 217 906 q 365 1039 300 1039 l 365 1039 q 440 1019 404 1039 q 501 978 475 999 q 542 958 526 958 l 542 958 q 589 1039 576 958 l 589 1039 l 704 1039 q 660 887 701 953 q 553 821 619 821 l 553 821 q 480 841 517 821 q 416 881 443 861 q 376 901 389 901 l 376 901 q 329 821 340 901 z "},"":{"ha":824,"x_min":69,"x_max":789,"o":"m 392 547 l 392 547 l 347 547 l 347 465 l 392 465 q 447 473 432 465 q 463 507 463 481 l 463 507 q 447 540 463 532 q 392 547 432 547 z m 419 292 l 419 292 l 347 292 l 347 189 l 419 189 q 483 199 464 189 q 501 240 501 208 q 483 282 501 272 q 419 292 464 292 z m 492 0 l 492 0 l 69 0 l 69 736 l 478 736 q 750 563 750 736 l 750 563 q 701 451 750 497 q 581 399 653 406 l 581 399 l 581 393 q 731 346 674 393 q 789 215 789 299 l 789 215 q 742 90 789 140 q 631 19 696 39 q 492 0 567 0 z "},"":{"ha":725,"x_min":35,"x_max":725,"o":"m 657 246 l 657 246 l 725 53 q 453 -14 604 -14 l 453 -14 q 151 85 268 -14 q 35 364 35 185 l 35 364 q 158 648 35 546 q 467 750 282 750 l 467 750 q 708 697 599 750 l 708 697 l 633 507 q 501 535 567 535 l 501 535 q 329 372 329 535 l 329 372 q 374 249 329 290 q 501 208 419 208 l 501 208 q 657 246 582 208 z "},"":{"ha":725,"x_min":35,"x_max":725,"o":"m 657 246 l 657 246 l 725 53 q 453 -14 604 -14 l 453 -14 q 151 85 268 -14 q 35 364 35 185 l 35 364 q 158 648 35 546 q 467 750 282 750 l 467 750 q 708 697 599 750 l 708 697 l 633 507 q 501 535 567 535 l 501 535 q 329 372 329 535 l 329 372 q 374 249 329 290 q 501 208 419 208 l 501 208 q 657 246 582 208 z m 386 807 l 311 900 l 556 1118 l 647 1004 l 386 807 z "},"":{"ha":725,"x_min":35,"x_max":725,"o":"m 657 246 l 657 246 l 725 53 q 453 -14 604 -14 l 453 -14 q 151 85 268 -14 q 35 364 35 185 l 35 364 q 158 648 35 546 q 467 750 282 750 l 467 750 q 708 697 599 750 l 708 697 l 633 507 q 501 535 567 535 l 501 535 q 329 372 329 535 l 329 372 q 374 249 329 290 q 501 208 419 208 l 501 208 q 657 246 582 208 z m 578 1118 l 664 1038 l 486 821 l 361 821 l 183 1038 l 269 1118 l 424 953 l 578 1118 z "},"":{"ha":725,"x_min":35,"x_max":725,"o":"m 657 246 l 657 246 l 725 53 q 526 -10 639 6 l 526 -10 q 556 -117 556 -60 l 556 -117 q 509 -237 556 -187 q 378 -286 463 -286 l 378 -286 q 242 -246 297 -286 l 242 -246 l 290 -137 q 353 -153 324 -153 l 353 -153 q 422 -69 422 -153 l 422 -69 q 413 -12 422 -42 l 413 -12 q 139 97 243 -1 q 35 364 35 194 l 35 364 q 158 648 35 546 q 467 750 282 750 l 467 750 q 708 697 599 750 l 708 697 l 633 507 q 501 535 567 535 l 501 535 q 329 372 329 535 l 329 372 q 374 249 329 290 q 501 208 419 208 l 501 208 q 657 246 582 208 z "},"":{"ha":885,"x_min":69,"x_max":850,"o":"m 396 519 l 354 519 l 354 217 l 396 217 q 463 220 440 217 q 511 237 486 224 q 546 282 536 250 q 556 368 556 314 q 546 454 556 422 q 511 499 536 486 q 463 516 486 513 q 396 519 440 519 l 396 519 z m 417 0 l 69 0 l 69 736 l 417 736 q 739 642 628 736 q 850 368 850 547 l 850 368 q 417 0 850 0 l 417 0 z "},"":{"ha":885,"x_min":69,"x_max":850,"o":"m 396 519 l 354 519 l 354 217 l 396 217 q 463 220 440 217 q 511 237 486 224 q 546 282 536 250 q 556 368 556 314 q 546 454 556 422 q 511 499 536 486 q 463 516 486 513 q 396 519 440 519 l 396 519 z m 417 0 l 69 0 l 69 736 l 417 736 q 739 642 628 736 q 850 368 850 547 l 850 368 q 417 0 850 0 l 417 0 z m 567 1118 l 653 1038 l 475 821 l 350 821 l 172 1038 l 258 1118 l 413 953 l 567 1118 z "},"":{"ha":926,"x_min":40,"x_max":892,"o":"m 104 275 l 40 275 l 40 465 l 104 465 l 104 736 l 458 736 q 781 642 669 736 q 892 368 892 547 l 892 368 q 458 0 892 0 l 458 0 l 104 0 l 104 275 z m 479 279 l 382 279 l 382 210 l 438 210 q 560 238 524 210 q 597 368 597 267 q 560 498 597 469 q 438 526 524 526 l 438 526 l 382 526 l 382 461 l 479 461 l 479 279 z "},"":{"ha":725,"x_min":69,"x_max":690,"o":"m 690 0 l 69 0 l 69 736 l 669 736 l 669 525 l 354 525 l 354 465 l 565 465 l 565 275 l 354 275 l 354 211 l 690 211 l 690 0 z "},"":{"ha":725,"x_min":69,"x_max":690,"o":"m 690 0 l 69 0 l 69 736 l 669 736 l 669 525 l 354 525 l 354 465 l 565 465 l 565 275 l 354 275 l 354 211 l 690 211 l 690 0 z m 318 807 l 243 900 l 488 1118 l 579 1004 l 318 807 z "},"":{"ha":725,"x_min":69,"x_max":690,"o":"m 690 0 l 69 0 l 69 736 l 669 736 l 669 525 l 354 525 l 354 465 l 565 465 l 565 275 l 354 275 l 354 211 l 690 211 l 690 0 z m 522 1118 l 608 1038 l 431 821 l 306 821 l 128 1038 l 214 1118 l 368 953 l 522 1118 z "},"":{"ha":725,"x_min":69,"x_max":690,"o":"m 690 0 l 69 0 l 69 736 l 669 736 l 669 525 l 354 525 l 354 465 l 565 465 l 565 275 l 354 275 l 354 211 l 690 211 l 690 0 z m 307 1106 l 432 1106 l 610 889 l 524 808 l 369 974 l 215 808 l 129 889 l 307 1106 z "},"":{"ha":725,"x_min":69,"x_max":690,"o":"m 690 0 l 69 0 l 69 736 l 669 736 l 669 525 l 354 525 l 354 465 l 565 465 l 565 275 l 354 275 l 354 211 l 690 211 l 690 0 z m 97 853 q 72 944 72 878 q 97 1036 72 1011 q 189 1061 122 1061 q 281 1036 256 1061 q 306 944 306 1011 q 281 853 306 878 q 189 828 256 828 q 97 853 122 828 z m 450 853 q 425 944 425 878 q 450 1036 425 1011 q 542 1061 475 1061 q 633 1036 608 1061 q 658 944 658 1011 q 633 853 658 878 q 542 828 608 828 q 450 853 475 828 z "},"":{"ha":725,"x_min":69,"x_max":690,"o":"m 690 0 l 69 0 l 69 736 l 669 736 l 669 525 l 354 525 l 354 465 l 565 465 l 565 275 l 354 275 l 354 211 l 690 211 l 690 0 z m 270 854 q 243 954 243 881 q 270 1054 243 1028 q 369 1081 297 1081 q 469 1054 442 1081 q 496 954 496 1028 q 469 854 496 881 q 369 828 442 828 q 270 854 297 828 z "},"":{"ha":725,"x_min":69,"x_max":690,"o":"m 690 0 l 69 0 l 69 736 l 669 736 l 669 525 l 354 525 l 354 465 l 565 465 l 565 275 l 354 275 l 354 211 l 690 211 l 690 0 z m 169 1004 l 261 1118 l 506 900 l 431 807 l 169 1004 z "},"":{"ha":725,"x_min":69,"x_max":690,"o":"m 690 0 l 69 0 l 69 736 l 669 736 l 669 525 l 354 525 l 354 465 l 565 465 l 565 275 l 354 275 l 354 211 l 690 211 l 690 0 z m 604 997 l 604 861 l 136 861 l 136 997 l 604 997 z "},"":{"ha":725,"x_min":69,"x_max":701,"o":"m 422 0 l 69 0 l 69 736 l 669 736 l 669 525 l 354 525 l 354 465 l 565 465 l 565 275 l 354 275 l 354 211 l 690 211 l 690 0 l 535 0 q 521 -69 521 -32 l 521 -69 q 590 -153 521 -153 l 590 -153 q 653 -137 619 -153 l 653 -137 l 701 -246 q 565 -286 646 -286 l 565 -286 q 434 -237 481 -286 q 388 -117 388 -187 l 388 -117 q 422 0 388 -53 l 422 0 z "},"":{"ha":926,"x_min":40,"x_max":892,"o":"m 104 275 l 40 275 l 40 465 l 104 465 l 104 736 l 458 736 q 781 642 669 736 q 892 368 892 547 l 892 368 q 458 0 892 0 l 458 0 l 104 0 l 104 275 z m 479 279 l 382 279 l 382 210 l 438 210 q 560 238 524 210 q 597 368 597 267 q 560 498 597 469 q 438 526 524 526 l 438 526 l 382 526 l 382 461 l 479 461 l 479 279 z "},"":{"ha":683,"x_min":69,"x_max":656,"o":"m 354 0 l 69 0 l 69 736 l 656 736 l 656 525 l 354 525 l 354 415 l 565 415 l 565 204 l 354 204 l 354 0 z "},"":{"ha":858,"x_min":35,"x_max":803,"o":"m 553 254 l 465 254 l 465 440 l 803 440 l 803 61 q 479 -14 654 -14 l 479 -14 q 309 8 388 -14 q 168 72 231 29 q 70 188 106 115 q 35 354 35 260 l 35 354 q 75 531 35 453 q 183 655 115 608 q 336 726 251 701 q 517 750 421 750 l 517 750 q 782 697 664 750 l 782 697 l 713 521 q 549 549 639 549 l 549 549 q 384 503 446 549 q 322 360 322 457 l 322 360 q 372 231 322 275 q 506 188 422 188 l 506 188 q 553 190 528 188 l 553 190 l 553 254 z "},"":{"ha":858,"x_min":35,"x_max":803,"o":"m 553 254 l 465 254 l 465 440 l 803 440 l 803 61 q 479 -14 654 -14 l 479 -14 q 309 8 388 -14 q 168 72 231 29 q 70 188 106 115 q 35 354 35 260 l 35 354 q 75 531 35 453 q 183 655 115 608 q 336 726 251 701 q 517 750 421 750 l 517 750 q 782 697 664 750 l 782 697 l 713 521 q 549 549 639 549 l 549 549 q 384 503 446 549 q 322 360 322 457 l 322 360 q 372 231 322 275 q 506 188 422 188 l 506 188 q 553 190 528 188 l 553 190 l 553 254 z m 229 1068 l 229 1068 l 350 1068 q 456 957 365 957 q 561 1068 546 957 l 561 1068 l 682 1068 q 619 895 682 963 q 456 828 556 828 q 292 895 356 828 q 229 1068 229 963 z "},"":{"ha":858,"x_min":35,"x_max":803,"o":"m 553 254 l 465 254 l 465 440 l 803 440 l 803 61 q 479 -14 654 -14 l 479 -14 q 309 8 388 -14 q 168 72 231 29 q 70 188 106 115 q 35 354 35 260 l 35 354 q 75 531 35 453 q 183 655 115 608 q 336 726 251 701 q 517 750 421 750 l 517 750 q 782 697 664 750 l 782 697 l 713 521 q 549 549 639 549 l 549 549 q 384 503 446 549 q 322 360 322 457 l 322 360 q 372 231 322 275 q 506 188 422 188 l 506 188 q 553 190 528 188 l 553 190 l 553 254 z m 425 -319 l 425 -319 l 317 -250 q 394 -114 394 -193 l 394 -114 q 383 -39 394 -83 l 383 -39 l 542 -39 q 564 -133 564 -87 l 564 -133 q 526 -243 564 -194 q 425 -319 489 -292 z "},"":{"ha":914,"x_min":69,"x_max":844,"o":"m 560 272 l 354 272 l 354 0 l 69 0 l 69 736 l 354 736 l 354 504 l 560 504 l 560 736 l 844 736 l 844 0 l 560 0 l 560 272 z "},"":{"ha":424,"x_min":69,"x_max":354,"o":"m 69 0 l 69 736 l 354 736 l 354 0 l 69 0 z "},"":{"ha":424,"x_min":51,"x_max":388,"o":"m 69 0 l 69 736 l 354 736 l 354 0 l 69 0 z m 126 807 l 51 900 l 296 1118 l 388 1004 l 126 807 z "},"":{"ha":424,"x_min":-29,"x_max":451,"o":"m 69 0 l 69 736 l 354 736 l 354 0 l 69 0 z m 149 1106 l 274 1106 l 451 889 l 365 808 l 211 974 l 57 808 l -29 889 l 149 1106 z "},"":{"ha":424,"x_min":-82,"x_max":504,"o":"m 69 0 l 69 736 l 354 736 l 354 0 l 69 0 z m -57 853 q -82 944 -82 878 q -57 1036 -82 1011 q 35 1061 -32 1061 q 126 1036 101 1061 q 151 944 151 1011 q 126 853 151 878 q 35 828 101 828 q -57 853 -32 828 z m 296 853 q 271 944 271 878 q 296 1036 271 1011 q 388 1061 321 1061 q 479 1036 454 1061 q 504 944 504 1011 q 479 853 504 878 q 388 828 454 828 q 296 853 321 828 z "},"":{"ha":424,"x_min":69,"x_max":354,"o":"m 112 854 q 85 954 85 881 q 112 1054 85 1028 q 211 1081 139 1081 q 310 1054 283 1081 q 338 954 338 1028 q 310 854 338 881 q 211 828 283 828 q 112 854 139 828 z m 69 0 l 69 736 l 354 736 l 354 0 l 69 0 z "},"":{"ha":424,"x_min":44,"x_max":381,"o":"m 69 0 l 69 736 l 354 736 l 354 0 l 69 0 z m 44 1004 l 136 1118 l 381 900 l 306 807 l 44 1004 z "},"":{"ha":424,"x_min":-22,"x_max":446,"o":"m 69 0 l 69 736 l 354 736 l 354 0 l 69 0 z m 446 997 l 446 861 l -22 861 l -22 997 l 446 997 z "},"":{"ha":424,"x_min":35,"x_max":354,"o":"m 69 0 l 69 736 l 354 736 l 354 0 l 182 0 q 168 -69 168 -32 l 168 -69 q 238 -153 168 -153 l 238 -153 q 300 -137 267 -153 l 300 -137 l 349 -246 q 213 -286 293 -286 l 213 -286 q 81 -237 128 -286 q 35 -117 35 -187 l 35 -117 q 69 0 35 -53 l 69 0 z "},"":{"ha":444,"x_min":-62,"x_max":375,"o":"m 90 196 l 90 736 l 375 736 l 375 129 q 271 -100 375 -15 q -17 -190 167 -185 l -17 -190 l -62 0 q 53 63 15 17 q 90 196 90 108 l 90 196 z "},"":{"ha":910,"x_min":69,"x_max":910,"o":"m 910 14 l 910 0 l 579 0 l 361 369 l 628 736 l 889 736 l 889 722 l 664 413 l 910 14 z m 69 0 l 69 736 l 354 736 l 354 0 l 69 0 z "},"":{"ha":910,"x_min":69,"x_max":910,"o":"m 910 14 l 910 0 l 579 0 l 361 369 l 628 736 l 889 736 l 889 722 l 664 413 l 910 14 z m 69 0 l 69 736 l 354 736 l 354 0 l 69 0 z m 433 -319 l 433 -319 l 325 -250 q 403 -114 403 -193 l 403 -114 q 392 -39 403 -83 l 392 -39 l 550 -39 q 572 -133 572 -87 l 572 -133 q 535 -243 572 -194 q 433 -319 497 -292 z "},"":{"ha":656,"x_min":69,"x_max":656,"o":"m 656 0 l 69 0 l 69 736 l 354 736 l 354 231 l 656 231 l 656 0 z "},"":{"ha":656,"x_min":69,"x_max":656,"o":"m 656 0 l 69 0 l 69 736 l 354 736 l 354 231 l 656 231 l 656 0 z m 146 807 l 71 900 l 315 1118 l 407 1004 l 146 807 z "},"":{"ha":656,"x_min":69,"x_max":656,"o":"m 656 0 l 69 0 l 69 736 l 354 736 l 354 231 l 656 231 l 656 0 z m 514 456 l 514 456 l 406 525 q 483 661 483 582 l 483 661 q 472 736 483 692 l 472 736 l 631 736 q 653 642 653 688 l 653 642 q 615 532 653 581 q 514 456 578 483 z "},"":{"ha":656,"x_min":69,"x_max":656,"o":"m 656 0 l 69 0 l 69 736 l 354 736 l 354 231 l 656 231 l 656 0 z m 325 -319 l 325 -319 l 217 -250 q 294 -114 294 -193 l 294 -114 q 283 -39 294 -83 l 283 -39 l 442 -39 q 464 -133 464 -87 l 464 -133 q 426 -243 464 -194 q 325 -319 389 -292 z "},"":{"ha":690,"x_min":21,"x_max":690,"o":"m 542 675 l 542 492 l 389 378 l 389 231 l 690 231 l 690 0 l 104 0 l 104 179 l 26 122 l 21 124 l 21 307 l 104 368 l 104 736 l 389 736 l 389 567 l 536 676 l 542 675 z "},"":{"ha":1246,"x_min":56,"x_max":1190,"o":"m 672 461 l 735 736 l 1128 736 l 1190 0 l 911 0 l 889 272 l 876 535 l 868 535 q 817 272 846 396 l 817 272 l 757 14 l 475 14 l 415 272 q 392 393 403 328 q 375 497 381 458 l 375 497 l 371 535 l 363 535 q 349 272 361 396 l 349 272 l 321 0 l 56 0 l 132 736 l 525 736 l 588 461 q 610 342 600 407 q 622 239 619 276 l 622 239 l 626 200 l 632 200 q 672 461 644 339 l 672 461 z "},"":{"ha":928,"x_min":69,"x_max":858,"o":"m 606 242 l 614 201 l 619 201 q 608 458 608 347 l 608 458 l 608 736 l 858 736 l 858 0 l 472 0 l 381 265 q 346 385 363 318 q 322 494 329 453 l 322 494 l 314 535 l 308 535 q 319 278 319 389 l 319 278 l 319 0 l 69 0 l 69 736 l 456 736 l 547 471 q 582 351 565 418 q 606 242 599 283 l 606 242 z "},"":{"ha":928,"x_min":69,"x_max":858,"o":"m 606 242 l 614 201 l 619 201 q 608 458 608 347 l 608 458 l 608 736 l 858 736 l 858 0 l 472 0 l 381 265 q 346 385 363 318 q 322 494 329 453 l 322 494 l 314 535 l 308 535 q 319 278 319 389 l 319 278 l 319 0 l 69 0 l 69 736 l 456 736 l 547 471 q 582 351 565 418 q 606 242 599 283 l 606 242 z m 413 807 l 338 900 l 582 1118 l 674 1004 l 413 807 z "},"":{"ha":928,"x_min":69,"x_max":858,"o":"m 606 242 l 614 201 l 619 201 q 608 458 608 347 l 608 458 l 608 736 l 858 736 l 858 0 l 472 0 l 381 265 q 346 385 363 318 q 322 494 329 453 l 322 494 l 314 535 l 308 535 q 319 278 319 389 l 319 278 l 319 0 l 69 0 l 69 736 l 456 736 l 547 471 q 582 351 565 418 q 606 242 599 283 l 606 242 z m 618 1118 l 704 1038 l 526 821 l 401 821 l 224 1038 l 310 1118 l 464 953 l 618 1118 z "},"":{"ha":928,"x_min":69,"x_max":858,"o":"m 606 242 l 614 201 l 619 201 q 608 458 608 347 l 608 458 l 608 736 l 858 736 l 858 0 l 472 0 l 381 265 q 346 385 363 318 q 322 494 329 453 l 322 494 l 314 535 l 308 535 q 319 278 319 389 l 319 278 l 319 0 l 69 0 l 69 736 l 456 736 l 547 471 q 582 351 565 418 q 606 242 599 283 l 606 242 z m 431 -319 l 431 -319 l 322 -250 q 400 -114 400 -193 l 400 -114 q 389 -39 400 -83 l 389 -39 l 547 -39 q 569 -133 569 -87 l 569 -133 q 532 -243 569 -194 q 431 -319 494 -292 z "},"":{"ha":928,"x_min":69,"x_max":858,"o":"m 606 242 l 614 201 l 619 201 q 608 458 608 347 l 608 458 l 608 736 l 858 736 l 858 0 l 472 0 l 381 265 q 346 385 363 318 q 322 494 329 453 l 322 494 l 314 535 l 308 535 q 319 278 319 389 l 319 278 l 319 0 l 69 0 l 69 736 l 456 736 l 547 471 q 582 351 565 418 q 606 242 599 283 l 606 242 z m 335 821 l 335 821 l 219 821 q 264 972 222 906 q 371 1039 306 1039 l 371 1039 q 445 1019 410 1039 q 506 978 481 999 q 547 958 532 958 l 547 958 q 594 1039 582 958 l 594 1039 l 710 1039 q 666 887 707 953 q 558 821 625 821 l 558 821 q 485 841 522 821 q 422 881 449 861 q 382 901 394 901 l 382 901 q 335 821 346 901 z "},"":{"ha":931,"x_min":35,"x_max":896,"o":"m 35 368 l 35 368 q 155 656 35 561 q 465 750 275 750 q 776 656 656 750 q 896 368 896 561 l 896 368 q 776 79 896 172 q 465 -14 657 -14 q 154 79 274 -14 q 35 368 35 172 z m 465 194 q 601 368 601 194 q 465 542 601 542 q 329 368 329 542 q 465 194 329 194 z "},"":{"ha":1258,"x_min":35,"x_max":1224,"o":"m 1224 211 l 1224 0 l 735 0 q 603 -7 679 0 q 465 -14 526 -14 l 465 -14 q 154 79 274 -14 q 35 368 35 172 l 35 368 q 155 656 35 561 q 465 750 275 750 l 465 750 q 603 743 526 750 q 735 736 679 736 l 735 736 l 1203 736 l 1203 525 l 888 525 l 888 465 l 1099 465 l 1099 275 l 888 275 l 888 211 l 1224 211 z m 603 217 l 603 217 l 603 518 q 499 542 551 542 l 499 542 q 373 497 417 542 q 329 368 329 453 l 329 368 q 496 194 329 194 l 496 194 q 603 217 554 194 z "},"":{"ha":931,"x_min":35,"x_max":896,"o":"m 35 368 l 35 368 q 155 656 35 561 q 465 750 275 750 q 776 656 656 750 q 896 368 896 561 l 896 368 q 776 79 896 172 q 465 -14 657 -14 q 154 79 274 -14 q 35 368 35 172 z m 465 194 q 601 368 601 194 q 465 542 601 542 q 329 368 329 542 q 465 194 329 194 z m 428 807 l 353 900 l 597 1118 l 689 1004 l 428 807 z "},"":{"ha":931,"x_min":35,"x_max":896,"o":"m 35 368 l 35 368 q 155 656 35 561 q 465 750 275 750 q 776 656 656 750 q 896 368 896 561 l 896 368 q 776 79 896 172 q 465 -14 657 -14 q 154 79 274 -14 q 35 368 35 172 z m 465 194 q 601 368 601 194 q 465 542 601 542 q 329 368 329 542 q 465 194 329 194 z m 403 1106 l 528 1106 l 706 889 l 619 808 l 465 974 l 311 808 l 225 889 l 403 1106 z "},"":{"ha":931,"x_min":35,"x_max":896,"o":"m 35 368 l 35 368 q 155 656 35 561 q 465 750 275 750 q 776 656 656 750 q 896 368 896 561 l 896 368 q 776 79 896 172 q 465 -14 657 -14 q 154 79 274 -14 q 35 368 35 172 z m 465 194 q 601 368 601 194 q 465 542 601 542 q 329 368 329 542 q 465 194 329 194 z m 197 853 q 172 944 172 878 q 197 1036 172 1011 q 289 1061 222 1061 q 381 1036 356 1061 q 406 944 406 1011 q 381 853 406 878 q 289 828 356 828 q 197 853 222 828 z m 550 853 q 525 944 525 878 q 550 1036 525 1011 q 642 1061 575 1061 q 733 1036 708 1061 q 758 944 758 1011 q 733 853 758 878 q 642 828 708 828 q 550 853 575 828 z "},"":{"ha":931,"x_min":35,"x_max":896,"o":"m 35 368 l 35 368 q 155 656 35 561 q 465 750 275 750 q 776 656 656 750 q 896 368 896 561 l 896 368 q 776 79 896 172 q 465 -14 657 -14 q 154 79 274 -14 q 35 368 35 172 z m 465 194 q 601 368 601 194 q 465 542 601 542 q 329 368 329 542 q 465 194 329 194 z m 256 1004 l 347 1118 l 592 900 l 517 807 l 256 1004 z "},"":{"ha":931,"x_min":35,"x_max":896,"o":"m 35 368 l 35 368 q 155 656 35 561 q 465 750 275 750 q 776 656 656 750 q 896 368 896 561 l 896 368 q 776 79 896 172 q 465 -14 657 -14 q 154 79 274 -14 q 35 368 35 172 z m 465 194 q 601 368 601 194 q 465 542 601 542 q 329 368 329 542 q 465 194 329 194 z m 286 807 l 203 892 l 396 1117 l 499 1013 l 286 807 z m 599 807 l 515 892 l 708 1117 l 811 1013 l 599 807 z "},"":{"ha":931,"x_min":35,"x_max":896,"o":"m 35 368 l 35 368 q 155 656 35 561 q 465 750 275 750 q 776 656 656 750 q 896 368 896 561 l 896 368 q 776 79 896 172 q 465 -14 657 -14 q 154 79 274 -14 q 35 368 35 172 z m 465 194 q 601 368 601 194 q 465 542 601 542 q 329 368 329 542 q 465 194 329 194 z m 700 997 l 700 861 l 232 861 l 232 997 l 700 997 z "},"":{"ha":931,"x_min":35,"x_max":896,"o":"m 35 368 l 35 368 q 155 656 35 561 q 465 750 275 750 l 465 750 q 639 726 557 750 l 639 726 l 700 810 l 813 732 l 764 665 q 896 368 896 565 l 896 368 q 776 79 896 172 q 465 -14 657 -14 l 465 -14 q 288 10 364 -14 l 288 10 l 224 -78 l 111 0 l 164 72 q 35 368 35 172 z m 608 368 l 608 368 q 597 454 608 413 l 597 454 l 408 192 q 465 183 433 183 l 465 183 q 608 368 608 183 z m 465 553 l 465 553 q 322 368 322 553 l 322 368 q 331 285 322 322 l 331 285 l 517 544 q 465 553 493 553 z "},"":{"ha":931,"x_min":35,"x_max":896,"o":"m 35 368 l 35 368 q 155 656 35 561 q 465 750 275 750 q 776 656 656 750 q 896 368 896 561 l 896 368 q 776 79 896 172 q 465 -14 657 -14 q 154 79 274 -14 q 35 368 35 172 z m 465 194 q 601 368 601 194 q 465 542 601 542 q 329 368 329 542 q 465 194 329 194 z m 336 821 l 336 821 l 221 821 q 265 972 224 906 q 372 1039 307 1039 l 372 1039 q 447 1019 411 1039 q 508 978 482 999 q 549 958 533 958 l 549 958 q 596 1039 583 958 l 596 1039 l 711 1039 q 667 887 708 953 q 560 821 626 821 l 560 821 q 453 861 511 821 q 383 901 394 901 l 383 901 q 336 821 347 901 z "},"":{"ha":768,"x_min":69,"x_max":754,"o":"m 389 547 l 389 547 l 347 547 l 347 392 l 389 392 q 448 408 429 392 q 467 469 467 424 q 448 531 467 515 q 389 547 429 547 z m 369 203 l 369 203 l 354 203 l 354 0 l 69 0 l 69 736 l 369 736 q 562 713 479 736 q 699 627 644 689 q 754 469 754 565 q 699 312 754 374 q 562 226 644 250 q 369 203 479 203 z "},"":{"ha":931,"x_min":35,"x_max":896,"o":"m 35 368 l 35 368 q 155 656 35 561 q 465 750 275 750 q 776 656 656 750 q 896 368 896 561 l 896 368 q 813 114 896 206 q 588 -3 729 22 l 588 -3 q 732 -56 610 -62 l 732 -56 l 697 -200 q 461 -146 551 -200 q 338 -3 371 -92 l 338 -3 q 117 115 199 24 q 35 368 35 207 z m 465 194 q 601 368 601 194 q 465 542 601 542 q 329 368 329 542 q 465 194 329 194 z "},"":{"ha":851,"x_min":69,"x_max":851,"o":"m 519 0 l 382 231 l 354 231 l 354 0 l 69 0 l 69 736 l 369 736 q 754 483 754 736 l 754 483 q 654 293 754 358 l 654 293 q 769 139 708 233 l 769 139 l 851 14 l 851 0 l 519 0 z m 389 547 l 389 547 l 347 547 l 347 406 l 389 406 q 448 421 429 406 q 467 476 467 436 q 448 532 467 517 q 389 547 429 547 z "},"":{"ha":851,"x_min":69,"x_max":851,"o":"m 519 0 l 382 231 l 354 231 l 354 0 l 69 0 l 69 736 l 369 736 q 754 483 754 736 l 754 483 q 654 293 754 358 l 654 293 q 769 139 708 233 l 769 139 l 851 14 l 851 0 l 519 0 z m 389 547 l 389 547 l 347 547 l 347 406 l 389 406 q 448 421 429 406 q 467 476 467 436 q 448 532 467 517 q 389 547 429 547 z m 357 807 l 282 900 l 526 1118 l 618 1004 l 357 807 z "},"":{"ha":851,"x_min":69,"x_max":851,"o":"m 519 0 l 382 231 l 354 231 l 354 0 l 69 0 l 69 736 l 369 736 q 754 483 754 736 l 754 483 q 654 293 754 358 l 654 293 q 769 139 708 233 l 769 139 l 851 14 l 851 0 l 519 0 z m 389 547 l 389 547 l 347 547 l 347 406 l 389 406 q 448 421 429 406 q 467 476 467 436 q 448 532 467 517 q 389 547 429 547 z m 553 1118 l 639 1038 l 461 821 l 336 821 l 158 1038 l 244 1118 l 399 953 l 553 1118 z "},"":{"ha":851,"x_min":69,"x_max":851,"o":"m 519 0 l 382 231 l 354 231 l 354 0 l 69 0 l 69 736 l 369 736 q 754 483 754 736 l 754 483 q 654 293 754 358 l 654 293 q 769 139 708 233 l 769 139 l 851 14 l 851 0 l 519 0 z m 389 547 l 389 547 l 347 547 l 347 406 l 389 406 q 448 421 429 406 q 467 476 467 436 q 448 532 467 517 q 389 547 429 547 z m 401 -319 l 401 -319 l 293 -250 q 371 -114 371 -193 l 371 -114 q 360 -39 371 -83 l 360 -39 l 518 -39 q 540 -133 540 -87 l 540 -133 q 503 -243 540 -194 q 401 -319 465 -292 z "},"":{"ha":715,"x_min":35,"x_max":688,"o":"m 35 47 l 35 47 l 100 226 q 296 190 172 190 l 296 190 q 393 228 393 190 l 393 228 q 375 254 393 246 q 305 274 357 263 q 215 297 253 285 l 215 297 q 47 500 47 353 l 47 500 q 100 646 47 588 q 228 727 153 704 q 399 750 304 750 l 399 750 q 658 700 544 750 l 658 700 l 594 524 q 403 554 515 554 l 403 554 q 319 525 319 554 l 319 525 q 327 506 319 514 q 352 492 335 499 q 389 482 369 486 q 442 469 408 478 q 503 453 475 461 l 503 453 q 638 379 589 426 q 688 247 688 332 l 688 247 q 632 98 688 158 q 494 12 576 38 q 313 -14 413 -14 l 313 -14 q 35 47 144 -14 z "},"":{"ha":715,"x_min":35,"x_max":688,"o":"m 35 47 l 35 47 l 100 226 q 296 190 172 190 l 296 190 q 393 228 393 190 l 393 228 q 375 254 393 246 q 305 274 357 263 q 215 297 253 285 l 215 297 q 47 500 47 353 l 47 500 q 100 646 47 588 q 228 727 153 704 q 399 750 304 750 l 399 750 q 658 700 544 750 l 658 700 l 594 524 q 403 554 515 554 l 403 554 q 319 525 319 554 l 319 525 q 327 506 319 514 q 352 492 335 499 q 389 482 369 486 q 442 469 408 478 q 503 453 475 461 l 503 453 q 638 379 589 426 q 688 247 688 332 l 688 247 q 632 98 688 158 q 494 12 576 38 q 313 -14 413 -14 l 313 -14 q 35 47 144 -14 z m 304 807 l 229 900 l 474 1118 l 565 1004 l 304 807 z "},"":{"ha":715,"x_min":35,"x_max":688,"o":"m 35 47 l 35 47 l 100 226 q 296 190 172 190 l 296 190 q 393 228 393 190 l 393 228 q 375 254 393 246 q 305 274 357 263 q 215 297 253 285 l 215 297 q 47 500 47 353 l 47 500 q 100 646 47 588 q 228 727 153 704 q 399 750 304 750 l 399 750 q 658 700 544 750 l 658 700 l 594 524 q 403 554 515 554 l 403 554 q 319 525 319 554 l 319 525 q 327 506 319 514 q 352 492 335 499 q 389 482 369 486 q 442 469 408 478 q 503 453 475 461 l 503 453 q 638 379 589 426 q 688 247 688 332 l 688 247 q 632 98 688 158 q 494 12 576 38 q 313 -14 413 -14 l 313 -14 q 35 47 144 -14 z m 511 1118 l 597 1038 l 419 821 l 294 821 l 117 1038 l 203 1118 l 357 953 l 511 1118 z "},"":{"ha":715,"x_min":35,"x_max":688,"o":"m 35 47 l 35 47 l 100 226 q 296 190 172 190 l 296 190 q 393 228 393 190 l 393 228 q 375 254 393 246 q 305 274 357 263 q 215 297 253 285 l 215 297 q 47 500 47 353 l 47 500 q 100 646 47 588 q 228 727 153 704 q 399 750 304 750 l 399 750 q 658 700 544 750 l 658 700 l 594 524 q 403 554 515 554 l 403 554 q 319 525 319 554 l 319 525 q 327 506 319 514 q 352 492 335 499 q 389 482 369 486 q 442 469 408 478 q 503 453 475 461 l 503 453 q 638 379 589 426 q 688 247 688 332 l 688 247 q 622 85 688 147 q 447 0 556 24 l 447 0 q 483 -117 483 -53 l 483 -117 q 437 -237 483 -187 q 306 -286 390 -286 l 306 -286 q 169 -246 225 -286 l 169 -246 l 218 -137 q 281 -153 251 -153 l 281 -153 q 350 -69 350 -153 l 350 -69 q 340 -14 350 -43 l 340 -14 l 313 -14 q 35 47 144 -14 z "}}}
